<svg id="Capa_1" enable-background="new 0 0 512.026 512.026" height="512" viewBox="0 0 512.026 512.026" width="512" xmlns="http://www.w3.org/2000/svg"><g><g><g><path d="m501.946 450.672-228.474-408.832c-7.633-13.658-27.285-13.658-34.917 0l-228.474 408.832c-7.45 13.331 2.187 29.757 17.459 29.757h456.948c15.271 0 24.908-16.426 17.458-29.757z" fill="#fff18f"/></g></g><g><path d="m134.84 454.925 121.173-423.328c-6.821 0-13.642 3.414-17.459 10.243l-228.473 408.832c-7.45 13.331 2.187 29.757 17.459 29.757h126.528c-13.292 0-22.886-12.726-19.228-25.504z" fill="#ffde83"/></g><g><g><g><ellipse cx="230.632" cy="405.552" fill="#ff7591" rx="29.387" ry="23.403"/></g><g><ellipse cx="389.922" cy="405.552" fill="#ff7591" rx="29.387" ry="23.403"/></g><g><path d="m333.971 387.571c0-14.643-10.608-16.019-23.693-16.019-13.086 0-23.694 1.376-23.694 16.019s10.608 26.513 23.694 26.513c13.085 0 23.693-11.87 23.693-26.513z" fill="#3b4456"/></g></g><g><path d="m235.545 385.113c-4.142 0-7.5-3.358-7.5-7.5v-12c0-4.142 3.358-7.5 7.5-7.5s7.5 3.358 7.5 7.5v12c0 4.142-3.358 7.5-7.5 7.5z"/></g><g><path d="m310.277 421.584c-17.2 0-31.194-15.258-31.194-34.013 0-23.519 21.859-23.519 31.194-23.519s31.193 0 31.193 23.519c.001 18.755-13.992 34.013-31.193 34.013zm0-42.532c-15.539 0-16.194 2.611-16.194 8.519 0 10.484 7.265 19.013 16.194 19.013s16.193-8.529 16.193-19.013c.001-5.907-.654-8.519-16.193-8.519z"/></g><g><path d="m385.009 385.113c-4.142 0-7.5-3.358-7.5-7.5v-12c0-4.142 3.358-7.5 7.5-7.5s7.5 3.358 7.5 7.5v12c0 4.142-3.358 7.5-7.5 7.5z"/></g></g><g><path d="m508.493 447.013-63.745-114.064c-2.021-3.616-6.591-4.91-10.206-2.888-3.616 2.021-4.909 6.59-2.888 10.206l63.745 114.064c2.187 3.913 2.138 8.558-.13 12.423-2.269 3.867-6.299 6.175-10.782 6.175h-330.41c-.003 0-.006 0-.01 0-3.959 0-7.598-1.813-9.981-4.975-2.384-3.161-3.126-7.158-2.036-10.964l36.489-127.476h23.061c4.142 0 7.5-3.358 7.5-7.5s-3.358-7.5-7.5-7.5h-18.768l41.568-145.219h49.265c4.142 0 7.5-3.358 7.5-7.5s-3.358-7.5-7.5-7.5h-44.971l32.635-114.012c2.318 1.082 4.28 2.86 5.597 5.216l105.569 188.905h-45.777c-4.142 0-7.5 3.358-7.5 7.5s3.358 7.5 7.5 7.5h54.16l34.237 61.264c1.374 2.458 3.925 3.843 6.554 3.843 1.238 0 2.494-.308 3.652-.955 3.616-2.021 4.909-6.59 2.888-10.206l-36.331-65.011c-.005-.01-.011-.019-.016-.029l-111.843-200.128c-4.928-8.819-13.902-14.084-24.005-14.084-.022 0-.044.002-.066.002-.091.001-.181.005-.271.009-9.964.116-18.795 5.353-23.668 14.073l-58.653 104.954c-2.021 3.616-.728 8.185 2.888 10.206 3.615 2.022 8.185.728 10.206-2.888l56.87-101.767-31.737 110.877c0 .001-.001.002-.001.004l-44.352 154.945h-35.468c-4.142 0-7.5 3.358-7.5 7.5s3.358 7.5 7.5 7.5h31.175l-35.307 123.348c-1.951 6.818-1.231 13.913 1.933 20.068h-102.023c-4.482 0-8.513-2.308-10.782-6.175-2.268-3.866-2.317-8.51-.13-12.423l153.055-273.877c2.021-3.616.728-8.185-2.888-10.206-3.617-2.022-8.185-.728-10.206 2.888l-153.055 273.877c-4.811 8.608-4.704 18.826.287 27.332s13.857 13.584 23.719 13.584h456.947c9.862 0 18.729-5.078 23.719-13.584 4.99-8.505 5.098-18.723.287-27.332z"/></g></g></svg>