<svg id="Capa_1" enable-background="new 0 0 512 512" height="512" viewBox="0 0 512 512" width="512" xmlns="http://www.w3.org/2000/svg"><g><g><g><path d="m107.5 207.5h-40v-180c0-11.046 8.954-20 20-20 11.046 0 20 8.954 20 20z" fill="#44cf79"/></g><g><path d="m47.5 65.029c11.046 0 20 8.954 20 20v78.471c-22.091 0-40-17.909-40-40v-38.471c0-11.046 8.954-20 20-20z" fill="#00c272"/></g><g><path d="m127.5 39.793c-11.046 0-20 8.954-20 20v58.471c22.091 0 40-17.909 40-40v-18.471c0-11.045-8.954-20-20-20z" fill="#00c272"/></g></g><g><g><path d="m444.5 207.5h-40v-180c0-11.046 8.954-20 20-20 11.046 0 20 8.954 20 20z" fill="#44cf79"/></g><g><path d="m384.5 35.029c11.046 0 20 8.954 20 20v78.471c-22.091 0-40-17.909-40-40v-38.471c0-11.046 8.954-20 20-20z" fill="#00c272"/></g><g><path d="m464.5 79.793c-11.046 0-20 8.954-20 20v58.471c22.091 0 40-17.909 40-40v-18.471c0-11.045-8.954-20-20-20z" fill="#00c272"/></g></g><g><circle cx="256" cy="70" fill="#fff18f" r="62.5"/></g><path d="m300.208 88.292c-34.518 0-62.5-27.982-62.5-62.5 0-5.593.745-11.01 2.124-16.169-26.679 7.127-46.332 31.452-46.332 60.377 0 34.518 27.982 62.5 62.5 62.5 28.925 0 53.25-19.653 60.376-46.331-5.158 1.378-10.575 2.123-16.168 2.123z" fill="#ffde83"/><g><path d="m484.5 504.5h-457c-11.046 0-20-8.954-20-20v-260c0-11.046 8.954-20 20-20h457c11.046 0 20 8.954 20 20v260c0 11.046-8.954 20-20 20z" fill="#fff1ce"/></g><g><path d="m256 504.5h-150l40-300h110z" fill="#ffe1bd"/></g><g><path d="m326 204.5h-140l-40 300h90l20-24.084 20 24.084h90z" fill="#525e77"/></g><g><path d="m360.667 464.5c-89.663 0-158.804-78.972-146.954-167.848l12.287-92.152h-40l-40 300h90l20-24.084 20 24.084h90z" fill="#3b4456"/></g><g><path d="m256 333.686c7.823 0 14.09-6.48 13.83-14.298l-2.063-61.879c-.212-6.346-5.417-11.381-11.767-11.381-6.35 0-11.555 5.035-11.767 11.381l-2.063 61.879c-.26 7.818 6.007 14.298 13.83 14.298z" fill="#e7faff"/></g><g><path d="m239.783 390.999-3.783 113.501h40l-3.783-113.501c-.292-8.746-7.466-15.685-16.217-15.685-8.751 0-15.925 6.939-16.217 15.685z" fill="#e7faff"/></g><g><path d="m256 140c38.598 0 70-31.402 70-70s-31.402-70-70-70-70 31.402-70 70 31.402 70 70 70zm0-125c30.327 0 55 24.673 55 55s-24.673 55-55 55-55-24.673-55-55 24.673-55 55-55z"/><path d="m484.5 197h-32.5v-31.844c22.575-3.641 40-23.438 40-46.891v-18.472c0-15.164-12.337-27.5-27.5-27.5-4.5 0-8.747 1.093-12.5 3.018v-47.811c0-15.164-12.337-27.5-27.5-27.5s-27.5 12.336-27.5 27.5v3.046c-3.753-1.924-8-3.018-12.5-3.018-15.163 0-27.5 12.336-27.5 27.5v38.472c0 23.455 17.425 43.251 40 46.891v56.609h-282v-71.832c10.005-1.581 19.218-6.302 26.427-13.659 8.753-8.931 13.573-20.738 13.573-33.244v-18.472c0-15.164-12.336-27.5-27.5-27.5-4.5 0-8.747 1.093-12.5 3.018v-7.811c0-15.164-12.336-27.5-27.5-27.5s-27.5 12.336-27.5 27.5v33.046c-3.753-1.924-8-3.018-12.5-3.018-15.164 0-27.5 12.336-27.5 27.5v38.472c0 23.783 17.141 43.333 40 46.905v26.595h-32.5c-15.164 0-27.5 12.336-27.5 27.5v260c0 15.164 12.336 27.5 27.5 27.5h457c15.164 0 27.5-12.336 27.5-27.5v-260c0-15.164-12.336-27.5-27.5-27.5zm-20-109.707c6.893 0 12.5 5.607 12.5 12.5v18.471c0 15.218-10.721 28.185-25 31.609v-50.08c0-6.892 5.607-12.5 12.5-12.5zm-60 4.467c-4.143 0-7.5 3.358-7.5 7.5v25.85c-14.279-3.424-25-16.391-25-31.609v-38.472c0-6.893 5.607-12.5 12.5-12.5s12.5 5.607 12.5 12.5v14.231c0 4.142 3.357 7.5 7.5 7.5s7.5-3.358 7.5-7.5v-41.76c0-6.893 5.607-12.5 12.5-12.5s12.5 5.607 12.5 12.5v169.5h-25v-97.74c0-4.142-3.357-7.5-7.5-7.5zm-277-44.467c6.893 0 12.5 5.607 12.5 12.5v18.471c0 15.209-10.724 28.183-25 31.609v-50.08c0-6.892 5.607-12.5 12.5-12.5zm-92.5 76.207v-38.471c0-6.893 5.607-12.5 12.5-12.5s12.5 5.607 12.5 12.5v70.114c-14.442-3.358-25-16.2-25-31.643zm40-96c0-6.893 5.607-12.5 12.5-12.5s12.5 5.607 12.5 12.5v169.5h-25zm-60 457v-260c0-6.893 5.607-12.5 12.5-12.5h149.934l-7.68 57.603c-.547 4.106 2.337 7.878 6.443 8.425.336.045.67.067 1 .067 3.701 0 6.922-2.741 7.425-6.51l7.944-59.585h126.867l38 285h-74.179l-3.542-106.251c-.43-12.86-10.846-22.935-23.713-22.935-12.868 0-23.284 10.074-23.712 22.935l-3.541 106.251h-74.18l26.055-195.415c.547-4.106-2.337-7.878-6.443-8.425-4.103-.549-7.878 2.337-8.425 6.443l-26.319 197.397h-111.934c-6.893 0-12.5-5.607-12.5-12.5zm253.246 12.5h-24.492l3.526-105.751c.157-4.73 3.988-8.435 8.721-8.435s8.563 3.705 8.721 8.435zm228.754-12.5c0 6.893-5.607 12.5-12.5 12.5h-111.933l-38-285h149.933c6.893 0 12.5 5.607 12.5 12.5z"/><path d="m256 341.186c5.834 0 11.28-2.309 15.336-6.502 4.057-4.193 6.184-9.714 5.99-15.546l-2.063-61.877c-.348-10.448-8.809-18.632-19.263-18.632-10.453 0-18.914 8.184-19.263 18.631l-2.063 61.878c-.195 5.831 1.932 11.352 5.988 15.545 4.057 4.193 9.504 6.503 15.338 6.503zm-4.271-83.426c.078-2.317 1.954-4.132 4.271-4.132s4.193 1.814 4.271 4.131l2.063 61.877c.058 1.732-.574 3.373-1.779 4.618-1.204 1.245-2.822 1.931-4.555 1.931s-3.351-.686-4.555-1.932-1.836-2.885-1.779-4.617z"/></g></g></svg>