<svg id="Capa_1" enable-background="new 0 0 512 512" height="512" viewBox="0 0 512 512" width="512" xmlns="http://www.w3.org/2000/svg"><g><g><path d="m75.25 27.5h360v457h-360z" fill="#525e77"/></g><g><path d="m115.25 374.5v-347h-40v457h360v-60h-270c-27.614 0-50-22.386-50-50z" fill="#3b4456"/></g><g><path d="m435.25 47.5h-360c-11.046 0-20-8.954-20-20 0-11.046 8.954-20 20-20h360c11.046 0 20 8.954 20 20 0 11.046-8.954 20-20 20z" fill="#c1f1ff"/></g><g><path d="m136.75 27.5c0-11.046 8.954-20 20-20h-80c-11.046 0-20 8.954-20 20s8.954 20 20 20h80c-11.046 0-20-8.954-20-20z" fill="#a4e6ff"/></g><g><path d="m436.75 149.833h-360c-11.046 0-20-8.954-20-20 0-11.046 8.954-20 20-20h360c11.046 0 20 8.954 20 20 0 11.046-8.954 20-20 20z" fill="#c1f1ff"/></g><g><path d="m136.75 129.833c0-11.046 8.954-20 20-20h-80c-11.046 0-20 8.954-20 20s8.954 20 20 20h80c-11.046 0-20-8.954-20-20z" fill="#a4e6ff"/></g><g><path d="m436.75 402.167h-360c-11.046 0-20-8.954-20-20 0-11.046 8.954-20 20-20h360c11.046 0 20 8.954 20 20 0 11.045-8.954 20-20 20z" fill="#c1f1ff"/></g><g><path d="m136.75 382.167c0-11.046 8.954-20 20-20h-80c-11.046 0-20 8.954-20 20s8.954 20 20 20h80c-11.046 0-20-8.955-20-20z" fill="#a4e6ff"/></g><g><path d="m436.75 504.5h-360c-11.046 0-20-8.954-20-20 0-11.046 8.954-20 20-20h360c11.046 0 20 8.954 20 20 0 11.046-8.954 20-20 20z" fill="#c1f1ff"/></g><g><path d="m136.75 484.5c0-11.046 8.954-20 20-20h-80c-11.046 0-20 8.954-20 20s8.954 20 20 20h80c-11.046 0-20-8.954-20-20z" fill="#a4e6ff"/></g><g><path d="m247.776 201.578c-11.275 12.743-31.443 39.613-32.492 69.756-.801 23.014 17.323 42.664 40.35 42.448 21.919-.206 39.625-18.039 39.625-40.007 0-31.114-20.939-59.088-32.521-72.181-3.975-4.493-10.986-4.509-14.962-.016z" fill="#e7faff"/></g><g><path d="m464.25 382.167c0-13.103-9.214-24.087-21.5-26.833v-198.668c12.286-2.746 21.5-13.73 21.5-26.833s-9.214-24.087-21.5-26.833v-49.048c11.528-3.274 20-13.889 20-26.452 0-15.164-12.336-27.5-27.5-27.5h-360c-15.164 0-27.5 12.336-27.5 27.5 0 12.563 8.472 23.178 20 26.452v49.902c-10.755 3.737-18.5 13.968-18.5 25.98s7.745 22.243 18.5 25.98v127.97c0 4.142 3.358 7.5 7.5 7.5s7.5-3.358 7.5-7.5v-126.45h266c4.142 0 7.5-3.358 7.5-7.5s-3.358-7.5-7.5-7.5h-272c-6.893 0-12.5-5.607-12.5-12.5s5.607-12.5 12.5-12.5h360c6.893 0 12.5 5.607 12.5 12.5s-5.607 12.5-12.5 12.5h-58c-4.142 0-7.5 3.358-7.5 7.5s3.358 7.5 7.5 7.5h49v197.333h-345v-40.882c0-4.142-3.358-7.5-7.5-7.5s-7.5 3.358-7.5 7.5v42.403c-10.755 3.737-18.5 13.968-18.5 25.98s7.745 22.243 18.5 25.98v50.374c-10.755 3.737-18.5 13.968-18.5 25.98 0 15.164 12.336 27.5 27.5 27.5h360c15.164 0 27.5-12.336 27.5-27.5 0-13.103-9.214-24.087-21.5-26.833v-48.668c12.286-2.748 21.5-13.732 21.5-26.834zm-36.5-327.167v47.333h-345v-47.333zm-365-27.5c0-6.893 5.607-12.5 12.5-12.5h360c6.893 0 12.5 5.607 12.5 12.5s-5.607 12.5-12.5 12.5h-360c-6.893 0-12.5-5.607-12.5-12.5zm20 429.5v-47.333h345v47.333zm-6-87.333h360c6.893 0 12.5 5.607 12.5 12.5s-5.607 12.5-12.5 12.5h-360c-6.893 0-12.5-5.607-12.5-12.5s5.607-12.5 12.5-12.5zm372.5 114.833c0 6.893-5.607 12.5-12.5 12.5h-360c-6.893 0-12.5-5.607-12.5-12.5s5.607-12.5 12.5-12.5h360c6.893 0 12.5 5.607 12.5 12.5z"/><path d="m255.704 321.281c25.946-.244 47.054-21.555 47.054-47.506 0-33.288-21.555-62.625-34.403-77.15-3.322-3.755-8.101-5.909-13.113-5.909-5.001 0-9.771 2.147-13.083 5.892-12.354 13.962-33.248 42.203-34.371 74.465-.461 13.247 4.531 26.288 13.697 35.779 8.987 9.306 20.98 14.431 33.771 14.432zm-32.924-49.686c.96-27.578 19.592-52.591 30.614-65.047.64-.723 1.433-.832 1.849-.832.421 0 1.226.11 1.877.847 11.442 12.936 30.638 38.868 30.638 67.211 0 17.758-14.442 32.34-32.195 32.507l-.306.001c-8.686-.001-16.848-3.5-22.982-9.852-6.355-6.578-9.816-15.631-9.495-24.835z"/></g></g></svg>