<svg id="Capa_1" enable-background="new 0 0 512 512" height="512" viewBox="0 0 512 512" width="512" xmlns="http://www.w3.org/2000/svg"><g><g><circle cx="132.5" cy="132.5" fill="#fff18f" r="125"/></g><g><path d="m162.5 227.5c-69.036 0-125-55.964-125-125 0-26.858 8.473-51.736 22.889-72.111-31.998 22.638-52.889 59.934-52.889 102.111 0 69.036 55.964 125 125 125 42.177 0 79.473-20.891 102.111-52.889-20.375 14.416-45.253 22.889-72.111 22.889z" fill="#ffde83"/></g><g><g><path d="m70.051 142.428c-4.142 0-7.5-3.358-7.5-7.5v-12c0-4.142 3.358-7.5 7.5-7.5s7.5 3.358 7.5 7.5v12c0 4.142-3.358 7.5-7.5 7.5z"/></g><g><path d="m194.949 142.428c-4.142 0-7.5-3.358-7.5-7.5v-12c0-4.142 3.358-7.5 7.5-7.5s7.5 3.358 7.5 7.5v12c0 4.142-3.358 7.5-7.5 7.5z"/></g><g><path d="m132.5 149.572c-8.477 0-16.539-3.671-22.118-10.073-2.722-3.123-2.396-7.86.726-10.582s7.86-2.397 10.582.726c2.73 3.132 6.67 4.928 10.811 4.928s8.081-1.796 10.811-4.928c2.721-3.124 7.459-3.448 10.582-.726s3.448 7.459.726 10.582c-5.581 6.401-13.643 10.073-22.12 10.073z"/></g></g><g><path d="m67.5 368.39c184.427-22.633 208.887-148.263 416.249-156.129 11.329-.43 20.751 8.653 20.751 19.99v179.623h-437z" fill="#ffe1bd"/></g><g><path d="m422 343.944h-40v-200c0-11.046 8.954-20 20-20 11.046 0 20 8.954 20 20z" fill="#44cf79"/></g><g><path d="m362 181.473c11.046 0 20 8.954 20 20v78.471c-22.091 0-40-17.909-40-40v-38.471c0-11.045 8.954-20 20-20z" fill="#00c272"/></g><g><path d="m442 156.238c-11.046 0-20 8.954-20 20v58.471c22.091 0 40-17.909 40-40v-18.471c0-11.046-8.954-20-20-20z" fill="#00c272"/></g><g><path d="m402 365.724c-147.285-17.491-183.504-70.738-374.083-74.291-11.206-.209-20.417 8.789-20.417 19.997v100.445h394.5z" fill="#a4e6ff"/></g><g><path d="m402 365.723c-62.678-7.444-105.248-21.361-148.154-35.17-3.379 1.082-6.745 2.165-10.103 3.246-34.729 11.18-68.361 22.005-112.786 29.236-43.753 7.122-83.457-26.714-83.457-71.042-6.357-.246-12.888-.435-19.619-.56-11.205-.209-20.381 8.789-20.381 19.997v100.445h394.5z" fill="#5bd6ff"/></g><g><path d="m7.5 411.875c248.5 0 248.5-80 497-80v152.625c0 11.046-8.954 20-20 20h-457c-11.046 0-20-8.954-20-20z" fill="#fff1ce"/></g><g><path d="m132.5 265c73.061 0 132.5-59.439 132.5-132.5s-59.439-132.5-132.5-132.5-132.5 59.439-132.5 132.5 59.439 132.5 132.5 132.5zm0-250c64.79 0 117.5 52.71 117.5 117.5s-52.71 117.5-117.5 117.5-117.5-52.71-117.5-117.5 52.71-117.5 117.5-117.5z"/><path d="m512 232.252c0-7.544-2.994-14.582-8.431-19.817-5.433-5.23-12.573-7.955-20.104-7.668-5.124.195-10.21.473-15.228.815.82-3.497 1.263-7.135 1.263-10.873v-18.471c0-15.164-12.336-27.5-27.5-27.5-4.5 0-8.747 1.093-12.5 3.018v-7.811c0-15.164-12.336-27.5-27.5-27.5s-27.5 12.336-27.5 27.5v33.046c-3.753-1.924-8-3.018-12.5-3.018-15.164 0-27.5 12.336-27.5 27.5v36.73c-30.657 13.962-57.039 30.929-82.566 47.364-12.655 8.148-25.736 16.557-39.115 24.456-46.546-13.353-101.232-24.53-184.763-26.087-7.478-.147-14.503 2.66-19.825 7.884-5.308 5.208-8.231 12.173-8.231 19.61v173.07c0 15.164 12.336 27.5 27.5 27.5h457c15.164 0 27.5-12.336 27.5-27.5zm-27.967-12.496c3.425-.134 6.663 1.108 9.132 3.485 2.473 2.381 3.834 5.581 3.834 9.011v92.151c-24.796.165-47.135 1.146-67.5 2.771v-85.558c13.345-2.114 24.77-9.766 31.953-20.474 7.342-.625 14.923-1.095 22.581-1.386zm-42.033-56.018c6.893 0 12.5 5.607 12.5 12.5v18.471c0 15.294-10.604 28.23-25 31.624v-50.095c0-6.893 5.607-12.5 12.5-12.5zm-92.5 37.735c0-6.893 5.607-12.5 12.5-12.5s12.5 5.607 12.5 12.5v14.216c0 4.142 3.358 7.5 7.5 7.5s7.5-3.358 7.5-7.5v-71.745c0-6.893 5.607-12.5 12.5-12.5s12.5 5.607 12.5 12.5v184.576c-8.688.868-17.009 1.854-25 2.947v-85.777c0-4.142-3.358-7.5-7.5-7.5s-7.5 3.358-7.5 7.5v25.886c-14.419-3.377-25-16.266-25-31.632zm-89.446 96.706c23.889-15.38 48.537-31.237 76.483-44.394 5.186 17.156 19.784 30.2 37.964 33.062v46.848c-18.13 2.915-34.556 6.37-49.877 10.151-.056-.016-.109-.036-.165-.051-23.659-6.006-45.264-12.961-66.158-19.688-8.596-2.767-17.237-5.548-26.08-8.286 9.485-5.847 18.773-11.81 27.833-17.642zm236.946 186.321c0 6.893-5.607 12.5-12.5 12.5h-457c-6.893 0-12.5-5.607-12.5-12.5v-65.149c37.947-.247 71.864-2.377 103.469-6.493 4.107-.535 7.003-4.298 6.468-8.406-.535-4.107-4.295-7-8.406-6.468-30.961 4.032-64.245 6.121-101.531 6.367v-92.921c0-3.377 1.328-6.54 3.738-8.906 2.424-2.379 5.618-3.648 9.039-3.592 109.727 2.046 168.799 21.063 225.926 39.454 13.664 4.399 27.641 8.891 42.33 13.175-14.659 4.268-28.549 8.738-42.331 13.175-32.261 10.386-65.621 21.125-107.529 28.666-4.077.733-6.787 4.633-6.053 8.709.733 4.077 4.63 6.791 8.709 6.053 42.895-7.717 76.739-18.613 109.47-29.15 59.292-19.088 120.558-38.813 238.701-39.614z"/></g></g></svg>