<svg id="Capa_1" enable-background="new 0 0 514.188 514.188" height="512" viewBox="0 0 514.188 514.188" width="512" xmlns="http://www.w3.org/2000/svg"><g><g><path d="m493.872 333.527-66.125-27.39c-6.583-2.727-10.231-9.738-8.839-16.727.016-.081.032-.162.048-.242 1.382-6.99 7.44-12.07 14.565-12.07h31.593c10.845 0 20.081-8.433 20.466-19.271.404-11.378-8.699-20.729-19.987-20.729h-32.072c-7.125 0-13.183-5.08-14.565-12.07-.016-.081-.032-.162-.048-.242-1.393-6.988 2.255-14 8.839-16.727l66.585-27.58c10.205-4.227 15.051-15.926 10.824-26.131-4.228-10.205-15.929-15.052-26.131-10.824l-66.654 27.609c-6.528 2.704-14.06.426-17.983-5.451-.092-.138-.184-.276-.277-.413-3.948-5.876-3.179-13.723 1.827-18.729l22.731-22.731c7.981-7.982 7.806-21.032-.526-28.792-7.936-7.391-20.429-6.823-28.097.845l-22.392 22.392c-5.006 5.006-12.852 5.774-18.729 1.827-.138-.092-.275-.185-.413-.277-5.877-3.923-8.155-11.455-5.451-17.983l27.609-66.653c4.227-10.205-.619-21.904-10.824-26.131-10.203-4.227-21.903.619-26.131 10.824l-27.58 66.585c-2.727 6.583-9.738 10.231-16.727 8.839-.081-.016-.161-.032-.242-.048-6.99-1.382-12.07-7.44-12.07-14.565v-31.594c0-10.845-8.433-20.081-19.271-20.466-11.378-.404-20.729 8.699-20.729 19.987v32.072c0 7.125-5.08 13.183-12.07 14.565-.081.016-.161.032-.242.048-6.988 1.393-14-2.255-16.726-8.839l-27.58-66.585c-4.227-10.205-15.925-15.05-26.131-10.824-10.205 4.227-15.051 15.926-10.824 26.131l27.608 66.653c2.704 6.528.426 14.06-5.451 17.983-.138.092-.276.184-.414.277-5.876 3.948-13.723 3.179-18.729-1.826l-22.391-22.391c-7.668-7.668-20.162-8.236-28.098-.845-8.331 7.76-8.506 20.809-.525 28.791l22.73 22.73c5.006 5.006 5.774 12.852 1.826 18.729-.093.138-.185.276-.277.414-3.923 5.877-11.455 8.155-17.983 5.451l-66.653-27.608c-10.204-4.228-21.904.619-26.131 10.824s.619 21.904 10.824 26.131l66.585 27.58c6.583 2.727 10.231 9.738 8.839 16.727-.016.081-.032.161-.048.242-1.382 6.99-7.44 12.07-14.565 12.07h-31.596c-10.845 0-20.081 8.433-20.466 19.271-.404 11.378 8.699 20.729 19.987 20.729h32.072c7.125 0 13.183 5.08 14.565 12.07.016.081.032.161.048.242 1.393 6.988-2.255 14-8.839 16.727l-66.585 27.58c-10.205 4.227-15.051 15.926-10.824 26.131 3.19 7.702 10.637 12.352 18.485 12.352 2.55 0 5.143-.491 7.646-1.528l66.653-27.608c6.528-2.704 14.06-.426 17.983 5.451.092.138.184.276.277.414 3.948 5.876 3.179 13.723-1.826 18.729l-22.367 22.367c-7.803 7.803-8.245 20.575-.537 28.471 3.927 4.023 9.121 6.034 14.316 6.034 5.119 0 10.237-1.953 14.142-5.858l22.73-22.73c5.006-5.006 12.852-5.774 18.729-1.826.138.092.276.185.414.277 5.877 3.923 8.155 11.455 5.451 17.983l-27.403 66.157c-4.239 10.234.483 22.509 10.745 26.68 2.464 1.002 5.012 1.476 7.519 1.476 7.848 0 15.295-4.65 18.485-12.352l27.58-66.585c2.727-6.583 9.738-10.231 16.726-8.839.081.016.161.032.242.048 6.99 1.382 12.07 7.44 12.07 14.565v31.593c0 10.845 8.433 20.081 19.271 20.466 11.378.404 20.729-8.699 20.729-19.987v-32.072c0-7.125 5.08-13.183 12.07-14.565.081-.016.161-.032.242-.048 6.988-1.393 14 2.255 16.727 8.839l27.58 66.585c3.19 7.702 10.637 12.352 18.485 12.352 2.55 0 5.144-.491 7.646-1.528 10.205-4.227 15.051-15.926 10.824-26.131l-27.609-66.653c-2.704-6.528-.426-14.06 5.451-17.983.138-.092.276-.184.413-.277 5.876-3.948 13.723-3.179 18.729 1.827l22.73 22.73c3.905 3.905 9.024 5.858 14.143 5.858s10.237-1.953 14.143-5.858c7.81-7.811 7.81-20.474 0-28.284l-22.731-22.731c-5.006-5.006-5.774-12.852-1.827-18.729.092-.138.185-.275.277-.413 3.923-5.877 11.455-8.155 17.983-5.451l66.654 27.609c2.503 1.037 5.095 1.528 7.646 1.528 7.995 0 15.574-4.826 18.66-12.788 3.959-10.21-1.342-21.699-11.456-25.889z" fill="#ff7591"/></g><g><circle cx="257.094" cy="257.099" fill="#fff18f" r="125"/></g><g><path d="m287.094 352.099c-69.036 0-125-55.964-125-125 0-26.858 8.473-51.736 22.889-72.111-31.997 22.638-52.889 59.934-52.889 102.111 0 69.036 55.964 125 125 125 42.177 0 79.473-20.891 102.111-52.889-20.375 14.415-45.253 22.889-72.111 22.889z" fill="#f4ce6e"/></g><g><g><path d="m194.646 267.027c-4.142 0-7.5-3.358-7.5-7.5v-12c0-4.142 3.358-7.5 7.5-7.5s7.5 3.358 7.5 7.5v12c0 4.142-3.358 7.5-7.5 7.5z"/></g><g><path d="m319.543 267.027c-4.143 0-7.5-3.358-7.5-7.5v-12c0-4.142 3.357-7.5 7.5-7.5s7.5 3.358 7.5 7.5v12c0 4.142-3.358 7.5-7.5 7.5z"/></g><g><path d="m257.094 274.171c-8.477 0-16.539-3.671-22.118-10.073-2.722-3.123-2.396-7.86.726-10.582s7.86-2.397 10.582.726c2.73 3.132 6.67 4.928 10.811 4.928s8.08-1.796 10.81-4.928c2.72-3.123 7.457-3.448 10.582-.727 3.122 2.722 3.448 7.459.727 10.582-5.581 6.402-13.642 10.074-22.12 10.074z"/></g></g><g><path d="m496.742 326.598-66.125-27.39c-3.219-1.333-5.05-4.837-4.353-8.331.002-.013.021-.108.023-.121l.026-.133c.69-3.491 3.722-6.025 7.208-6.025h31.593c15.15 0 27.433-11.642 27.962-26.505.268-7.538-2.464-14.673-7.692-20.091-5.231-5.419-12.259-8.404-19.79-8.404h-32.072c-3.486 0-6.518-2.534-7.203-5.998l-.055-.281c-.697-3.494 1.134-6.997 4.353-8.331l66.585-27.58c14.009-5.803 20.686-21.921 14.883-35.931-2.812-6.786-8.097-12.071-14.884-14.883-6.787-2.811-14.263-2.811-21.046 0l-66.653 27.609c-3.216 1.334-6.948.201-8.866-2.672l-.298-.446c-1.942-2.89-1.562-6.777.904-9.243l22.73-22.73c5.324-5.325 8.184-12.405 8.049-19.937-.134-7.528-3.247-14.506-8.767-19.647-10.882-10.133-27.799-9.683-38.513 1.031l-22.393 22.392c-2.464 2.466-6.353 2.844-9.249.9l-.426-.285c-2.888-1.927-4.017-5.66-2.686-8.875l27.608-66.654c5.803-14.009-.874-30.127-14.883-35.93-6.785-2.812-14.26-2.811-21.047 0-6.786 2.811-12.071 8.096-14.883 14.883l-27.581 66.585c-1.333 3.219-4.84 5.046-8.335 4.353l-.249-.05c-3.491-.69-6.025-3.722-6.025-7.208v-31.592c0-14.899-11.89-27.442-26.505-27.961-7.531-.271-14.673 2.464-20.091 7.693-5.419 5.23-8.404 12.258-8.404 19.789v32.072c0 3.486-2.534 6.518-6.041 7.211l-.237.047c-3.492.695-6.999-1.135-8.332-4.354l-27.58-66.585c-5.802-14.008-21.921-20.684-35.931-14.883-14.009 5.803-20.686 21.921-14.883 35.931l27.608 66.653c1.332 3.215.202 6.947-2.697 8.883l-.42.281c-2.89 1.941-6.777 1.562-9.243-.904l-22.392-22.392c-10.534-10.535-27.812-10.998-38.513-1.03-5.52 5.141-8.633 12.118-8.767 19.646-.134 7.531 2.725 14.611 8.05 19.936l22.73 22.73c2.465 2.465 2.846 6.353.899 9.25l-.285.426c-1.927 2.888-5.659 4.018-8.875 2.686l-66.653-27.608c-6.785-2.812-14.261-2.813-21.047 0-6.787 2.811-12.073 8.097-14.884 14.883-5.803 14.009.874 30.127 14.883 35.931l66.585 27.58c3.219 1.333 5.05 4.837 4.354 8.327l-.051.258c-.69 3.491-3.722 6.025-7.208 6.025h-31.589c-14.899 0-27.442 11.89-27.961 26.505-.268 7.538 2.464 14.673 7.693 20.091 5.23 5.419 12.258 8.404 19.789 8.404h32.072c3.486 0 6.518 2.534 7.211 6.041l.047.237c.696 3.494-1.135 6.998-4.354 8.332l-66.585 27.58c-14.008 5.803-20.684 21.921-14.881 35.93 4.273 10.316 14.249 16.981 25.415 16.981 3.616 0 7.153-.706 10.516-2.099l66.653-27.608c3.215-1.331 6.947-.202 8.883 2.698l.281.42c1.942 2.891 1.562 6.778-.904 9.243l-22.367 22.367c-10.793 10.793-11.063 28.294-.602 39.013 5.222 5.35 12.212 8.295 19.684 8.295 7.346 0 14.251-2.86 19.445-8.055l22.73-22.73c2.465-2.465 6.353-2.846 9.25-.899l.425.285c2.888 1.927 4.017 5.66 2.686 8.875l-10.549 25.467c-1.585 3.827.232 8.214 4.059 9.799 3.827 1.584 8.214-.232 9.799-4.059l10.549-25.467c4.063-9.808.607-21.202-8.205-27.083l-.407-.272c-8.825-5.93-20.692-4.773-28.214 2.749l-22.73 22.73c-2.361 2.361-5.5 3.661-8.839 3.661-3.396 0-6.575-1.34-8.949-3.773-4.754-4.871-4.542-12.914.474-17.929l22.367-22.367c7.522-7.522 8.678-19.388 2.753-28.207l-.269-.402c-5.891-8.824-17.283-12.28-27.091-8.217l-66.653 27.608c-1.534.635-3.141.957-4.776.957-5.077 0-9.613-3.031-11.556-7.722-2.638-6.368.397-13.694 6.765-16.332l66.585-27.58c9.812-4.064 15.415-14.629 13.323-25.126l-.045-.227c-2.076-10.497-11.296-18.115-21.923-18.115h-32.073c-3.423 0-6.618-1.357-8.996-3.821-2.376-2.462-3.618-5.709-3.496-9.142.236-6.637 6.054-12.037 12.971-12.037h31.593c10.627 0 19.847-7.619 21.92-18.1l.049-.247c2.091-10.492-3.513-21.057-13.324-25.122l-66.585-27.58c-6.368-2.638-9.402-9.964-6.765-16.332 1.277-3.084 3.68-5.487 6.766-6.765 3.083-1.277 6.481-1.278 9.566 0l66.653 27.608c9.809 4.063 21.202.607 27.083-8.205l.272-.407c5.93-8.826 4.773-20.692-2.749-28.214l-22.73-22.73c-2.42-2.42-3.72-5.639-3.659-9.063.061-3.421 1.479-6.595 3.993-8.936 4.859-4.526 12.792-4.231 17.683.66l22.392 22.392c7.522 7.522 19.388 8.678 28.208 2.753l.401-.269c8.824-5.89 12.279-17.283 8.217-27.091l-27.608-66.653c-2.638-6.368.397-13.694 6.764-16.332 6.369-2.636 13.696.397 16.333 6.765l27.58 66.585c4.064 9.812 14.631 15.415 25.126 13.323l.227-.045c10.497-2.076 18.115-11.296 18.115-21.923v-32.071c0-3.423 1.357-6.618 3.821-8.996 2.462-2.376 5.721-3.617 9.142-3.496 6.638.236 12.037 6.054 12.037 12.971v31.593c0 10.627 7.618 19.847 18.108 21.921l.238.048c10.494 2.091 21.059-3.514 25.121-13.324l27.58-66.584c1.278-3.085 3.681-5.487 6.766-6.765 3.086-1.279 6.482-1.277 9.566 0 6.368 2.638 9.402 9.964 6.766 16.332l-27.608 66.653c-4.063 9.809-.607 21.202 8.204 27.083l.407.272c8.824 5.929 20.691 4.773 28.214-2.749l22.393-22.392c4.89-4.89 12.822-5.186 17.683-.66 2.514 2.341 3.932 5.515 3.992 8.937.061 3.424-1.238 6.643-3.659 9.063l-22.73 22.73c-7.522 7.522-8.678 19.389-2.763 28.192l.278.417c5.891 8.823 17.283 12.28 27.092 8.217l66.654-27.609c3.084-1.278 6.48-1.277 9.564 0 3.086 1.278 5.488 3.681 6.767 6.765 2.637 6.368-.397 13.695-6.766 16.333l-66.585 27.58c-9.813 4.065-15.415 14.63-13.33 25.083l.031.16 7.355-1.467-7.334 1.576c2.075 10.497 11.295 18.116 21.923 18.116h32.072c3.423 0 6.618 1.357 8.996 3.821 2.377 2.462 3.618 5.708 3.496 9.141-.236 6.638-6.056 12.038-12.972 12.038h-31.593c-10.628 0-19.848 7.619-21.923 18.116-.002.009-.02.1-.021.109l-.024.121c-2.092 10.492 3.511 21.058 13.323 25.123l66.125 27.39c6.478 2.683 9.769 9.97 7.336 16.246-1.883 4.859-6.463 7.999-11.667 7.999-1.637 0-3.242-.322-4.775-.957l-66.653-27.609c-9.808-4.062-21.201-.607-27.101 8.23l-.255.381c-5.93 8.826-4.774 20.692 2.748 28.215l22.73 22.73c4.873 4.874 4.873 12.804 0 17.678-2.36 2.361-5.5 3.661-8.839 3.661s-6.479-1.3-8.839-3.661l-22.73-22.73c-7.522-7.522-19.388-8.677-28.208-2.753l-.4.269c-8.824 5.889-12.28 17.283-8.217 27.091l27.607 66.653c2.638 6.368-.396 13.695-6.766 16.333-1.532.635-3.139.957-4.774.957-5.077 0-9.613-3.031-11.557-7.722l-27.579-66.584c-4.064-9.812-14.632-15.419-25.118-13.325l-.235.047c-10.497 2.076-18.115 11.295-18.115 21.923v32.072c0 3.423-1.356 6.618-3.821 8.996-2.462 2.376-5.709 3.615-9.142 3.496-6.637-.236-12.037-6.054-12.037-12.971v-31.593c0-10.627-7.619-19.847-18.1-21.92l-.247-.049c-10.497-2.092-21.058 3.513-25.122 13.324l-27.58 66.585c-1.943 4.691-6.479 7.722-11.556 7.722-1.607 0-3.187-.311-4.695-.924-2.942-1.196-5.276-3.562-6.572-6.662-1.37-3.277-1.395-6.995-.067-10.2l5.374-12.974c1.585-3.827-.232-8.214-4.059-9.799-3.826-1.584-8.214.232-9.799 4.059l-5.374 12.974c-2.846 6.87-2.814 14.789.087 21.726 2.849 6.814 8.091 12.06 14.762 14.771 3.311 1.346 6.791 2.028 10.344 2.028 11.166 0 21.142-6.666 25.415-16.981l27.58-66.585c1.333-3.219 4.836-5.05 8.327-4.354l.258.051c3.491.69 6.025 3.722 6.025 7.208v31.593c0 14.899 11.89 27.442 26.505 27.961 7.539.27 14.673-2.464 20.091-7.693 5.42-5.23 8.404-12.258 8.404-19.789v-32.072c0-3.486 2.534-6.518 6.032-7.209l.246-.049c3.492-.698 6.999 1.135 8.332 4.354l27.58 66.585c4.272 10.316 14.248 16.981 25.414 16.981 3.616 0 7.154-.706 10.516-2.099 14.009-5.803 20.686-21.921 14.883-35.931l-27.608-66.653c-1.331-3.215-.202-6.947 2.698-8.883l.419-.281c2.893-1.94 6.778-1.562 9.243.904l22.73 22.73c5.194 5.194 12.101 8.055 19.446 8.055s14.252-2.86 19.446-8.055c10.721-10.722 10.721-28.168 0-38.891l-22.73-22.73c-2.466-2.466-2.847-6.353-.89-9.266l.274-.41c1.927-2.888 5.66-4.018 8.875-2.686l66.652 27.608c3.361 1.393 6.899 2.099 10.517 2.099 11.445 0 21.515-6.9 25.653-17.577 5.356-13.815-1.634-29.751-15.58-35.528z"/><path d="m257.094 139.599c26.584 0 51.659 8.658 72.513 25.037 3.258 2.559 7.973 1.992 10.531-1.265 2.559-3.258 1.992-7.973-1.266-10.531-23.522-18.476-51.801-28.241-81.778-28.241-73.061 0-132.5 59.439-132.5 132.5s59.439 132.5 132.5 132.5 132.5-59.439 132.5-132.5c0-29.977-9.766-58.255-28.241-81.779-2.558-3.257-7.273-3.822-10.531-1.266-3.257 2.559-3.824 7.273-1.266 10.531 16.38 20.854 25.038 45.93 25.038 72.513 0 64.79-52.71 117.5-117.5 117.5s-117.5-52.71-117.5-117.5 52.711-117.499 117.5-117.499z"/></g></g></svg>