<svg id="Capa_1" enable-background="new 0 0 512 512" height="512" viewBox="0 0 512 512" width="512" xmlns="http://www.w3.org/2000/svg"><g><g><path d="m117.5 237.5h-40v-180c0-11.046 8.954-20 20-20 11.046 0 20 8.954 20 20z" fill="#44cf79"/></g><g><path d="m57.5 85.029c11.046 0 20 8.954 20 20v78.471c-22.091 0-40-17.909-40-40v-38.471c0-11.046 8.954-20 20-20z" fill="#00c272"/></g><g><path d="m137.5 69.793c-11.046 0-20 8.954-20 20v58.471c22.091 0 40-17.909 40-40v-18.471c0-11.045-8.954-20-20-20z" fill="#00c272"/></g><g><circle cx="379.5" cy="132.5" fill="#fff18f" r="125"/></g><g><path d="m409.5 227.5c-69.036 0-125-55.964-125-125 0-26.858 8.473-51.736 22.889-72.111-31.998 22.638-52.889 59.934-52.889 102.111 0 69.036 55.964 125 125 125 42.177 0 79.473-20.891 102.111-52.889-20.375 14.416-45.253 22.889-72.111 22.889z" fill="#ffde83"/></g><g><g><path d="m317.052 142.428c-4.143 0-7.5-3.358-7.5-7.5v-12c0-4.142 3.357-7.5 7.5-7.5s7.5 3.358 7.5 7.5v12c0 4.142-3.358 7.5-7.5 7.5z"/></g><g><path d="m441.948 142.428c-4.143 0-7.5-3.358-7.5-7.5v-12c0-4.142 3.357-7.5 7.5-7.5s7.5 3.358 7.5 7.5v12c0 4.142-3.357 7.5-7.5 7.5z"/></g><g><path d="m379.5 149.572c-8.478 0-16.539-3.671-22.118-10.073-2.722-3.123-2.396-7.86.727-10.582 3.122-2.721 7.859-2.396 10.582.727 2.729 3.132 6.669 4.928 10.81 4.928s8.08-1.796 10.81-4.928c2.721-3.123 7.458-3.448 10.582-.727 3.122 2.722 3.448 7.459.727 10.582-5.581 6.401-13.642 10.073-22.12 10.073z"/></g></g><g><path d="m444.5 368.39c-184.427-22.633-208.887-148.263-416.249-156.129-11.329-.43-20.751 8.653-20.751 19.99v179.623h437z" fill="#fff1ce"/></g><g><path d="m297.021 317.465c-18.728 5.213-36.088 10.8-53.279 16.335-7.67 2.469-15.286 4.921-22.977 7.321-85.977 26.825-173.265-37.692-173.265-127.757-6.237-.482-12.646-.852-19.242-1.103-11.332-.43-20.758 8.65-20.758 19.99v179.623h437v-43.484c-63.434-7.785-107.943-27.754-147.479-50.925z" fill="#ffe1bd"/></g><g><path d="m7.5 411.875c241.501 0 248.303-75.557 476.583-79.813 11.206-.209 20.417 8.788 20.417 19.996v132.442c0 11.046-8.954 20-20 20h-457c-11.046 0-20-8.954-20-20z" fill="#fff1ce"/></g><g><path d="m285.772 215.544c3.257-2.559 3.824-7.273 1.266-10.531-16.38-20.854-25.038-45.93-25.038-72.513 0-64.79 52.71-117.5 117.5-117.5s117.5 52.71 117.5 117.5-52.71 117.5-117.5 117.5c-26.584 0-51.659-8.658-72.513-25.037-3.258-2.559-7.973-1.992-10.531 1.265-2.559 3.258-1.992 7.973 1.266 10.531 23.522 18.475 51.8 28.241 81.778 28.241 73.061 0 132.5-59.439 132.5-132.5s-59.439-132.5-132.5-132.5-132.5 59.439-132.5 132.5c0 29.977 9.766 58.255 28.241 81.779 2.559 3.258 7.275 3.824 10.531 1.265z"/><path d="m483.943 324.563c-53.482.997-95.135 5.939-130.402 12.869-35.31-14.428-64.88-33.455-93.476-51.866-39.108-25.179-79.112-50.929-135.065-66.491v-63.909c22.823-3.593 40-23.232 40-46.902v-18.471c0-15.164-12.337-27.5-27.5-27.5-4.5 0-8.747 1.093-12.5 3.018v-7.811c0-15.164-12.337-27.5-27.5-27.5s-27.5 12.336-27.5 27.5v23.047c-3.753-1.924-8-3.018-12.5-3.018-15.163 0-27.5 12.336-27.5 27.5v38.471c0 23.615 17.196 43.302 40 46.904v17.72c-13.012-1.652-26.792-2.801-41.465-3.357-7.532-.285-14.671 2.438-20.104 7.669-5.437 5.234-8.431 12.272-8.431 19.815v252.249c0 15.164 12.336 27.5 27.5 27.5h457c15.164 0 27.5-12.336 27.5-27.5v-132.442c0-7.437-2.923-14.401-8.231-19.611-5.322-5.223-12.331-8.037-19.826-7.884zm-346.443-247.27c6.893 0 12.5 5.607 12.5 12.5v18.471c0 15.369-10.58 28.256-25 31.632v-50.103c0-6.892 5.607-12.5 12.5-12.5zm-92.5 66.207v-38.471c0-6.893 5.607-12.5 12.5-12.5s12.5 5.607 12.5 12.5v70.099c-14.408-3.386-25-16.296-25-31.628zm40-86c0-6.893 5.607-12.5 12.5-12.5s12.5 5.607 12.5 12.5v157.75c-8.001-1.863-16.323-3.521-25-4.946zm412 427c0 6.893-5.607 12.5-12.5 12.5h-457c-6.893 0-12.5-5.607-12.5-12.5v-65.149c32.004-.207 60.962-1.747 88.303-4.691 4.118-.444 7.098-4.142 6.654-8.26-.443-4.117-4.134-7.095-8.26-6.654-26.807 2.887-55.243 4.396-86.697 4.602v-172.097c0-3.43 1.361-6.629 3.835-9.01 2.469-2.377 5.709-3.62 9.132-3.485 108.566 4.118 164.627 40.211 223.979 78.422 23.923 15.402 48.51 31.229 76.761 44.671-27.537 6.605-51.434 14.298-75.005 21.886-35.951 11.574-73.127 23.542-122.347 31.14-4.094.632-6.899 4.463-6.268 8.556.633 4.095 4.469 6.903 8.557 6.268 50.396-7.78 88.146-19.933 124.654-31.686 57.127-18.391 116.198-37.408 225.924-39.454 3.425-.064 6.614 1.212 9.039 3.592 2.411 2.366 3.738 5.529 3.738 8.906v132.443z"/></g></g></svg>