<svg id="Capa_1" enable-background="new 0 0 512 512" height="512" viewBox="0 0 512 512" width="512" xmlns="http://www.w3.org/2000/svg"><g><g><path d="m37.5 27.5h120v350h-120z" fill="#c8866a"/></g><g><path d="m77.5 27.5h40v350h-40z" fill="#b77158"/></g><g><path d="m157.5 47.5h-120c-11.046 0-20-8.954-20-20 0-11.046 8.954-20 20-20h120c11.046 0 20 8.954 20 20 0 11.046-8.954 20-20 20z" fill="#db9e82"/></g><g><path d="m206 127.5h120v250h-120z" fill="#c8866a"/></g><g><path d="m246 127.5h40v250h-40z" fill="#b77158"/></g><g><path d="m326 147.5h-120c-11.046 0-20-8.954-20-20 0-11.046 8.954-20 20-20h120c11.046 0 20 8.954 20 20 0 11.046-8.954 20-20 20z" fill="#db9e82"/></g><g><path d="m444.5 368.39c-184.427-22.633-208.887-148.263-416.249-156.129-11.329-.43-20.751 8.653-20.751 19.99v179.623h437z" fill="#fff1ce"/></g><g><path d="m297.021 317.465c-18.728 5.213-36.088 10.8-53.279 16.335-7.67 2.469-15.286 4.921-22.977 7.321-85.977 26.825-173.265-37.692-173.265-127.757-6.237-.482-12.646-.852-19.242-1.103-11.332-.43-20.758 8.65-20.758 19.99v179.623h437v-43.484c-63.434-7.785-107.943-27.754-147.479-50.925z" fill="#ffe1bd"/></g><g><path d="m444.5 343.944h-40v-200c0-11.046 8.954-20 20-20 11.046 0 20 8.954 20 20z" fill="#44cf79"/></g><g><path d="m384.5 181.473c11.046 0 20 8.954 20 20v78.471c-22.091 0-40-17.909-40-40v-38.471c0-11.045 8.954-20 20-20z" fill="#00c272"/></g><g><path d="m464.5 156.238c-11.046 0-20 8.954-20 20v58.471c22.091 0 40-17.909 40-40v-18.471c0-11.046-8.954-20-20-20z" fill="#00c272"/></g><g><path d="m7.5 411.875c241.501 0 248.303-75.557 476.583-79.813 11.206-.209 20.417 8.788 20.417 19.996v132.442c0 11.046-8.954 20-20 20h-457c-11.046 0-20-8.954-20-20z" fill="#fff1ce"/></g><path d="m503.769 332.447c-5.321-5.223-12.331-8.031-19.825-7.884-11.148.208-21.774.59-31.943 1.122v-84.084c22.581-3.639 40-23.424 40-46.893v-18.471c0-15.164-12.337-27.5-27.5-27.5-4.5 0-8.747 1.093-12.5 3.018v-7.811c0-15.164-12.337-27.5-27.5-27.5s-27.5 12.336-27.5 27.5v33.047c-3.753-1.924-8-3.018-12.5-3.018-15.163 0-27.5 12.336-27.5 27.5v38.471c0 12.455 4.786 24.226 13.476 33.145 7.218 7.408 16.472 12.165 26.524 13.755v43.632c-15.616 1.956-29.997 4.311-43.451 6.954-6.891-2.816-13.561-5.807-20.049-8.934v-174.544c11.528-3.274 20-13.889 20-26.452 0-15.164-12.337-27.5-27.5-27.5h-120.001c-15.163 0-27.5 12.336-27.5 27.5 0 12.563 8.472 23.178 20 26.452v94.581c-10.601-5.574-21.695-10.865-33.5-15.72v-178.861c11.528-3.274 20-13.889 20-26.452 0-15.164-12.337-27.5-27.5-27.5h-120c-15.163 0-27.5 12.336-27.5 27.5 0 12.563 8.472 23.178 20 26.452v150.878c-.49-.02-.973-.044-1.465-.063-7.532-.287-14.671 2.438-20.104 7.669-5.437 5.234-8.431 12.272-8.431 19.816v252.248c0 15.164 12.336 27.5 27.5 27.5h457c15.164 0 27.5-12.336 27.5-27.5v-132.442c0-7.436-2.923-14.401-8.231-19.611zm-39.269-168.709c6.893 0 12.5 5.607 12.5 12.5v18.471c0 15.228-10.718 28.187-25 31.61v-50.081c0-6.893 5.607-12.5 12.5-12.5zm-92.5 76.206v-38.471c0-6.893 5.607-12.5 12.5-12.5s12.5 5.607 12.5 12.5v70.114c-14.446-3.353-25-16.181-25-31.643zm40-96c0-6.893 5.607-12.5 12.5-12.5s12.5 5.607 12.5 12.5v182.66c-8.671.61-16.994 1.334-25 2.161zm-118.5 162.685v-151.629h25v165.879c-8.596-4.584-16.904-9.364-25-14.25zm-15-151.629v142.35c-6.217-3.923-12.351-7.866-18.435-11.783-2.185-1.406-4.373-2.815-6.565-4.223v-126.344zm-85-27.5c0-6.893 5.607-12.5 12.5-12.5h120c6.893 0 12.5 5.607 12.5 12.5s-5.607 12.5-12.5 12.5h-120c-6.893 0-12.5-5.607-12.5-12.5zm20 27.5h25v116.807c-8.139-5.102-16.431-10.144-25-15.039zm-88.5 64.076v-56.576c0-4.142-3.357-7.5-7.5-7.5s-7.5 3.358-7.5 7.5v52.75c-8.001-1.863-16.323-3.521-25-4.946v-155.304h25v77.5c0 4.142 3.357 7.5 7.5 7.5s7.5-3.358 7.5-7.5v-77.5h25v172.033c-7.985-2.872-16.3-5.538-25-7.957zm-100-191.576c0-6.893 5.607-12.5 12.5-12.5h120c6.893 0 12.5 5.607 12.5 12.5s-5.607 12.5-12.5 12.5h-120c-6.893 0-12.5-5.607-12.5-12.5zm20 27.5h25v153.124c-8.03-1.019-16.354-1.847-25-2.461zm452 429.5c0 6.893-5.607 12.5-12.5 12.5h-457c-6.893 0-12.5-5.607-12.5-12.5v-65.149c48.015-.316 90.207-3.694 128.767-10.298 4.083-.7 6.826-4.576 6.127-8.659-.699-4.082-4.567-6.831-8.659-6.126-37.718 6.46-79.09 9.761-126.234 10.076v-172.092c0-3.43 1.362-6.63 3.835-9.011 2.469-2.378 5.709-3.624 9.132-3.485 108.566 4.118 164.627 40.211 223.979 78.423 23.924 15.402 48.509 31.227 76.763 44.67-27.538 6.605-51.436 14.298-75.007 21.887-25.669 8.264-52.211 16.809-82.843 23.678-4.041.907-6.583 4.918-5.677 8.959s4.911 6.581 8.96 5.677c31.296-7.02 58.168-15.67 84.156-24.037 57.126-18.391 116.198-37.408 225.925-39.454 3.425-.053 6.614 1.212 9.039 3.592 2.411 2.366 3.738 5.529 3.738 8.906v132.443z"/></g></svg>