<svg id="Capa_1" enable-background="new 0 0 512 512" height="512" viewBox="0 0 512 512" width="512" xmlns="http://www.w3.org/2000/svg"><g><g><path d="m111 354.5h72.5v85h-72.5z" fill="#ffd3a3"/></g><g><path d="m183.5 354.5h145v85h-145z" fill="#fff1ce"/></g><g><path d="m223.5 419.5v-65h-40v85h60c-11.046 0-20-8.954-20-20z" fill="#ffe1bd"/></g><g><path d="m328.5 354.5h72.5v85h-72.5z" fill="#ffe1bd"/></g><g><path d="m111 439.5h145v65h-125c-11.046 0-20-8.954-20-20z" fill="#fff1ce"/></g><g><path d="m151 484.5v-45h-40v45c0 11.046 8.954 20 20 20h40c-11.046 0-20-8.954-20-20z" fill="#ffe1bd"/></g><g><path d="m256 439.5h145v45c0 11.046-8.954 20-20 20h-125z" fill="#fff1ce"/></g><g><path d="m296 484.5v-45h-40v65h60c-11.046 0-20-8.954-20-20z" fill="#ffe1bd"/></g><g><path d="m111 127.5h40v227h-40z" fill="#db9e82"/></g><g><path d="m131 260.5c-11.046 0-20-8.954-20-20v114h40v-114c0 11.046-8.954 20-20 20z" fill="#c8866a"/></g><g><path d="m361 127.5h40v227h-40z" fill="#db9e82"/></g><g><path d="m381 260.5c-11.046 0-20-8.954-20-20v114h40v-114c0 11.046-8.954 20-20 20z" fill="#c8866a"/></g><g><path d="m286.95 291h-61.9c-5.138 0-9.439-3.893-9.95-9.005l-8-80c-.589-5.887 4.034-10.995 9.95-10.995h77.9c5.916 0 10.539 5.108 9.95 10.995l-8 80c-.511 5.112-4.812 9.005-9.95 9.005z" fill="#525e77"/></g><g><path d="m260.1 281.995-8-80c-.589-5.887 4.034-10.995 9.95-10.995h-45c-5.916 0-10.539 5.108-9.95 10.995l8 80c.511 5.112 4.813 9.005 9.95 9.005h45c-5.138 0-9.439-3.893-9.95-9.005z" fill="#3b4456"/></g><g><path d="m414.867 127.5h-317.734l35.442-106.325c2.722-8.166 10.365-13.675 18.974-13.675h208.903c8.609 0 16.251 5.509 18.974 13.675z" fill="#ff7591"/></g><g><path d="m201.549 7.5h-50c-8.609 0-16.251 5.509-18.974 13.675l-35.442 106.325h50l35.442-106.325c2.722-8.166 10.365-13.675 18.974-13.675z" fill="#fd5c70"/></g><g><path d="m411 147.5h-310c-11.046 0-20-8.954-20-20 0-11.046 8.954-20 20-20h310c11.046 0 20 8.954 20 20 0 11.046-8.954 20-20 20z" fill="#fff18f"/></g><g><path d="m131 127.5c0-11.046 8.954-20 20-20h-50c-11.046 0-20 8.954-20 20s8.954 20 20 20h50c-11.046 0-20-8.954-20-20z" fill="#ffde83"/></g><g><path d="m411 374.5h-310c-11.046 0-20-8.954-20-20 0-11.046 8.954-20 20-20h310c11.046 0 20 8.954 20 20 0 11.046-8.954 20-20 20z" fill="#fff18f"/></g><g><path d="m131 354.5c0-11.046 8.954-20 20-20h-50c-11.046 0-20 8.954-20 20s8.954 20 20 20h50c-11.046 0-20-8.954-20-20z" fill="#ffde83"/></g><g><g><path d="m193.551 67.428c-4.143 0-7.5-3.358-7.5-7.5v-12c0-4.142 3.357-7.5 7.5-7.5s7.5 3.358 7.5 7.5v12c0 4.142-3.358 7.5-7.5 7.5z"/></g><g><path d="m318.448 67.428c-4.143 0-7.5-3.358-7.5-7.5v-12c0-4.142 3.357-7.5 7.5-7.5s7.5 3.358 7.5 7.5v12c0 4.142-3.357 7.5-7.5 7.5z"/></g><g><path d="m256 74.572c-8.478 0-16.539-3.671-22.118-10.073-2.722-3.123-2.396-7.86.727-10.582 3.121-2.721 7.859-2.396 10.582.727 2.729 3.132 6.669 4.928 10.81 4.928s8.08-1.796 10.81-4.928c2.721-3.123 7.457-3.448 10.582-.727 3.122 2.722 3.448 7.459.727 10.582-5.581 6.401-13.642 10.073-22.12 10.073z"/></g></g><path d="m411 327h-2.5v-172h2.5c15.163 0 27.5-12.336 27.5-27.5 0-14.27-10.926-26.032-24.851-27.37l-27.109-81.326c-3.748-11.247-14.232-18.804-26.089-18.804h-208.902c-11.856 0-22.341 7.557-26.089 18.804l-27.109 81.326c-13.925 1.338-24.851 13.1-24.851 27.37 0 15.164 12.337 27.5 27.5 27.5h2.5v172h-2.5c-15.163 0-27.5 12.336-27.5 27.5s12.337 27.5 27.5 27.5h2.5v102.5c0 15.164 12.337 27.5 27.5 27.5h250c15.163 0 27.5-12.336 27.5-27.5v-102.5h2.5c15.163 0 27.5-12.336 27.5-27.5s-12.337-27.5-27.5-27.5zm-17.5 0h-25v-172h25zm-305-199.5c0-6.893 5.607-12.5 12.5-12.5h202.449c4.143 0 7.5-3.358 7.5-7.5s-3.357-7.5-7.5-7.5h-189.243l25.484-76.454c1.704-5.112 6.47-8.546 11.858-8.546h208.902c5.39 0 10.154 3.435 11.858 8.547l25.486 76.453h-64.345c-4.143 0-7.5 3.358-7.5 7.5s3.357 7.5 7.5 7.5h77.551c6.893 0 12.5 5.607 12.5 12.5s-5.607 12.5-12.5 12.5h-310c-6.893 0-12.5-5.607-12.5-12.5zm30 27.5h25v121c0 4.142 3.357 7.5 7.5 7.5s7.5-3.358 7.5-7.5v-121h90v28.5h-31.45c-4.935 0-9.664 2.099-12.976 5.758s-4.929 8.574-4.438 13.483l8 80c.897 8.984 8.384 15.759 17.413 15.759h61.9c9.029 0 16.516-6.775 17.413-15.759l8-80c.491-4.91-1.126-9.825-4.438-13.484s-8.041-5.758-12.976-5.758h-31.448v-28.499h90v172h-195v-21c0-4.142-3.357-7.5-7.5-7.5s-7.5 3.358-7.5 7.5v21h-25zm176.45 43.5c.965 0 1.575.515 1.854.823.278.307.729.966.634 1.926l-8 80c-.128 1.283-1.197 2.25-2.487 2.25h-61.9c-1.29 0-2.359-.967-2.487-2.251l-8-80c-.096-.96.355-1.619.634-1.926.278-.308.889-.823 1.854-.823h77.898zm-118.95 183.5v50h-57.5v-50zm15 50v-50h130v50zm-72.5 52.5v-37.5h130v50h-117.5c-6.893 0-12.5-5.607-12.5-12.5zm262.5 12.5h-117.5v-50h130v37.5c0 6.893-5.607 12.5-12.5 12.5zm12.5-65h-57.5v-50h57.5zm17.5-65h-310c-6.893 0-12.5-5.607-12.5-12.5s5.607-12.5 12.5-12.5h310c6.893 0 12.5 5.607 12.5 12.5s-5.607 12.5-12.5 12.5z"/></g></svg>