<svg id="Capa_1" enable-background="new 0 0 512 512" height="512" viewBox="0 0 512 512" width="512" xmlns="http://www.w3.org/2000/svg"><g><g><path d="m486.926 25.074c-23.432-23.432-61.421-23.432-84.853 0l-189.76 189.76c-16.979-6.669-35.468-10.333-54.814-10.333-82.843 0-150 67.157-150 150s67.157 150 150 150 150-67.157 150-150c0-19.345-3.664-37.835-10.333-54.814l189.76-189.76c23.432-23.432 23.432-61.422 0-84.853z" fill="#e7faff"/></g><g><path d="m444.5 47.5c-3.094 0-9.045.761-14.142 5.858l-52.687 52.687 28.284 28.284 52.688-52.688c5.097-5.097 5.858-11.048 5.858-14.142s-.761-9.045-5.858-14.142c-5.098-5.096-11.049-5.857-14.143-5.857z" fill="#a4e6ff"/></g><g><path d="m137.5 484.5c0-11.046 8.954-20 20-20v-220c-11.046 0-20-8.954-20-20s8.954-20 20-20c-82.843 0-150 67.157-150 150s67.157 150 150 150c-11.046 0-20-8.954-20-20z" fill="#c1f1ff"/></g><g><path d="m408.5 103.5c-7.81-7.81-20.474-7.81-28.284 0l-160.404 160.404c-18.732-12.924-41.646-20.202-66.267-19.334-57.524 2.029-104.123 48.766-105.987 106.296-2.058 63.521 50.055 115.634 113.576 113.575 57.53-1.864 104.267-48.463 106.295-105.987.868-24.62-6.409-47.534-19.334-66.266l160.405-160.404c7.81-7.81 7.81-20.474 0-28.284z" fill="#ff7591"/></g><g><path d="m198 424c-60.654 0-110-49.346-110-110 0-19.953 5.341-38.681 14.667-54.833-32.946 19.024-55.167 54.632-55.167 95.333 0 60.654 49.346 110 110 110 40.701 0 76.309-22.221 95.333-55.167-16.152 9.326-34.88 14.667-54.833 14.667z" fill="#fd5c70"/></g><g><g><path d="m95.051 364.428c-4.142 0-7.5-3.358-7.5-7.5v-12c0-4.142 3.358-7.5 7.5-7.5s7.5 3.358 7.5 7.5v12c0 4.142-3.358 7.5-7.5 7.5z"/></g><g><path d="m219.949 364.428c-4.142 0-7.5-3.358-7.5-7.5v-12c0-4.142 3.358-7.5 7.5-7.5s7.5 3.358 7.5 7.5v12c0 4.142-3.358 7.5-7.5 7.5z"/></g><g><path d="m157.5 371.572c-8.477 0-16.539-3.671-22.118-10.073-2.722-3.123-2.396-7.86.726-10.582s7.86-2.397 10.582.726c2.73 3.132 6.67 4.928 10.811 4.928s8.081-1.796 10.811-4.928c2.722-3.124 7.459-3.448 10.582-.726s3.448 7.459.726 10.582c-5.581 6.401-13.643 10.073-22.12 10.073z"/></g></g><g><path d="m512 67.5c0-18.03-7.021-34.98-19.771-47.729s-29.699-19.771-47.729-19.771-34.98 7.021-47.729 19.771l-186.347 186.345c-16.952-6.052-34.731-9.116-52.924-9.116-86.846 0-157.5 70.654-157.5 157.5 0 36.267 12.627 71.669 35.556 99.686 2.624 3.206 7.35 3.678 10.554 1.054 3.206-2.624 3.677-7.349 1.054-10.554-20.741-25.344-32.164-57.373-32.164-90.186 0-78.575 63.925-142.5 142.5-142.5 17.973 0 35.492 3.302 52.072 9.814 2.776 1.091 5.936.432 8.045-1.678l189.76-189.759c9.916-9.916 23.1-15.377 37.123-15.377s27.207 5.461 37.123 15.377 15.377 23.1 15.377 37.123-5.461 27.207-15.377 37.123l-189.759 189.76c-2.109 2.109-2.768 5.269-1.678 8.045 6.512 16.58 9.814 34.1 9.814 52.072 0 78.575-63.925 142.5-142.5 142.5-32.735 0-64.704-11.374-90.018-32.026-3.209-2.619-7.935-2.139-10.552 1.07-2.619 3.209-2.14 7.934 1.07 10.552 27.983 22.831 63.319 35.404 99.5 35.404 86.846 0 157.5-70.654 157.5-157.5 0-18.193-3.064-35.972-9.116-52.924l186.346-186.346c12.749-12.75 19.77-29.7 19.77-47.73z"/><path d="m362.756 166.922c-2.929 2.929-2.929 7.678 0 10.606 2.929 2.929 7.678 2.929 10.606 0l90.583-90.583c7.009-7.008 8.055-15.191 8.055-19.445s-1.046-12.437-8.055-19.445c-7.008-7.009-15.191-8.055-19.445-8.055s-12.437 1.046-19.445 8.055l-206.245 206.245c-19.685-12.107-42.206-18.047-65.528-17.225-61.495 2.168-111.226 52.045-113.219 113.548-1.063 32.816 11.149 63.687 34.388 86.925 22.306 22.306 51.641 34.453 82.98 34.453 1.311 0 2.628-.021 3.946-.064 61.503-1.993 111.379-51.724 113.548-113.219.823-23.32-5.118-45.843-17.225-65.527l94.448-94.449c2.929-2.929 2.929-7.678 0-10.606-2.929-2.929-7.678-2.929-10.606 0l-98.749 98.75c-2.56 2.56-2.926 6.583-.87 9.563 12.565 18.212 18.793 39.562 18.012 61.743-1.892 53.639-45.397 97.017-99.043 98.755-28.642.927-55.559-9.727-75.834-30.003-20.275-20.275-30.93-47.207-30.002-75.833 1.738-53.646 45.116-97.151 98.755-99.043 22.18-.779 43.53 5.446 61.744 18.012 2.979 2.056 7.002 1.689 9.562-.87l157.858-157.858 2.546-2.546c4.874-4.874 12.804-4.874 17.677 0 2.361 2.361 3.661 5.5 3.661 8.839 0 3.338-1.3 6.478-3.661 8.838zm40.075-75.43 32.83-32.83c3.186-3.186 6.905-3.662 8.839-3.662s5.653.476 8.838 3.661c3.186 3.186 3.662 6.905 3.662 8.839s-.476 5.653-3.661 8.838l-32.817 32.817c-1.321-4.087-3.594-7.834-6.719-10.959-3.181-3.181-6.957-5.411-10.972-6.704z"/></g></g></svg>