<svg id="Capa_1" enable-background="new 0 0 512 512" height="512" viewBox="0 0 512 512" width="512" xmlns="http://www.w3.org/2000/svg"><g><g><path d="m390.209 65.1-48.25-48.37c-5.628-5.642-13.27-8.813-21.24-8.813h-109.46c-7.956 0-15.587 3.161-21.213 8.787l-19.259 19.259c-5.626 5.626-13.257 8.787-21.213 8.787h-20.482c-7.956 0-15.587 3.161-21.213 8.787l-11.592 11.589c-5.626 5.626-13.257 8.787-21.213 8.787h-17.574c-16.569 0-30 13.431-30 30v50h457l-22.7-60.534c-4.391-11.709-15.585-19.466-28.09-19.466h-22.262c-7.969 0-15.611-3.171-21.239-8.813z" fill="#525e77"/></g><g><path d="m238.406 59.331c5.948-4.919 2.47-14.582-5.248-14.582h-83.584-20.482c-7.957 0-15.587 3.161-21.213 8.787l-11.592 11.59c-5.626 5.626-13.257 8.787-21.213 8.787h-17.574c-16.569 0-30 13.431-30 30v50h316.325l-22.265-60.379c-4.347-11.79-15.582-19.621-28.147-19.621h-49.759c-7.718 0-11.196-9.664-5.248-14.582z" fill="#3b4456"/></g><g><path d="m107.5 274.084h297v130h-297z" fill="#c8866a"/></g><g><path d="m454.5 324.084h-397l-30-170.171h457z" fill="#db9e82"/></g><g><g><g><ellipse cx="176.355" cy="255.536" fill="#fff" rx="29.387" ry="23.403"/></g><g><ellipse cx="335.645" cy="255.536" fill="#fff" rx="29.387" ry="23.403"/></g><g><path d="m279.694 237.555c0-14.643-10.608-16.019-23.693-16.019-13.086 0-23.694 1.376-23.694 16.019s10.608 26.513 23.694 26.513c13.085-.001 23.693-11.871 23.693-26.513z" fill="#3b4456"/></g></g><g><path d="m181.268 235.096c-4.142 0-7.5-3.358-7.5-7.5v-12c0-4.142 3.358-7.5 7.5-7.5s7.5 3.358 7.5 7.5v12c0 4.142-3.358 7.5-7.5 7.5z"/></g><g><path d="m256 271.567c-17.2 0-31.193-15.258-31.193-34.013 0-23.519 21.859-23.519 31.193-23.519s31.193 0 31.193 23.519c0 18.755-13.993 34.013-31.193 34.013zm0-42.531c-15.539 0-16.193 2.611-16.193 8.519 0 10.484 7.264 19.013 16.193 19.013s16.193-8.529 16.193-19.013c0-5.908-.654-8.519-16.193-8.519z"/></g><g><path d="m330.732 235.096c-4.142 0-7.5-3.358-7.5-7.5v-12c0-4.142 3.358-7.5 7.5-7.5s7.5 3.358 7.5 7.5v12c0 4.142-3.358 7.5-7.5 7.5z"/></g></g><g><path d="m27.5 153.913 30 170.171h80l-30-170.171z" fill="#c8866a"/></g><g><path d="m107.5 304.084c-55.228 0-100 44.771-100 100s44.772 100 100 100c55.229 0 100-44.771 100-100s-44.771-100-100-100zm0 160c-33.084 0-60-26.916-60-60s26.916-60 60-60 60 26.916 60 60-26.916 60-60 60z" fill="#525e77"/></g><g><path d="m87.5 484.084c0-11.046 8.954-20 20-20-33.084 0-60-26.916-60-60s26.916-60 60-60c-11.046 0-20-8.954-20-20s8.954-20 20-20c-55.228 0-100 44.771-100 100s44.772 100 100 100c-11.046 0-20-8.955-20-20z" fill="#3b4456"/></g><g><path d="m404.5 304.084c-55.228 0-100 44.771-100 100s44.772 100 100 100c55.229 0 100-44.771 100-100s-44.771-100-100-100zm0 160c-33.084 0-60-26.916-60-60s26.916-60 60-60 60 26.916 60 60-26.916 60-60 60z" fill="#525e77"/></g><g><path d="m384.5 484.084c0-11.046 8.954-20 20-20-33.084 0-60-26.916-60-60s26.916-60 60-60c-11.046 0-20-8.954-20-20s8.954-20 20-20c-55.228 0-100 44.771-100 100s44.772 100 100 100c-11.046 0-20-8.955-20-20z" fill="#3b4456"/></g><g><path d="m484.5 173.913h-457c-11.046 0-20-8.954-20-20 0-11.046 8.954-20 20-20h457c11.046 0 20 8.954 20 20 0 11.046-8.954 20-20 20z" fill="#fff18f"/></g><g><path d="m91.083 153.913c0-11.046 8.954-20 20-20h-83.583c-11.046 0-20 8.954-20 20 0 11.046 8.954 20 20 20h83.583c-11.045 0-20-8.954-20-20z" fill="#ffde83"/></g><g><path d="m107.5 336.584c-37.22 0-67.5 30.28-67.5 67.5s30.28 67.5 67.5 67.5 67.5-30.28 67.5-67.5-30.28-67.5-67.5-67.5zm42.031 98.924-23.924-23.924h33.849c-1.276 8.881-4.775 17.053-9.925 23.924zm-93.987-23.924h33.849l-23.924 23.924c-5.15-6.871-8.649-15.043-9.925-23.924zm9.925-38.925 23.924 23.924h-33.849c1.276-8.88 4.775-17.052 9.925-23.924zm49.531-20.531c8.881 1.276 17.053 4.775 23.924 9.925l-23.924 23.924zm-15 33.849-23.924-23.924c6.871-5.15 15.044-8.649 23.924-9.925zm0 36.213v33.849c-8.881-1.276-17.053-4.775-23.924-9.925zm15 0 23.924 23.924c-6.871 5.15-15.044 8.649-23.924 9.925zm10.606-25.606 23.924-23.924c5.15 6.871 8.649 15.044 9.925 23.924z"/><path d="m463.81 314.472 23.482-133.2c13.858-1.404 24.708-13.138 24.708-27.359 0-15.164-12.336-27.5-27.5-27.5h-2.303l-13.375-35.667c-5.457-14.554-19.568-24.333-35.112-24.333h-22.262c-6.02 0-11.678-2.348-15.93-6.61l-12.464-12.496c-2.925-2.934-7.673-2.938-10.606-.014-2.933 2.925-2.939 7.674-.014 10.606l12.465 12.497c7.087 7.104 16.516 11.017 26.549 11.017h22.262c9.327 0 17.793 5.867 21.067 14.6l11.4 30.4h-431.177v-22.5c0-12.407 10.093-22.5 22.5-22.5h17.574c10.017 0 19.434-3.901 26.516-10.984l11.592-11.591c4.249-4.25 9.899-6.59 15.91-6.59h20.482c10.017 0 19.434-3.9 26.516-10.983l19.259-19.259c4.25-4.25 9.9-6.59 15.91-6.59h109.46c6.021 0 11.678 2.347 15.93 6.609l13.363 13.397c2.925 2.933 7.674 2.939 10.607.014 2.932-2.925 2.938-7.674.013-10.606l-13.364-13.397c-7.086-7.104-16.515-11.016-26.549-11.016h-109.46c-10.017 0-19.434 3.901-26.517 10.983l-19.259 19.259c-4.25 4.25-9.9 6.59-15.91 6.59h-20.482c-10.017 0-19.435 3.901-26.517 10.984l-11.591 11.59c-4.249 4.25-9.899 6.59-15.909 6.59h-17.574c-20.678 0-37.5 16.822-37.5 37.5v23.548c-11.528 3.274-20 13.889-20 26.452 0 14.221 10.851 25.955 24.708 27.359l23.482 133.2c-29.019 19.271-48.19 52.242-48.19 89.612 0 59.276 48.224 107.5 107.5 107.5 56.754 0 103.37-44.21 107.234-100h82.531c3.864 55.79 50.48 100 107.234 100 59.276 0 107.5-48.224 107.5-107.5.001-37.37-19.17-70.341-48.189-89.612zm-448.81-160.559c0-6.893 5.607-12.5 12.5-12.5h457c6.893 0 12.5 5.607 12.5 12.5s-5.607 12.5-12.5 12.5h-457c-6.893 0-12.5-5.607-12.5-12.5zm24.964 27.5h432.072l-22.084 125.267c-13.814-6.472-29.216-10.097-45.452-10.097-23.24 0-44.779 7.415-62.382 20h-172.13c-17.963-12.843-39.695-20-62.488-20-16.236 0-31.639 3.625-45.452 10.097zm156.031 195.654c2.658 8.718 4.005 17.808 4.005 27.017 0 51.005-41.495 92.5-92.5 92.5s-92.5-41.495-92.5-92.5 41.495-92.5 92.5-92.5c31.183 0 60.068 15.562 77.267 41.627 2.281 3.457 6.935 4.41 10.391 2.13 3.458-2.281 4.411-6.934 2.13-10.391-3.145-4.766-6.627-9.228-10.401-13.366h138.313c-15.923 17.402-26.205 40.042-27.933 65h-82.532c-.561-8.124-2.026-16.132-4.392-23.891-1.207-3.962-5.398-6.194-9.361-4.987s-6.195 5.399-4.987 9.361zm208.505 119.517c-51.005 0-92.5-41.495-92.5-92.5s41.495-92.5 92.5-92.5 92.5 41.495 92.5 92.5-41.495 92.5-92.5 92.5z"/><path d="m404.5 336.584c-37.22 0-67.5 30.28-67.5 67.5s30.28 67.5 67.5 67.5 67.5-30.28 67.5-67.5-30.28-67.5-67.5-67.5zm42.031 98.924-23.924-23.924h33.849c-1.276 8.881-4.775 17.053-9.925 23.924zm-93.987-23.924h33.849l-23.924 23.924c-5.15-6.871-8.649-15.043-9.925-23.924zm9.925-38.925 23.924 23.924h-33.849c1.276-8.88 4.775-17.052 9.925-23.924zm49.531-20.531c8.881 1.276 17.053 4.775 23.924 9.925l-23.924 23.924zm-15 33.849-23.924-23.924c6.871-5.15 15.044-8.649 23.924-9.925zm0 36.213v33.849c-8.881-1.276-17.053-4.775-23.924-9.925zm15 0 23.924 23.924c-6.871 5.15-15.044 8.649-23.924 9.925zm10.606-25.606 23.924-23.924c5.15 6.871 8.649 15.044 9.925 23.924z"/></g></g></svg>