<svg id="Capa_1" enable-background="new 0 0 512.016 512.016" height="512" viewBox="0 0 512.016 512.016" width="512" xmlns="http://www.w3.org/2000/svg"><g><g><path d="m384.508 7.5h-254c-55.228 0-100 44.771-100 100 0 55.228 44.771 100 100 100 27.534 0 52.348 16.61 62.843 42.065l22.657 54.951h80l22.657-54.951c10.495-25.455 35.31-42.065 62.843-42.065h3c55.228 0 100-44.771 100-100 0-55.229-44.771-100-100-100z" fill="#04a563"/></g><g><path d="m464.508 504.516h-417c-22.091 0-40-17.909-40-40 0-22.091 17.909-40 40-40h417c22.091 0 40 17.909 40 40 0 22.092-17.909 40-40 40z" fill="#00c272"/></g><g><path d="m131.758 464.516c0-22.091 17.909-40 40-40h-124.25c-22.091 0-40 17.909-40 40 0 22.091 17.909 40 40 40h124.25c-22.091 0-40-17.908-40-40z" fill="#04a563"/></g><g><path d="m191.758 344.516h152.75c44.183 0 80 35.817 80 80h-232.75z" fill="#04a563"/></g><g><path d="m216.008 304.516v-217h80v237c0 55.228-44.772 100-100 100h-68.5c-22.091 0-40-17.909-40-40 0-22.091 17.909-40 40-40h48.5c22.091 0 40-17.908 40-40z" fill="#fff18f"/></g><g><circle cx="257.508" cy="107.5" fill="#44cf79" r="100"/></g><g><path d="m287.508 177.5c-55.228 0-100-44.772-100-100 0-19.937 5.837-38.511 15.892-54.108-27.609 17.798-45.892 48.817-45.892 84.108 0 55.228 44.772 100 100 100 35.291 0 66.31-18.283 84.108-45.892-15.597 10.055-34.17 15.892-54.108 15.892z" fill="#00c272"/></g><g><path d="m193.559 83.195c-4.142 0-7.5 3.358-7.5 7.5v12c0 4.142 3.358 7.5 7.5 7.5s7.5-3.358 7.5-7.5v-12c0-4.142-3.358-7.5-7.5-7.5z"/><path d="m318.456 83.195c-4.143 0-7.5 3.358-7.5 7.5v12c0 4.142 3.357 7.5 7.5 7.5s7.5-3.358 7.5-7.5v-12c0-4.142-3.357-7.5-7.5-7.5z"/><path d="m285.101 102.35c-4.143 0-7.5 3.358-7.5 7.5 0 3.835-3.12 6.956-6.955 6.956s-6.955-3.12-6.955-6.956c0-3.883-2.952-7.077-6.734-7.461-.252-.026-.508-.039-.767-.039-4.142 0-7.5 3.358-7.5 7.5 0 3.835-3.12 6.956-6.956 6.956s-6.956-3.12-6.956-6.956c0-4.142-3.358-7.5-7.5-7.5s-7.5 3.358-7.5 7.5c0 12.106 9.849 21.956 21.956 21.956 5.533 0 10.59-2.062 14.456-5.451 3.865 3.39 8.923 5.451 14.456 5.451 12.106 0 21.955-9.849 21.955-21.956 0-4.142-3.358-7.5-7.5-7.5z"/></g><g><path d="m176.008 344.516h-48.5c-22.091 0-40 17.909-40 40 0 22.091 17.909 40 40 40h68.5c55.228 0 100-44.772 100-100v-20c0 22.091-17.909 40-40 40s-40-17.909-40-40c0 22.091-17.909 40-40 40z" fill="#ffde83"/></g><path d="m464.508 417.016h-32.825c-3.817-44.749-41.454-80-87.175-80h-41.731c.477-4.102.731-8.272.731-12.5v-18.546c.021-.049.051-.092.071-.141l22.019-53.405c9.373-22.734 31.319-37.424 55.91-37.424h3c59.275 0 107.5-48.224 107.5-107.5s-48.225-107.5-107.5-107.5h-254c-59.276 0-107.5 48.224-107.5 107.5s48.224 107.5 107.5 107.5c24.59 0 46.536 14.69 55.91 37.424l22.018 53.402c.011.027.026.052.037.078-.731 17.278-15.01 31.112-32.465 31.112h-48.5c-26.191 0-47.5 21.309-47.5 47.5 0 12.564 4.912 23.996 12.906 32.5h-45.406c-26.191 0-47.5 21.309-47.5 47.5s21.309 47.5 47.5 47.5h417c26.191 0 47.5-21.309 47.5-47.5s-21.309-47.5-47.5-47.5zm-80-402.016c51.005 0 92.5 41.495 92.5 92.5s-41.495 92.5-92.5 92.5h-3c-30.69 0-58.079 18.333-69.777 46.706l-8.223 19.944v-62.003c36.325-17.27 61.5-54.322 61.5-97.147 0-39.31-21.213-73.753-52.788-92.5h72.288zm-184.223 231.706c-11.698-28.373-39.087-46.706-69.777-46.706-51.005 0-92.5-41.495-92.5-92.5s41.495-92.5 92.5-92.5h72.228c-5.404 3.199-10.548 6.88-15.359 11.024-19.272 16.603-32.07 39.511-36.036 64.506-.649 4.091 2.141 7.934 6.232 8.583 4.091.653 7.934-2.14 8.583-6.232 7.16-45.128 45.579-77.881 91.352-77.881 51.005 0 92.5 41.495 92.5 92.5s-41.495 92.5-92.5 92.5c-45.882 0-84.315-32.844-91.386-78.096-.639-4.093-4.477-6.889-8.568-6.252-4.093.64-6.892 4.476-6.252 8.568 3.915 25.052 16.694 48.021 35.984 64.677 6.519 5.629 13.657 10.39 21.222 14.264v63.489zm-105.277 137.81c0-17.92 14.58-32.5 32.5-32.5h48.5c26.191 0 47.5-21.309 47.5-47.5v-95.052c10.88 3.626 22.35 5.536 34 5.536 10.774 0 21.18-1.6 31-4.563v114.079c0 51.005-41.495 92.5-92.5 92.5h-68.5c-17.92 0-32.5-14.579-32.5-32.5zm369.5 112.5h-417c-17.92 0-32.5-14.58-32.5-32.5s14.58-32.5 32.5-32.5h279.108c4.143 0 7.5-3.358 7.5-7.5s-3.357-7.5-7.5-7.5h-75.896c23.943-14.216 41.923-37.455 49.217-65h44.571c37.444 0 68.347 28.534 72.113 65h-59.113c-4.143 0-7.5 3.358-7.5 7.5s3.357 7.5 7.5 7.5h107c17.921 0 32.5 14.58 32.5 32.5s-14.579 32.5-32.5 32.5z"/></g></svg>