<svg id="Capa_1" enable-background="new 0 0 512 512" height="512" viewBox="0 0 512 512" width="512" xmlns="http://www.w3.org/2000/svg"><g><path d="m394.045 52.862-35.612 14.751c-15.307 6.34-32.856-.929-39.197-16.236-2.113-5.102.31-10.952 5.412-13.066l54.09-22.405z" fill="#c8866a"/></g><g><path d="m354.5 45.99v101.318c0 13.499-10.943 24.442-24.442 24.442-9.492 0-18.126-5.496-22.144-14.095l-31.786-68.028c-15.218-32.568-61.531-32.569-76.749 0-15.218 32.568-61.53 32.568-76.749.001l-.003-.007c-15.218-32.567-61.53-32.567-76.748 0l-1.837 3.931c-24.068 51.504-36.542 107.662-36.542 164.513v216.435c0 16.569 13.431 30 30 30h50c11.046 0 20-8.954 20-20 0-11.046-8.954-20-20-20h-17.417c-12.004 0-21.304-10.501-19.853-22.417l17.27-141.833s50.5 30 113.5 30 113.5-30 113.5-30v174.25c0 16.569 13.431 30 30 30h50c11.046 0 20-8.954 20-20 0-11.046-8.954-20-20-20h-17.573c-11.949 0-21.232-10.409-19.87-22.281l17.443-151.969c44.183 0 80-35.817 80-80v-122.75h40c16.569 0 30-13.431 30-30 0-16.569-13.431-30-30-30h-40l-8.292-7.37c-9.152-8.136-20.972-12.63-33.218-12.63-21.257 0-38.49 17.233-38.49 38.49z" fill="#db9e82"/></g><g><g><path d="m294.5 300.25c0-17.981-17.825-30.478-34.752-24.411-20.362 7.299-48.073 14.411-78.748 14.411s-58.386-7.112-78.748-14.411c-16.927-6.067-34.752 6.43-34.752 24.411s50.5 30 113.5 30 113.5-30 113.5-30z" fill="#c8866a"/></g></g><g><path d="m404.386 66.904c-5.46 0-9.886 4.426-9.886 9.886v136.854c0 25.621 38.306 27.078 39.852 1.504.098-1.62.148-3.253.148-4.898v-122.75h-10.341c-5.46 0-9.886-4.426-9.886-9.886v-.823c-.001-5.46-4.427-9.887-9.887-9.887z" fill="#c8866a"/></g><g><g><g><path d="m394.5 53c-4.142 0-7.5-3.358-7.5-7.5v-12c0-4.142 3.358-7.5 7.5-7.5s7.5 3.358 7.5 7.5v12c0 4.142-3.358 7.5-7.5 7.5z"/></g></g><g><path d="m474.5 20h-37.148l-6.161-5.476c-10.537-9.366-24.104-14.524-38.201-14.524-14.136 0-26.797 6.415-35.24 16.482l-35.971 14.9c-4.319 1.789-7.683 5.152-9.472 9.471-1.789 4.318-1.789 9.075 0 13.394 5.936 14.329 19.643 23.181 34.505 23.181.063 0 .126-.005.188-.006v24.244c0 4.142 3.358 7.5 7.5 7.5s7.5-3.358 7.5-7.5v-55.676c0-17.088 13.902-30.99 30.99-30.99 10.419 0 20.447 3.813 28.235 10.735l8.292 7.371c1.373 1.22 3.146 1.894 4.983 1.894h40c12.407 0 22.5 10.093 22.5 22.5s-10.093 22.5-22.5 22.5h-40-10.341c-1.316 0-2.386-1.07-2.386-2.386v-.823c0-4.142-3.358-7.5-7.5-7.5s-7.5 3.358-7.5 7.5v.823c0 9.587 7.799 17.386 17.386 17.386h2.841v115.25c0 39.977-32.523 72.5-72.5 72.5-3.811 0-7.017 2.858-7.451 6.645l-17.443 151.97c-.893 7.78 1.584 15.595 6.797 21.439 5.212 5.844 12.693 9.196 20.524 9.196h17.573c6.893 0 12.5 5.607 12.5 12.5s-5.607 12.5-12.5 12.5h-50c-12.407 0-22.5-10.093-22.5-22.5v-174.25c0-11.029-5.17-20.993-14.185-27.337-8.901-6.266-20.34-7.811-30.598-4.133-3.899 1.397-5.927 5.691-4.529 9.591 1.397 3.899 5.691 5.928 9.591 4.529 5.753-2.062 11.914-1.232 16.903 2.279 3.794 2.67 6.347 6.507 7.344 10.878-13.065 6.811-55.496 26.693-105.526 26.693-50.034 0-92.468-19.885-105.527-26.693.997-4.371 3.551-8.208 7.345-10.878 4.988-3.512 11.15-4.342 16.903-2.279 3.9 1.398 8.193-.63 9.591-4.529s-.63-8.193-4.529-9.591c-10.259-3.677-21.698-2.132-30.598 4.133-8.851 6.229-13.983 15.95-14.167 26.74l-8.05 66.108c-.501 4.112 2.427 7.851 6.538 8.352 4.119.502 7.851-2.427 8.352-6.538l6.771-55.602c18.11 8.882 58.928 25.778 107.372 25.778 47.259 0 87.257-16.078 106-25.111v161.86c0 20.678 16.822 37.5 37.5 37.5h50c15.164 0 27.5-12.336 27.5-27.5s-12.337-27.5-27.501-27.5h-17.573c-3.612 0-6.925-1.484-9.329-4.18s-3.501-6.157-3.089-9.745l16.709-145.58c45.123-3.44 80.782-41.256 80.782-87.245v-115.25h32.5c20.678 0 37.5-16.822 37.5-37.5s-16.822-37.5-37.5-37.5zm-148.335 28.507c-.345-.833-.148-1.557 0-1.914s.521-1.008 1.353-1.353l20.409-8.454c-.607 2.976-.927 6.053-.927 9.204v16.408c-8.965.053-17.255-5.249-20.835-13.891z"/><path d="m87.5 457h-17.417c-3.628 0-6.952-1.496-9.357-4.212-2.406-2.716-3.49-6.196-3.051-9.798l5.53-45.416c.501-4.112-2.426-7.851-6.538-8.352-4.117-.499-7.851 2.427-8.352 6.538l-5.53 45.416c-.951 7.81 1.495 15.667 6.711 21.557 5.216 5.889 12.72 9.267 20.587 9.267h17.417c6.893 0 12.5 5.607 12.5 12.5s-5.607 12.5-12.5 12.5h-50c-12.407 0-22.5-10.093-22.5-22.5v-216.435c0-55.378 12.392-111.168 35.836-161.339l1.836-3.93c5.881-12.586 17.687-20.101 31.58-20.101 13.877 0 25.672 7.498 31.56 20.059.007.016.015.032.022.048 8.287 17.734 25.595 28.75 45.17 28.75s36.882-11.017 45.169-28.751c5.881-12.586 17.687-20.101 31.58-20.101s25.698 7.515 31.579 20.101l31.787 68.028c5.229 11.19 16.587 18.42 28.939 18.42 17.613 0 31.942-14.329 31.942-31.942v-15.642c0-4.142-3.358-7.5-7.5-7.5s-7.5 3.358-7.5 7.5v15.642c0 9.342-7.6 16.942-16.942 16.942-6.551 0-12.576-3.835-15.349-9.77l-31.787-68.028c-8.286-17.734-25.594-28.751-45.169-28.751-.001 0 0 0 0 0-19.574 0-36.883 11.017-45.169 28.751-5.881 12.586-17.687 20.101-31.579 20.101-13.878 0-25.674-7.499-31.563-20.062-.007-.015-.014-.03-.021-.045-8.287-17.733-25.595-28.75-45.169-28.75-19.575 0-36.882 11.017-45.169 28.75l-1.836 3.93c-24.367 52.146-37.247 110.132-37.247 167.69v216.435c0 20.678 16.822 37.5 37.5 37.5h50c15.164 0 27.5-12.336 27.5-27.5s-12.336-27.5-27.5-27.5z"/></g></g></svg>