<svg id="Capa_1" enable-background="new 0 0 512.75 512.75" height="512" viewBox="0 0 512.75 512.75" width="512" xmlns="http://www.w3.org/2000/svg"><g><g><path d="m433.068 465.25c-16.482 0-29.844-13.362-29.844-29.844v-170.906h-40v170.906c0 16.482-13.362 29.844-29.844 29.844h-.312c-16.569 0-30 13.431-30 30 0 5.523 4.477 10 10 10h140c5.523 0 10-4.477 10-10 0-16.569-13.431-30-30-30z" fill="#ffde83"/></g><g><path d="m353.068 465.25c-16.482 0-29.844-13.362-29.844-29.844v-170.906h-40v170.906c0 16.482-13.362 29.844-29.844 29.844h-.312c-16.569 0-30 13.431-30 30 0 5.523 4.477 10 10 10h140c5.523 0 10-4.477 10-10 0-16.569-13.431-30-30-30z" fill="#fff18f"/></g><g><path d="m363.068 394c-55.229 0-100-44.771-100-100v-90l100-106.5 100 106.5v90c0 55.229-44.771 100-100 100z" fill="#b77158"/></g><g><path d="m263.068 204c25.002 0 25.002-20 50.003-20s25.002 20 50.003 20c24.998 0 24.998-20 49.996-20 24.999 0 24.999 20 49.998 20v-96.5c0-55.228-44.771-100-100-100-55.228 0-100 44.771-100 100z" fill="#fff2cf"/></g><g><g><path d="m303.068 107.5c0-48.379 34.356-88.732 80-97.998-6.462-1.312-13.15-2.002-20-2.002-55.228 0-100 44.771-100 100v96.5c21.128 0 24.404-14.282 40-18.707 0-24.314 0-77.793 0-77.793z" fill="#ffe1bd"/></g></g><g><path d="m465.416 133.235c21.714-8.378 30.285 12.687 34.881 8.091 13.933-13.933-29.391-91.301-68.103-52.589-10.957 10.957-10.957 28.721 0 39.678 8.997 8.996 22.583 10.599 33.222 4.82z" fill="#ffde83"/></g><g><g><path d="m402.068 85.5c-4.143 0-7.5-3.358-7.5-7.5v-12c0-4.142 3.357-7.5 7.5-7.5s7.5 3.358 7.5 7.5v12c0 4.142-3.357 7.5-7.5 7.5z"/></g></g><g><path d="m365.034 201.927c-44.997-44.997-117.951-44.997-162.947 0l-142.833 142.832c-7.81 7.81-7.81 20.474 0 28.284l2.153 2.153c.589.589 1.191 1.16 1.785 1.741l-47.532 47.533c-7.81 7.81-7.81 20.474 0 28.284 34.111 34.111 89.417 34.111 123.528 0l22.134-22.134c67.342 15.508 140.923-2.957 193.39-55.424l10.321-10.321c44.997-44.997 44.997-117.951.001-162.948z" fill="#db9e82"/></g><g><g><path d="m59.254 373.044 2.153 2.153c.589.589 1.191 1.16 1.785 1.741l-47.532 47.532c-7.81 7.81-7.81 20.474 0 28.284 34.111 34.111 89.417 34.111 123.528 0l22.134-22.134c67.342 15.508 140.923-2.957 193.39-55.424l10.321-10.321c-44.997 44.997-117.951 44.997-162.947 0-44.997-44.997-44.997-117.951 0-162.947l-142.832 142.831c-7.81 7.811-7.81 20.474 0 28.285z" fill="#c8866a"/></g></g><path d="m505.983 113.649c-7.395-17.853-22.903-36.863-41.506-41.87-7.051-19.964-20.16-37.802-37.219-50.519-18.658-13.908-40.855-21.26-64.19-21.26-23.142 0-45.189 7.242-63.761 20.942-3.334 2.459-4.042 7.154-1.583 10.488 2.46 3.334 7.156 4.043 10.487 1.583 15.975-11.784 34.943-18.013 54.857-18.013 37.558 0 70.7 22.25 85.104 56.208-7.55 1.542-14.685 5.629-21.281 12.226-6.717 6.715-10.415 15.645-10.415 25.142s3.698 18.427 10.414 25.142c6.713 6.712 15.639 10.41 25.133 10.41h.002c1.185 0 2.367-.074 3.543-.192v51.679c-5.183-1.365-8.692-4.173-12.813-7.47-6.484-5.188-14.554-11.644-29.685-11.644-15.13 0-23.199 6.456-29.684 11.644-4.492 3.594-8.103 6.482-13.833 7.717-27.15-26.677-63.723-38.153-98.986-34.431v-53.931c0-19.915 6.229-38.883 18.013-54.855 2.459-3.333 1.751-8.029-1.582-10.488-3.335-2.459-8.028-1.751-10.488 1.583-13.7 18.57-20.942 40.618-20.942 63.761v56.455c-21.558 5.015-42.016 15.899-58.786 32.669l-142.831 142.831c-5.194 5.194-8.055 12.1-8.055 19.445 0 6.688 2.371 13.011 6.716 18.01l-42.255 42.255c-10.723 10.722-10.723 28.169 0 38.891 17.914 17.915 41.732 27.78 67.067 27.78s49.153-9.866 67.067-27.78l19.231-19.23c33.634 7.056 68.763 5.963 101.874-3.2 3.407-.943 6.778-1.997 10.129-3.108v2.887c0 12.32-10.023 22.344-22.344 22.344h-.312c-20.678 0-37.5 16.822-37.5 37.5 0 9.649 7.851 17.5 17.5 17.5h140c.151 0 .297-.019.447-.023.149.009.297.023.449.023h79.104c9.649 0 17.5-7.851 17.5-17.5 0-20.678-16.822-37.5-37.5-37.5-12.32 0-22.344-10.023-22.344-22.344v-45.066c35.431-17.598 59.844-54.169 59.844-96.34v-90-64.566c1.665-.451 3.266-.69 4.773-.69 5.639 0 9.731 3.19 13.343 6.005 3.128 2.438 6.083 4.741 10.099 4.741 2.551 0 4.972-1.016 6.817-2.861 6.31-6.311 6.449-18.332.382-32.98zm-275.415 381.601c0-12.407 10.093-22.5 22.5-22.5h.312c20.591 0 37.344-16.752 37.344-37.344v-8.479c8.592-3.585 16.945-7.725 25-12.395v20.874c0 20.591 16.752 37.344 37.344 37.344 12.406 0 22.5 10.093 22.5 22.5 0 1.378-1.121 2.5-2.5 2.5h-140c-1.378 0-2.5-1.122-2.5-2.5zm108.587-96.425c5.431 1.234 10.978 2.038 16.569 2.416v34.165c0 8.575-4.869 16.307-12.499 20.053-7.398-3.646-12.501-11.263-12.501-20.053v-30.44c2.853-1.985 5.674-4.018 8.431-6.141zm93.913 73.925c12.406 0 22.5 10.093 22.5 22.5 0 1.378-1.121 2.5-2.5 2.5h-62.7c.118-.819.2-1.649.2-2.5 0-17.463-11.999-32.176-28.185-36.328 5.282-6.514 8.342-14.747 8.342-23.516v-34.182c8.654-.612 17.027-2.253 25-4.801v38.983c0 20.592 16.752 37.344 37.343 37.344zm-70-86.25c-2.963 0-5.92-.149-8.859-.428 1.965-1.823 3.907-3.673 5.806-5.572l10.321-10.321c19.851-19.851 32.01-45.059 35.161-72.898.466-4.116-2.492-7.83-6.608-8.296-4.101-.463-7.83 2.493-8.296 6.609-2.767 24.431-13.438 46.554-30.864 63.979l-10.321 10.321c-49.035 49.035-118.718 69.004-186.403 53.418-2.519-.58-5.158.177-6.986 2.005l-22.134 22.134c-15.082 15.081-35.133 23.387-56.461 23.387s-41.379-8.306-56.461-23.388c-2.361-2.36-3.661-5.5-3.661-8.838s1.3-6.478 3.661-8.839l47.533-47.533c1.417-1.417 2.208-3.344 2.197-5.349-.012-2.004-.826-3.921-2.261-5.321l-3.875-3.83c-4.874-4.874-4.874-12.804 0-17.678l142.832-142.832c42-42 110.339-42 152.341 0 16.373 16.373 26.858 37.088 30.323 59.906.622 4.095 4.435 6.914 8.541 6.289 4.095-.622 6.911-4.446 6.289-8.541-3.185-20.973-11.579-40.38-24.489-56.891 5.024-2.276 8.848-5.325 12.363-8.138 5.835-4.669 10.444-8.356 20.313-8.356s14.478 3.688 20.313 8.356c5.319 4.255 11.711 9.357 22.185 11.056v83.089c0 51.005-41.495 92.5-92.5 92.5zm112.274-262.756c-4.09 0-8.338.839-12.627 2.494-.302.116-.596.252-.88.407-2.99 1.625-6.382 2.483-9.809 2.483-.001 0-.001 0-.002 0-5.488 0-10.647-2.137-14.527-6.017-3.882-3.883-6.021-9.045-6.021-14.536s2.139-10.653 6.021-14.536c5.666-5.667 11.587-8.54 17.599-8.54 13.81 0 27.428 14.597 34.798 29.063 3.646 7.158 5.069 12.723 5.464 16.413-4.5-3.3-11.086-7.231-20.016-7.231z"/></g></svg>