<svg id="Capa_1" enable-background="new 0 0 512 512" height="512" viewBox="0 0 512 512" width="512" xmlns="http://www.w3.org/2000/svg"><g><g><circle cx="421.129" cy="246.098" fill="#ffbd86" r="36.081"/></g><g><circle cx="90.871" cy="246.098" fill="#ffbd86" r="36.081"/></g><g><g><path d="m296.7 390.472c-2.538-.91-5.111-1.729-7.72-2.467-10.485-2.978-21.547-4.58-32.978-4.58-66.746 0-121.075 54.34-121.075 121.075h242.15c0-52.023-33.181-97.131-80.377-114.028z" fill="#fff2cf"/></g></g><g><path d="m280.995 386.03c-8.065-1.705-16.426-2.605-24.993-2.605-66.746 0-121.075 54.34-121.075 121.075h50c0-58.166 41.275-106.909 96.068-118.47z" fill="#ffe1bd"/></g><g><path d="m296.392 390.368c-2.439-.866-4.907-1.654-7.412-2.362-10.485-2.978-21.547-4.58-32.978-4.58-14.156 0-27.75 2.453-40.39 6.941 2.438 20.147 19.585 35.762 40.39 35.762 20.804-.001 37.951-15.615 40.39-35.761z" fill="#ffbd86"/></g><g><circle cx="256.002" cy="251.128" fill="#fed2a4" r="145"/></g><g><path d="m156.002 251.128v-104.999c-27.723 26.411-45 63.687-45 104.999 0 80.081 64.919 145 145 145 7.653 0 15.167-.597 22.5-1.74-69.396-10.811-122.5-70.832-122.5-143.26z" fill="#ffbd86"/></g><g><path d="m256.002 7.5c-88.366 0-160 71.634-160 160v40h320v-40c0-88.366-71.634-160-160-160z" fill="#fff2cf"/></g><g><path d="m126.002 401c-16.569 0-30-13.431-30-30v-217.936h60v217.936c0 16.569-13.431 30-30 30z" fill="#fff2cf"/></g><g><path d="m386.002 401c-16.569 0-30-13.431-30-30v-217.936h60v217.936c0 16.569-13.432 30-30 30z" fill="#fff2cf"/></g><g><g><path d="m193.553 285.119c-4.143 0-7.5-3.358-7.5-7.5v-12c0-4.142 3.357-7.5 7.5-7.5s7.5 3.358 7.5 7.5v12c0 4.142-3.358 7.5-7.5 7.5z"/></g><g><path d="m318.45 285.119c-4.143 0-7.5-3.358-7.5-7.5v-12c0-4.142 3.357-7.5 7.5-7.5s7.5 3.358 7.5 7.5v12c0 4.142-3.357 7.5-7.5 7.5z"/></g><g><path d="m256.002 292.262c-8.478 0-16.539-3.671-22.118-10.073-2.722-3.123-2.396-7.86.727-10.582 3.122-2.721 7.859-2.396 10.582.727 2.729 3.132 6.669 4.928 10.81 4.928s8.08-1.796 10.81-4.928c2.721-3.122 7.457-3.448 10.582-.727 3.122 2.722 3.448 7.459.727 10.582-5.581 6.402-13.643 10.073-22.12 10.073z"/></g></g><g><path d="m398.711 95.088c-.501-.009-.997-.038-1.5-.038h-181.071c-13.055 0-23.862-10.468-23.913-23.523 0-.084 0-.168 0-.252 0-35.222 28.553-63.775 63.775-63.775-88.365 0-160 71.634-160 160v40h320v-40c0-26.063-6.236-50.669-17.291-72.412z" fill="#ffe1bd"/></g><g><path d="m74.794 175.05c0-22.091 17.909-40 40-40h282.416c22.091 0 40 17.909 40 40 0 22.091-17.909 40-40 40h-282.416c-22.092 0-40-17.909-40-40z" fill="#db9e82"/></g><g><path d="m173.553 175.05c0-22.091 17.909-40 40-40h-98.76c-22.091 0-40 17.909-40 40 0 22.091 17.909 40 40 40h98.76c-22.091 0-40-17.909-40-40z" fill="#c8866a"/></g><path d="m464.71 246.098c0-19.414-12.763-35.898-30.337-41.517 6.462-8.115 10.337-18.376 10.337-29.531 0-17.931-9.99-33.57-24.694-41.653-16.007-77.379-84.755-133.397-164.014-133.397-38.781 0-76.593 13.561-106.468 38.185-29.437 24.262-49.872 58.073-57.556 95.217-14.699 8.085-24.685 23.72-24.685 41.648 0 11.155 3.875 21.416 10.336 29.53-17.575 5.618-30.34 22.103-30.34 41.518 0 23.236 18.279 42.279 41.212 43.514v81.388c0 20.678 16.822 37.5 37.5 37.5 20.223 0 36.748-16.093 37.466-36.144 9.921 7.587 20.669 13.869 31.999 18.77-41.281 22.167-68.04 65.807-68.04 113.373 0 4.142 3.357 7.5 7.5 7.5h242.15c4.143 0 7.5-3.358 7.5-7.5 0-47.553-26.762-91.208-68.037-113.37 11.33-4.901 22.074-11.189 31.996-18.778.715 20.053 17.241 36.148 37.466 36.148 20.678 0 37.5-16.822 37.5-37.5v-81.388c22.932-1.236 41.209-20.279 41.209-43.513zm-349.916-103.548h188.656c4.143 0 7.5-3.358 7.5-7.5s-3.357-7.5-7.5-7.5h-188.656c-2.071 0-4.106.148-6.107.406 17.665-65.956 78.248-112.956 147.315-112.956 69.235 0 129.666 46.939 147.325 112.957-2.004-.259-4.043-.407-6.117-.407h-63.759c-4.143 0-7.5 3.358-7.5 7.5s3.357 7.5 7.5 7.5h63.759c17.921 0 32.5 14.58 32.5 32.5s-14.579 32.5-32.5 32.5h-282.416c-17.921 0-32.5-14.58-32.5-32.5s14.579-32.5 32.5-32.5zm-52.504 103.548c0-14.961 11.557-27.266 26.212-28.475v56.95c-14.655-1.209-26.212-13.514-26.212-28.475zm86.212 124.902c0 12.407-10.094 22.5-22.5 22.5s-22.5-10.093-22.5-22.5v-149.818c3.622.887 7.401 1.367 11.292 1.367h33.708v61.451c0 4.142 3.357 7.5 7.5 7.5s7.5-3.358 7.5-7.5v-61.45h185v130.302c-25.361 23.08-58.135 35.777-92.5 35.777-34.345 0-67.141-12.7-92.5-35.776v-38.853c0-4.142-3.357-7.5-7.5-7.5s-7.5 3.358-7.5 7.5zm136.946 29.775c-5.583 10.738-16.789 17.854-29.447 17.854-12.687 0-23.884-7.112-29.457-17.859 9.624 1.885 19.481 2.859 29.457 2.859 9.976-.001 19.829-.972 29.447-2.854zm83.877 96.225h-226.647c2.813-41.924 29.036-79.371 67.57-96.421 6.411 19.506 24.664 33.049 45.754 33.049 21.046 0 39.334-13.553 45.754-33.045 38.527 17.041 64.754 54.504 67.569 96.417zm16.677-103.5c-12.406 0-22.5-10.093-22.5-22.5v-148.45h33.708c3.891 0 7.67-.481 11.292-1.367v149.817c0 12.407-10.094 22.5-22.5 22.5zm37.5-118.927v-56.95c14.653 1.211 26.208 13.515 26.208 28.475s-11.555 27.264-26.208 28.475z"/></g></svg>