<svg id="Capa_1" enable-background="new 0 0 512 512" height="512" viewBox="0 0 512 512" width="512" xmlns="http://www.w3.org/2000/svg"><g><g><path d="m235.264 396.01c-23.997 17.952-11.239 46.205-20.997 46.689-17.616.875-40.805-39.566-42.429-77.412z" fill="#db9e82"/></g><g><g><path d="m357.703 181.909c-13.063 0-26.182 1.999-38.981 6.031l-62.722 19.758-62.722-19.757c-32.634-10.281-67.377-7.349-97.828 8.257-9.829 5.038-13.715 17.09-8.677 26.92s17.088 13.715 26.921 8.677c21.029-10.777 45.024-12.803 67.566-5.704l68.73 21.651c3.91 1.231 8.107 1.231 12.018 0l68.73-21.65c22.538-7.101 46.536-5.076 67.566 5.703 9.833 5.039 21.883 1.153 26.921-8.677s1.152-21.883-8.677-26.92c-18.506-9.485-38.604-14.289-58.845-14.289z" fill="#b77158"/></g></g><g><g><path d="m374.085 262.143c-9.387 0-18.818 1.766-27.801 5.354l-90.284 36.054-90.284-36.055c-23.11-9.228-49.21-6.406-69.813 7.551s-32.903 37.148-32.903 62.034v46.919c0 11.046 8.954 20 20 20s20-8.954 20-20v-46.919c0-11.774 5.591-22.313 15.338-28.917 9.747-6.603 21.608-7.887 32.544-3.52l97.701 39.017c4.762 1.901 10.072 1.901 14.834 0l97.701-39.017c10.934-4.365 22.795-3.083 32.544 3.52 9.747 6.604 15.338 17.143 15.338 28.917v46.919c0 11.046 8.954 20 20 20s20-8.954 20-20v-46.919c0-24.886-12.301-48.076-32.903-62.033-12.596-8.533-27.247-12.905-42.012-12.905z" fill="#c8866a"/></g></g><g><path d="m394.781 280.375c-7.555 7.555-8.02 19.513-1.399 27.611-9.696-6.441-21.434-7.666-32.264-3.342l-97.701 39.017c-4.762 1.901-10.072 1.901-14.834 0l-97.701-39.017c-10.832-4.325-22.57-3.099-32.264 3.342 6.621-8.099 6.156-20.057-1.399-27.611-6.134-6.134-15.167-7.581-22.684-4.369.453-.322.906-.645 1.368-.958 20.603-13.958 46.702-16.779 69.813-7.551l90.284 36.054 90.284-36.055c8.982-3.587 18.414-5.354 27.801-5.354 14.765 0 29.416 4.372 42.012 12.905.462.313.915.636 1.368.958-7.517-3.211-16.55-1.764-22.684 4.37z" fill="#b77158"/></g><g><path d="m78.107 460.141c29.873 2.397 34.139 33.102 42.654 28.31 15.371-8.651 13.433-55.228-5.368-88.113z" fill="#c8866a"/></g><g><path d="m276.736 396.01c23.997 17.952 11.239 46.205 20.997 46.689 17.616.875 40.805-39.566 42.429-77.412z" fill="#db9e82"/></g><g><path d="m98.085 454.64c-34.915 15.473-20.418 49.86-31.085 49.86-32.333 0-71.833-140.038 18-140.038 25.426 0 46.038 20.612 46.038 46.038 0 20.879-13.903 38.501-32.953 44.14z" fill="#db9e82"/></g><g><path d="m433.893 460.141c-29.873 2.397-34.139 33.102-42.654 28.31-15.371-8.651-13.433-55.228 5.368-88.113z" fill="#c8866a"/></g><g><path d="m413.915 454.64c34.915 15.473 20.418 49.86 31.085 49.86 32.333 0 71.833-140.038-18-140.038-25.426 0-46.038 20.612-46.038 46.038 0 20.879 13.903 38.501 32.953 44.14z" fill="#db9e82"/></g><g><path d="m414.111 132.506c29.785 13.2 17.418 42.534 26.518 42.534 27.583 0 61.279-119.462-15.355-119.462-21.69 0-39.274 17.583-39.274 39.274 0 17.81 11.86 32.843 28.111 37.654z" fill="#c8866a"/></g><g><circle cx="337" cy="37.5" fill="#c8866a" r="30"/></g><g><path d="m283.87 109.466c-16.569 0-30 13.431-30 30 0 4.363.939 8.503 2.613 12.243-10.463-4.685-17.757-15.181-17.757-27.387 0-16.569 13.431-30 30-30 12.206 0 22.702 7.294 27.387 17.757-3.739-1.674-7.88-2.613-12.243-2.613z" fill="#3b4456"/></g><g><circle cx="268.727" cy="124.322" fill="#c8866a" r="30"/></g><g><circle cx="256" cy="185.712" fill="#db9e82" r="40"/></g><g><path d="m273.333 163.045c-22.091 0-40 17.909-40 40 0 6.579 1.598 12.78 4.412 18.255-12.908-6.635-21.745-20.075-21.745-35.588 0-22.091 17.909-40 40-40 15.513 0 28.953 8.837 35.588 21.745-5.474-2.813-11.676-4.412-18.255-4.412z" fill="#c8866a"/></g><g><ellipse cx="256" cy="223.837" fill="#c8866a" rx="61" ry="38.125"/></g><g><path d="m245 223.837c0 15.486 14.782 28.806 36 34.774-7.632 2.147-16.088 3.351-25 3.351-33.689 0-61-17.069-61-38.125s27.311-38.125 61-38.125c8.912 0 17.368 1.204 25 3.351-21.218 5.968-36 19.288-36 34.774z" fill="#b77158"/></g><g><ellipse cx="256" cy="274.462" fill="#db9e82" rx="81" ry="50.625"/></g><g><path d="m225 274.462c0 22.505 23.503 41.57 56 48.156-7.876 1.596-16.273 2.469-25 2.469-44.735 0-81-22.666-81-50.625s36.265-50.625 81-50.625c8.727 0 17.124.873 25 2.469-32.497 6.586-56 25.651-56 48.156z" fill="#c8866a"/></g><g><ellipse cx="256" cy="336.962" fill="#c8866a" rx="100" ry="62.5"/></g><g><path d="m206 336.962c0 29.122 31.869 53.593 75 60.531-7.99 1.285-16.367 1.969-25 1.969-55.229 0-100-27.982-100-62.5s44.771-62.5 100-62.5c8.633 0 17.01.684 25 1.969-43.131 6.938-75 31.409-75 60.531z" fill="#b77158"/></g><g><g><path d="m203.552 354.034c-4.143 0-7.5-3.358-7.5-7.5v-12c0-4.142 3.357-7.5 7.5-7.5s7.5 3.358 7.5 7.5v12c0 4.142-3.358 7.5-7.5 7.5z"/></g><g><path d="m308.448 354.034c-4.143 0-7.5-3.358-7.5-7.5v-12c0-4.142 3.357-7.5 7.5-7.5s7.5 3.358 7.5 7.5v12c0 4.142-3.357 7.5-7.5 7.5z"/></g></g><g><circle cx="386" cy="55.578" fill="#db9e82" r="30"/></g><g><path d="m371.144 40.434c0 16.569 13.431 30 30 30 4.363 0 8.503-.939 12.243-2.613-4.685 10.463-15.181 17.757-27.387 17.757-16.569 0-30-13.431-30-30 0-12.206 7.294-22.702 17.757-27.387-1.675 3.74-2.613 7.881-2.613 12.243z" fill="#c8866a"/></g><g><circle cx="292" cy="71.655" fill="#db9e82" r="30"/></g><g><path d="m277.144 56.512c0 16.569 13.431 30 30 30 4.363 0 8.503-.939 12.243-2.613-4.685 10.463-15.181 17.757-27.387 17.757-16.569 0-30-13.431-30-30 0-12.206 7.294-22.702 17.757-27.387-1.675 3.74-2.613 7.88-2.613 12.243z" fill="#c8866a"/></g><path d="m475.967 378.577c-5.238-6.859-11.753-12.082-19.467-15.685v-25.811c0-27.376-13.531-52.888-36.197-68.243-13.708-9.287-29.69-14.195-46.218-14.195-10.51 0-20.799 1.981-30.582 5.888l-1.319.527c-3.198-9.153-9.667-17.586-19.061-24.703l9.87-3.109c20.645-6.505 42.625-4.65 61.893 5.225 4.004 2.052 8.279 3.023 12.496 3.023 9.996-.001 19.655-5.464 24.52-14.954 6.916-13.495 1.563-30.1-11.931-37.016-19.294-9.887-40.826-15.114-62.268-15.114-13.928 0-27.801 2.146-41.234 6.378l-12.99 4.092c-.205-11.784-4.715-22.533-12.031-30.739 9.169-7.001 14.778-17.979 14.778-29.818 0-5.968-1.408-11.611-3.899-16.625 14.881-4.271 25.995-17.52 27.076-33.486 2.491.514 5.036.788 7.597.788 5.403 0 10.539-1.158 15.184-3.224 5.065 10.531 14.872 18.204 26.389 20.546-.045.842-.073 1.685-.073 2.529 0 20.394 13.533 38.695 32.978 44.694 14.726 6.717 16.122 17.966 17.244 27.021.741 5.975 1.981 15.975 11.907 15.975 21.712 0 39.196-40.889 39.196-74.744 0-16.523-4.116-30.648-11.903-40.847-9.428-12.346-24.176-18.872-42.648-18.872-.839 0-1.677.027-2.515.072-3.457-17.132-18.624-30.072-36.759-30.072-5.32 0-10.457 1.095-15.194 3.201-6.059-12.578-18.935-21.279-33.806-21.279-19.813 0-36.076 15.448-37.402 34.93-2.454-.507-4.995-.775-7.598-.775-20.678 0-37.5 16.822-37.5 37.5 0 5.867 1.348 11.524 3.879 16.63-15.659 4.503-27.153 18.948-27.153 36.037 0 6.507 1.666 12.777 4.777 18.319-15.987 7.453-27.158 23.543-27.482 42.237l-12.989-4.092c-34.528-10.879-71.285-7.775-103.503 8.736-13.494 6.916-18.847 23.521-11.931 37.016 4.864 9.491 14.522 14.954 24.52 14.954 4.217 0 8.493-.972 12.497-3.023 19.262-9.874 41.242-11.729 61.893-5.225l9.87 3.109c-9.394 7.118-15.864 15.551-19.062 24.704l-1.319-.527c-24.729-9.874-52.851-7.159-75.222 7.264-3.481 2.245-4.484 6.886-2.24 10.368 1.435 2.225 3.848 3.437 6.311 3.437 1.393 0 2.8-.387 4.057-1.197 18.301-11.798 41.301-14.02 61.532-5.941l4.612 1.842c.263 5.751 1.76 11.347 4.462 16.712-3.308 2.675-6.287 5.49-8.924 8.425l-9.422-3.763c-13.282-5.304-27.691-3.745-39.532 4.276-11.84 8.021-18.631 20.825-18.631 35.126v20.922c-3.397-.678-6.907-1.04-10.5-1.04-5.125 0-9.954.425-14.5 1.246v-21.127c0-13.274 3.86-26.131 11.165-37.18 2.284-3.456 1.334-8.108-2.121-10.393-3.455-2.282-8.108-1.334-10.393 2.121-8.93 13.512-13.651 29.229-13.651 45.453v25.811c-7.714 3.603-14.229 8.826-19.467 15.685-8.956 11.728-13.689 28.014-13.689 47.098 0 18.98 4.639 39.666 12.728 56.753 9.026 19.07 20.366 29.572 31.928 29.572 10.494 0 11.807-10.587 12.676-17.593.944-7.613 2.053-16.509 8.682-23.969 7.689 3.65 12.484 10.121 16.406 15.434 3.289 4.455 7.896 10.696 14.145 10.696 1.717 0 3.559-.472 5.53-1.581 16-9.005 16.772-39.045 10.436-65.172 2.368-6.053 3.663-12.584 3.663-19.316 0-20.295-11.351-37.989-28.038-47.066v-26.353c0-9.245 4.39-17.522 12.044-22.708 7.655-5.186 16.971-6.192 25.557-2.764l6.14 2.452c-3.775 7.242-5.74 14.951-5.74 22.901 0 13.652 5.793 26.595 16.613 37.679.008.089.009.176.02.265 4.503 35.966 26.097 75.307 48.558 75.307.315 0 .633-.008.949-.023 10.48-.52 11.267-11.159 11.787-18.199.598-8.097 1.344-18.062 9.152-26.273 6.663.821 13.494 1.244 20.422 1.244 6.925 0 13.753-.424 20.414-1.244 7.807 8.209 8.562 18.181 9.159 26.272.521 7.04 1.307 17.679 11.787 18.199.313.016.624.023.937.023 22.204 0 43.8-38.964 48.478-74.582.041-.314.056-.626.058-.935 10.856-11.096 16.668-24.06 16.668-37.735 0-7.949-1.965-15.658-5.74-22.901l6.14-2.452c8.584-3.429 17.899-2.422 25.556 2.764 7.655 5.186 12.045 13.463 12.045 22.708v26.353c-16.687 9.077-28.038 26.771-28.038 47.066 0 6.73 1.294 13.258 3.661 19.31-6.308 26.005-5.525 56.192 10.438 65.177 1.973 1.11 3.813 1.581 5.53 1.581 6.247 0 10.855-6.242 14.145-10.696 3.923-5.313 8.717-11.784 16.407-15.434 6.629 7.46 7.739 16.356 8.682 23.969.864 7.009 2.177 17.596 12.671 17.596 11.563 0 22.902-10.502 31.929-29.572 8.089-17.087 12.728-37.773 12.728-56.753-.001-19.084-4.734-35.37-13.69-47.098zm-356.869 101.389c-.747-.947-1.571-2.063-2.266-3.003-3.378-4.576-7.933-10.732-14.756-15.731 8.021-2.702 15.118-7.245 20.87-13.067 1.738 15.613-.498 27.077-3.848 31.801zm4.44-69.466c0 16.947-11.342 32.141-27.582 36.949-.311.092-.614.204-.91.334-26.141 11.585-28.818 33.178-30.257 44.778-.142 1.149-.311 2.51-.495 3.695-4.222-2.085-10.156-8.609-15.665-20.247-7.066-14.928-11.285-33.745-11.285-50.335 0-24.503 8.268-53.712 47.656-53.712 21.25 0 38.538 17.288 38.538 38.538zm197.438-215.406c11.974-3.772 24.331-5.685 36.728-5.685 19.073 0 38.239 4.655 55.426 13.463 6.134 3.144 8.566 10.691 5.423 16.825-3.144 6.133-10.69 8.567-16.825 5.424-22.797-11.685-48.808-13.881-73.24-6.182l-4.2 1.323c-.948-8.269-5.165-15.97-11.885-22.467zm143.849-87.298c0 13.998-3.559 29.874-9.521 42.469-4.209 8.891-8.449 13.809-11.508 15.953-.067-.516-.131-1.029-.188-1.498-1.254-10.112-3.589-28.936-26.458-39.071-.296-.131-.6-.243-.91-.334-13.389-3.963-22.74-16.49-22.74-30.463 0-.852.042-1.703.11-2.551 14.583-3.018 26.095-14.529 29.113-29.113.848-.067 1.699-.11 2.551-.11 32.69 0 39.551 24.318 39.551 44.718zm-78.825-74.718c12.406 0 22.5 10.093 22.5 22.5s-10.094 22.5-22.5 22.5c-9.722 0-18.272-6.303-21.309-15.318 6.09-6.67 9.809-15.538 9.809-25.26 0-.412-.018-.82-.031-1.23 3.472-2.085 7.406-3.192 11.531-3.192zm-71.5 4.422c0-12.407 10.094-22.5 22.5-22.5s22.5 10.093 22.5 22.5-10.094 22.5-22.5 22.5c-3.586 0-7.119-.866-10.279-2.491-2.508-6.134-6.595-11.456-11.755-15.467-.304-1.488-.466-3.011-.466-4.542zm-22.5 11.655c12.406 0 22.5 10.093 22.5 22.5s-10.094 22.5-22.5 22.5c-.318 0-.63.026-.938.065-4.366-3.248-9.459-5.567-14.986-6.67-4.24-4.247-6.576-9.891-6.576-15.895 0-12.406 10.094-22.5 22.5-22.5zm-45.773 75.167c0-12.407 10.094-22.5 22.5-22.5s22.5 10.093 22.5 22.5c0 8.395-4.698 16.071-12.073 19.937-6.855-3.844-14.75-6.047-23.153-6.047-1.612 0-3.205.083-4.776.24-3.233-3.993-4.998-8.936-4.998-14.13zm9.773 28.89c17.19 0 31.296 13.417 32.419 30.327-5.037-1.782-10.48-3.163-16.25-4.074-4.089-.643-7.933 2.147-8.579 6.237-.646 4.092 2.146 7.933 6.237 8.579 22.987 3.632 39.672 16.063 39.672 29.556 0 1.319-.166 2.633-.479 3.938-15.187-7.409-33.647-11.438-53.021-11.438-19.375 0-37.835 4.03-53.022 11.439-.312-1.305-.478-2.62-.478-3.939 0-13.493 16.684-25.923 39.671-29.555 4.091-.646 6.884-4.487 6.237-8.579-.646-4.091-4.479-6.88-8.579-6.237-5.769.912-11.211 2.293-16.248 4.074 1.123-16.911 15.23-30.328 32.42-30.328zm-145.726 71.909c-6.137 3.143-13.683.71-16.826-5.423s-.711-13.681 5.423-16.825c28.687-14.7 61.412-17.463 92.154-7.778l8.574 2.701c-6.72 6.497-10.937 14.198-11.885 22.467l-4.2-1.323c-24.433-7.697-50.445-5.502-73.24 6.181zm145.726 6.216c39.841 0 73.5 19.749 73.5 43.125 0 3.38-.711 6.725-2.087 9.997-19.633-11.299-44.813-17.497-71.413-17.497-26.601 0-51.783 6.199-71.417 17.499-1.376-3.271-2.083-6.616-2.083-9.999 0-23.376 33.659-43.125 73.5-43.125zm-44.532 199.548c-.088 1.184-.192 2.592-.322 3.805-8.558-3.335-21.605-22.217-28.05-46.113 10.528 6.292 22.725 11.08 35.94 14.187-6.241 10.227-7.042 20.994-7.568 28.121zm105.017-12.754c-5.872 9.592-11.608 14.849-15.637 16.503-.128-1.201-.229-2.583-.315-3.749-.526-7.113-1.329-17.889-7.571-28.121 13.221-3.108 25.424-7.899 35.956-14.195-2.846 10.624-7.141 20.919-12.433 29.562zm6.25-43.335c-17.711 11.069-41.411 17.166-66.735 17.166s-49.024-6.096-66.735-17.166c-16.614-10.384-25.765-23.821-25.765-37.834s9.15-27.45 25.765-37.834c17.711-11.07 41.411-17.166 66.735-17.166s49.024 6.096 66.735 17.166c16.614 10.384 25.765 23.82 25.765 37.834s-9.15 27.45-25.765 37.834zm75.133-72.841c-11.84-8.021-26.25-9.579-39.531-4.276l-9.422 3.762c-2.642-2.94-5.625-5.76-8.94-8.439 2.698-5.361 4.193-10.951 4.458-16.69l4.633-1.851c8.006-3.197 16.424-4.818 25.02-4.818 13.517 0 26.589 4.016 37.805 11.614 18.541 12.561 29.61 33.429 29.61 55.824v21.127c-4.546-.821-9.375-1.246-14.5-1.246-3.593 0-7.103.362-10.5 1.04v-20.922c-.001-14.3-6.792-27.103-18.633-35.125zm-2.7 175.008c-.693.938-1.515 2.052-2.261 2.998-3.329-4.723-5.572-16.188-3.846-31.789 5.751 5.819 12.845 10.359 20.863 13.06-6.822 4.999-11.378 11.156-14.756 15.731zm68.203-.953c-5.509 11.638-11.443 18.161-15.665 20.247-.185-1.185-.354-2.546-.495-3.695-1.438-11.601-4.116-33.193-30.257-44.778-.296-.131-.6-.243-.91-.334-16.24-4.808-27.582-20.001-27.582-36.949 0-21.25 17.288-38.538 38.538-38.538 39.389 0 47.656 29.209 47.656 53.712 0 16.59-4.218 35.407-11.285 50.335z"/></g></svg>