<svg id="Capa_1" enable-background="new 0 0 512 512" height="512" viewBox="0 0 512 512" width="512" xmlns="http://www.w3.org/2000/svg"><g><g><path d="m471.322 484.5v-90.985c0-36.905-29.917-66.822-66.822-66.822-36.905 0-66.822 29.917-66.822 66.822v90.985c0 11.046 8.954 20 20 20h93.644c11.046 0 20-8.954 20-20z" fill="#04a563"/></g><g><path d="m27.5 266.693h377v126.557h-330.843c-25.492 0-46.157-20.665-46.157-46.157z" fill="#fff18f"/></g><g><path d="m127.5 347.093v-80.4h-100v80.4c0 25.492 20.665 46.157 46.157 46.157h100c-25.492 0-46.157-20.665-46.157-46.157z" fill="#ffde83"/></g><g><path d="m206 88c-98.583 0-178.5 79.917-178.5 178.5v.193h357v-.193c0-98.583-79.917-178.5-178.5-178.5z" fill="#c8866a"/></g><g><path d="m256 95.109c-15.866-4.621-32.642-7.109-50-7.109-98.583 0-178.5 79.917-178.5 178.5v.193h100v-.193c0-81.225 54.256-149.768 128.5-171.391z" fill="#b77158"/></g><g><path d="m384.5 286.693h-357c-11.046 0-20-8.954-20-20 0-11.046 8.954-20 20-20h357c11.046 0 20 8.954 20 20 0 11.046-8.954 20-20 20z" fill="#db9e82"/></g><g><path d="m107.5 266.693c0-11.046 8.954-20 20-20h-100c-11.046 0-20 8.954-20 20 0 11.046 8.954 20 20 20h100c-11.046 0-20-8.954-20-20z" fill="#c8866a"/></g><g><path d="m337.678 107.5v219.193c0 36.905 29.917 66.822 66.822 66.822 36.905 0 66.822-29.917 66.822-66.822v-219.193z" fill="#00c272"/></g><g><path d="m404.5 283.515c-36.905 0-66.822-29.917-66.822-66.822v110c0 36.905 29.917 66.822 66.822 66.822 36.905 0 66.822-29.917 66.822-66.822v-110c0 36.905-29.917 66.822-66.822 66.822z" fill="#00b472"/></g><g><path d="m207.302 484.5v-90.985c0-36.905-29.917-66.822-66.822-66.822-36.905 0-66.822 29.917-66.822 66.822v90.985c0 11.046 8.954 20 20 20h93.644c11.045 0 20-8.954 20-20z" fill="#44cf79"/></g><g><path d="m404.5 484.5v-90.985c0-36.905-29.917-66.822-66.822-66.822-36.905 0-66.822 29.917-66.822 66.822v90.985c0 11.046 8.954 20 20 20h93.644c11.046 0 20-8.954 20-20z" fill="#44cf79"/></g><g><path d="m118.205 393.515c0-29.093 18.598-53.83 44.548-63.005-6.969-2.464-14.462-3.817-22.274-3.817-36.905 0-66.822 29.917-66.822 66.822v90.985c0 11.046 8.954 20 20 20h24.548z" fill="#00c272"/></g><g><path d="m315.404 393.515c0-29.093 18.598-53.83 44.548-63.005-6.969-2.464-14.462-3.817-22.274-3.817-36.905 0-66.822 29.917-66.822 66.822v90.985c0 11.046 8.954 20 20 20h24.548z" fill="#00c272"/></g><g><circle cx="404.5" cy="107.5" fill="#44cf79" r="100"/></g><g><path d="m185.028 464.5c-12.302 0-32.247 0-44.548 0-12.302 0-22.274 9.972-22.274 22.274v17.726h44.548 24.548c10.74 0 19.477-8.472 19.954-19.093-.707-11.665-10.386-20.907-22.228-20.907z" fill="#00c272"/></g><g><path d="m382.226 464.5c-12.302 0-32.247 0-44.548 0s-22.274 9.972-22.274 22.274v17.726h44.548 24.548c10.74 0 19.477-8.472 19.954-19.093-.707-11.665-10.386-20.907-22.228-20.907z" fill="#00c272"/></g><g><path d="m342.052 83.194c-4.143 0-7.5 3.357-7.5 7.5v12c0 4.143 3.357 7.5 7.5 7.5s7.5-3.357 7.5-7.5v-12c0-4.142-3.358-7.5-7.5-7.5z"/><path d="m466.948 83.194c-4.143 0-7.5 3.357-7.5 7.5v12c0 4.143 3.357 7.5 7.5 7.5s7.5-3.357 7.5-7.5v-12c0-4.142-3.357-7.5-7.5-7.5z"/><path d="m433.593 102.35c-4.143 0-7.5 3.357-7.5 7.5 0 3.836-3.12 6.956-6.955 6.956s-6.955-3.12-6.955-6.956c0-4.143-3.357-7.5-7.5-7.5s-7.5 3.357-7.5 7.5c0 3.836-3.12 6.956-6.956 6.956-3.835 0-6.955-3.12-6.955-6.956 0-4.143-3.357-7.5-7.5-7.5s-7.5 3.357-7.5 7.5c0 12.106 9.849 21.956 21.955 21.956 5.533 0 10.59-2.062 14.456-5.451 3.865 3.39 8.922 5.451 14.455 5.451 12.106 0 21.955-9.85 21.955-21.956 0-4.143-3.358-7.5-7.5-7.5z"/></g><path d="m512 107.5c0-59.275-48.225-107.5-107.5-107.5-58.198 0-105.739 46.489-107.448 104.282-27.715-15.59-58.941-23.782-91.052-23.782-43.394 0-85.63 15.265-118.927 42.981-3.184 2.65-3.616 7.38-.966 10.563 1.483 1.782 3.618 2.702 5.768 2.702 1.691 0 3.393-.569 4.794-1.735 30.608-25.48 69.436-39.511 109.331-39.511 32.793 0 64.568 9.302 92.035 26.881 3.407 24.496 15.095 46.378 32.143 62.714v54.098h-293.007c4.953-30.9 18.265-59.709 38.737-83.683 2.69-3.149 2.317-7.884-.833-10.573-3.149-2.69-7.883-2.317-10.574.833-22.921 26.839-37.588 59.256-42.588 93.994-12.493 2.589-21.913 13.68-21.913 26.929 0 12.563 8.472 23.178 20 26.452v53.948c0 27.155 19.865 49.505 46.157 53.137v84.27c0 15.163 12.336 27.5 27.5 27.5h93.645c15.164 0 27.5-12.337 27.5-27.5v-83.75h48.554v83.75c0 15.163 12.337 27.5 27.5 27.5h93.644 66.822c15.163 0 27.5-12.337 27.5-27.5v-90.984c0-11.601-2.739-23.111-7.923-33.408 5.17-10.253 7.923-21.638 7.923-33.414v-141.599c20.435-19.58 33.178-47.127 33.178-77.595zm-200 0c0-51.005 41.495-92.5 92.5-92.5s92.5 41.495 92.5 92.5-41.495 92.5-92.5 92.5-92.5-41.495-92.5-92.5zm-297 159.193c0-6.893 5.607-12.5 12.5-12.5h302.678v25h-302.678c-6.893 0-12.5-5.607-12.5-12.5zm20 80.4v-52.899h295.178v25.378c-34.917 3.515-62.777 31.298-66.415 66.179h-49.368c-3.896-37.345-35.556-66.557-73.915-66.557-38.142 0-69.65 28.885-73.835 65.927-18.138-3.279-31.645-19.02-31.645-38.028zm46.157 137.407v-90.984c0-32.71 26.612-59.322 59.322-59.322s59.322 26.612 59.322 59.322v14.581h-59.322c-4.142 0-7.5 3.357-7.5 7.5s3.358 7.5 7.5 7.5h59.322v37.839c-4.366-2.505-9.415-3.936-14.774-3.936h-44.548c-16.417 0-29.774 13.356-29.774 29.774v10.226h-17.048c-6.892 0-12.5-5.607-12.5-12.5zm106.145 12.5h-61.597v-10.226c0-8.146 6.628-14.774 14.774-14.774h44.548c7.718 0 14.133 5.97 14.717 13.632-.574 6.363-5.932 11.368-12.442 11.368zm197.198 0h-61.597v-10.226c0-8.146 6.628-14.774 14.774-14.774h44.548c7.718 0 14.133 5.97 14.717 13.632-.574 6.363-5.931 11.368-12.442 11.368zm79.322-103.484v90.984c0 6.893-5.607 12.5-12.5 12.5h-42.34c1.924-3.753 3.018-8 3.018-12.5v-83.878c17.447-1.746 33.606-9.529 45.917-22.253 1.029-1.063 2.009-2.16 2.967-3.273 1.927 5.92 2.938 12.15 2.938 18.42zm0-66.823c0 30.443-22.577 55.41-52.245 58.893-1.192-11.178-4.894-21.938-10.886-31.496-2.2-3.51-6.828-4.57-10.338-2.371-3.51 2.2-4.571 6.828-2.371 10.338 5.899 9.411 9.018 20.289 9.018 31.459v14.581h-59.322c-4.143 0-7.5 3.357-7.5 7.5s3.357 7.5 7.5 7.5h59.322v37.839c-4.366-2.505-9.415-3.936-14.774-3.936h-44.548c-16.418 0-29.774 13.356-29.774 29.774v10.226h-17.048c-6.893 0-12.5-5.607-12.5-12.5v-90.984c0-32.71 26.612-59.322 59.322-59.322 11.169 0 22.047 3.118 31.457 9.017 3.51 2.2 8.138 1.14 10.338-2.371 2.2-3.51 1.139-8.138-2.371-10.338-9.68-6.068-20.592-9.784-31.924-10.926v-122.473c17.013 11.302 37.411 17.897 59.322 17.897s42.309-6.595 59.322-17.897z"/></g></svg>