<svg id="Capa_1" enable-background="new 0 0 511.989 511.989" height="512" viewBox="0 0 511.989 511.989" width="512" xmlns="http://www.w3.org/2000/svg"><g><g><path d="m153.121 332.659 38.148 38.148 278.766-211.391-3.033-93.794-22.528-30.254-10.201-10.726-11.29-11.29c-8.22-8.22-21.819-7.78-29.463 1.319-6.709 7.986-5.827 19.898 1.548 27.273 13.467 13.467 13.467 35.3 0 48.767z" fill="#c1f1ff"/><path d="m272.97 308.853c-5.558-2.416-10.765-5.894-15.31-10.439-19.411-19.411-19.411-50.883 0-70.294l-104.539 104.539 38.148 38.148z" fill="#a4e6ff"/><path d="m462.5 52.871-28.254-28.254c42.678 42.678 38.051 113.166-9.842 149.898l-243.03 186.398 28.254 28.254 243.03-186.398c47.893-36.732 52.521-107.219 9.842-149.898z" fill="#e7faff"/><path d="m317.626 306.336c-18.113 10.452-41.398 8.54-57.616-5.734l-78.635 60.311 28.254 28.254z" fill="#c1f1ff"/><path d="m99.037 343.358h79.914v119.871h-79.914z" fill="#c8866a" transform="matrix(.707 .707 -.707 .707 325.882 19.838)"/><path d="m333.24 343.255-42.381 42.381c-15.604 15.604-40.903 15.604-56.508 0l-77.698-77.698c-31.208-31.208-81.807-31.208-113.015 0-31.208 31.208-31.208 81.807 0 113.015l77.698 77.698c7.802 7.802 20.452 7.802 28.254 0 7.802-7.802 7.802-20.452 0-28.254l-77.698-77.698c-15.604-15.604-15.604-40.903 0-56.508 15.604-15.604 40.903-15.604 56.508 0l77.698 77.698c31.208 31.208 81.807 31.208 113.015 0l42.381-42.381c7.802-7.802 7.802-20.452 0-28.254-7.803-7.802-20.452-7.802-28.254.001z" fill="#fff18f"/><path d="m167.248 318.532-10.595-10.595c-31.208-31.208-81.807-31.208-113.015 0-31.208 31.208-31.208 81.807 0 113.015l77.698 77.698c7.802 7.802 20.452 7.802 28.254 0s7.802-20.452 0-28.254l-77.698-77.698c-15.604-15.604-15.604-40.903 0-56.508 15.604-15.604 40.903-15.604 56.508 0l10.595 10.595c-7.802-7.802-7.802-20.452 0-28.254 7.802-7.801 20.451-7.801 28.253.001z" fill="#ffde83"/></g><path d="m467.804 47.568-39.517-39.518c-5.432-5.431-12.955-8.375-20.626-8.021-7.672.332-14.92 3.911-19.885 9.821-9.064 10.792-8.191 27.22 1.988 37.4 10.521 10.52 10.521 27.639 0 38.159l-222.515 222.517-5.292-5.292c-16.51-16.51-38.461-25.603-61.811-25.603-23.349.001-45.301 9.094-61.811 25.604-16.51 16.511-25.603 38.462-25.603 61.812 0 23.349 9.093 45.3 25.603 61.811l19.462 19.463c2.928 2.928 7.677 2.928 10.606 0 2.929-2.93 2.929-7.678 0-10.607l-19.462-19.463c-13.677-13.677-21.209-31.861-21.209-51.204 0-19.342 7.532-37.527 21.209-51.204 28.233-28.234 74.173-28.235 102.409 0l77.698 77.697c8.963 8.964 20.881 13.9 33.557 13.9s24.594-4.937 33.558-13.899l42.381-42.381c4.863-4.866 12.779-4.865 17.646-.001 4.865 4.866 4.865 12.783 0 17.647l-42.381 42.381c-13.677 13.678-31.862 21.21-51.204 21.21s-37.527-7.532-51.205-21.21l-77.698-77.698c-18.503-18.502-48.611-18.502-67.114 0-8.964 8.964-13.9 20.882-13.9 33.558 0 12.677 4.936 24.595 13.9 33.558l77.698 77.698c2.357 2.356 3.655 5.49 3.655 8.823s-1.298 6.467-3.655 8.823c-4.865 4.865-12.782 4.865-17.647 0l-37.786-37.786c-2.929-2.928-7.678-2.928-10.606 0-2.929 2.93-2.929 7.678 0 10.607l37.786 37.786c5.357 5.357 12.393 8.035 19.43 8.035 7.036 0 14.073-2.68 19.43-8.035 5.19-5.19 8.048-12.091 8.048-19.431s-2.858-14.24-8.048-19.431l-5.291-5.292 45.901-45.901 5.292 5.292c16.51 16.51 38.462 25.603 61.811 25.603s45.301-9.093 61.812-25.603l42.381-42.381c10.713-10.714 10.713-28.146-.001-38.861-10.716-10.713-28.146-10.713-38.86 0l-42.381 42.381c-6.13 6.131-14.281 9.507-22.95 9.507-8.67 0-16.82-3.376-22.951-9.507l-2.683-2.683 220.252-168.927c24.541-18.822 39.777-47.317 41.804-78.18 2.024-30.862-9.357-61.104-31.225-82.974zm-390.609 293.926c12.654-12.654 33.246-12.656 45.901 0l5.292 5.292-45.901 45.901-5.292-5.292c-6.13-6.13-9.506-14.28-9.506-22.95 0-8.669 3.376-16.821 9.506-22.951zm90.053 79.447-22.951-22.951c-2.929-2.928-7.678-2.928-10.606 0-2.929 2.93-2.929 7.678 0 10.607l22.95 22.95-17.647 17.647-45.901-45.901 45.901-45.901 45.901 45.901zm316.811-291.382c-1.743 26.551-14.852 51.066-35.965 67.26l-221.821 170.13-17.555-17.555 167.769-128.674c3.287-2.521 3.907-7.229 1.387-10.516-2.52-3.286-7.228-3.907-10.516-1.387l-169.339 129.879-20.164-20.164 222.517-222.516c7.929-7.93 12.296-18.473 12.296-29.687-.001-11.214-4.368-21.757-12.297-29.686-4.727-4.728-5.214-12.26-1.109-17.146 2.301-2.737 5.515-4.33 9.049-4.483 3.538-.148 6.866 1.14 9.369 3.644l11.264 11.264c18.815 18.814 28.606 44.834 26.862 71.385-1.743 26.551-14.852 51.065-35.965 67.259l-28.471 21.836c-3.287 2.521-3.907 7.229-1.387 10.516 1.477 1.926 3.704 2.936 5.957 2.936 1.592 0 3.197-.505 4.559-1.549l28.471-21.836c24.541-18.822 39.777-47.317 41.804-78.179.68-10.35-.156-20.628-2.382-30.547 11.404 16.861 17.022 37.177 15.667 57.816z"/></g></svg>