<svg id="Capa_1" enable-background="new 0 0 512 512" height="512" viewBox="0 0 512 512" width="512" xmlns="http://www.w3.org/2000/svg"><g><g><path d="m481.084 14.333-22.764 45.528c-8.47 16.939-25.783 27.639-44.722 27.639h-315.196c-18.939 0-36.252-10.7-44.721-27.639l-22.765-45.528c-2.093-4.188-6.373-6.833-11.055-6.833-6.827 0-12.361 5.534-12.361 12.361v47.639c0 55.228 44.772 100 100 100h297c55.228 0 100-44.772 100-100v-47.639c0-6.827-5.534-12.361-12.361-12.361-4.682 0-8.962 2.645-11.055 6.833z" fill="#c8866a"/></g><g><path d="m404.5 167.5c30.875 0 58.478-13.996 76.822-35.985-13.136 12.931-34.264 12.873-47.322-.185-13.121-13.121-13.121-34.395 0-47.516.458-.458.929-.894 1.406-1.32-6.677 3.237-14.108 5.006-21.807 5.006h-315.197c-7.699 0-15.13-1.769-21.807-5.006.477.426.948.862 1.406 1.32 13.121 13.121 13.121 34.395 0 47.516-13.058 13.058-34.186 13.116-47.322.185 18.343 21.989 45.946 35.985 76.821 35.985z" fill="#b77158"/></g><g><path d="m406 167.5h-18.962c-7.694-65.549-63.422-116.409-131.038-116.409s-123.344 50.86-131.038 116.408h-18.962c-27.614 0-50 22.386-50 50 0 24.185 17.171 44.36 39.987 48.997 5.447 1.107 11.043-.421 15.497-3.746 19.627-14.657 47.569-13.032 65.352 4.875 18.831 18.962 19.304 49.895 1.028 69.393-6.445 6.876-14.337 11.511-22.733 13.908-10.82 3.088-16.756 14.729-13.231 25.415l37.741 114.423c2.704 8.197 10.362 13.735 18.994 13.735h57.365 57.365c8.632 0 16.29-5.538 18.993-13.735l37.742-114.422c3.525-10.686-2.411-22.327-13.231-25.415-8.396-2.396-16.287-7.032-22.732-13.907-18.276-19.498-17.804-50.43 1.027-69.393 17.783-17.908 45.726-19.533 65.353-4.876 4.454 3.326 10.05 4.854 15.497 3.746 22.815-4.638 39.986-24.812 39.986-48.997 0-27.614-22.386-50-50-50z" fill="#fff1ce"/></g><g><g><path d="m352.545 349.473c-13.212 2.973-26.954 4.546-41.064 4.546-45.993 0-88.088-16.656-120.608-44.253-1.444 10.406-6.161 20.444-14.162 28.445-6.214 6.214-13.656 10.449-21.546 12.707-10.831 3.1-16.795 14.722-13.266 25.421l37.742 114.426c2.704 8.197 10.362 13.735 18.994 13.735h57.365 57.365c8.632 0 16.29-5.538 18.993-13.735l37.743-114.429c3.564-10.806-2.621-22.306-13.542-25.5-1.353-.396-2.692-.85-4.014-1.363z" fill="#ffe1bd"/></g><g><path d="m145.704 253.052c-13.252-25.626-20.742-54.713-20.742-85.552h-18.962c-27.614 0-50 22.386-50 50 0 23.875 16.734 43.842 39.114 48.811 5.77 1.281 11.756-.139 16.503-3.659 10.028-7.434 22.207-10.631 34.087-9.6z" fill="#ffe1bd"/></g></g><g><g><path d="m256 444.871c-11.046 0-20-8.954-20-20v-80c0-11.046 8.954-20 20-20 11.046 0 20 8.954 20 20v80c0 11.046-8.954 20-20 20z" fill="#ffcb97"/></g></g><g><path d="m492.14 0c-7.571 0-14.378 4.207-17.764 10.979l-22.765 45.527c-7.246 14.492-21.811 23.494-38.012 23.494h-63.099c-.159 0-.315.014-.472.024-25.371-23.22-58.655-36.432-94.028-36.432-35.991 0-69.081 13.706-93.991 36.408h-63.608c-16.201 0-30.766-9.002-38.012-23.494l-22.765-45.527c-3.386-6.772-10.192-10.979-17.764-10.979-10.951 0-19.86 8.909-19.86 19.86v47.64c0 47.622 31.13 88.104 74.107 102.183-15.427 10.324-25.607 27.901-25.607 47.817 0 27.232 19.343 50.93 45.993 56.347 7.326 1.487 15.153-.363 21.479-5.087 16.835-12.568 40.712-10.784 55.542 4.151 15.931 16.042 16.325 42.5.879 58.979-5.283 5.636-11.964 9.725-19.319 11.824-7.129 2.035-12.979 6.789-16.474 13.388-3.502 6.612-4.166 14.48-1.821 21.589l9.606 29.123c1.04 3.153 3.972 5.152 7.121 5.152.778 0 1.57-.122 2.351-.38 3.934-1.297 6.07-5.538 4.772-9.472l-9.605-29.123c-1.088-3.297-.793-6.803.832-9.869 1.565-2.956 4.17-5.081 7.335-5.984 9.966-2.845 19.007-8.374 26.146-15.99 20.903-22.302 20.375-58.104-1.178-79.808-20.065-20.206-52.378-22.613-75.16-5.6-2.905 2.168-6.374 3.045-9.517 2.406-19.691-4-33.982-21.516-33.982-41.646 0-23.435 19.065-42.5 42.5-42.5h18.962c3.804 0 7.006-2.848 7.449-6.626 7.347-62.586 60.479-109.782 123.589-109.782 19.262 0 37.826 4.401 54.521 12.53l-37.918 37.918c-8.026 8.027-18.699 12.448-30.052 12.448h-11.028c-15.392 0-27.913 12.521-27.913 27.913v55.021c0 4.143 3.357 7.5 7.5 7.5s7.5-3.357 7.5-7.5v-55.022c0-7.12 5.793-12.913 12.913-12.913h11.028c15.359 0 29.799-5.981 40.659-16.841l12.061-12.061 14.969 14.969c3.82 3.819 4.867 9.08 2.8 14.071-2.068 4.991-6.528 7.972-11.931 7.972-4.143 0-7.5 3.357-7.5 7.5s3.357 7.5 7.5 7.5c11.504 0 21.386-6.603 25.788-17.231s2.084-22.284-6.051-30.419l-14.969-14.968 18.178-18.178c14.416 9.425 26.945 21.897 36.628 36.924 2.245 3.482 6.886 4.485 10.367 2.242 3.481-2.244 4.485-6.886 2.242-10.367-2.837-4.402-5.903-8.597-9.156-12.6h49.46c21.92 0 41.626-12.18 51.429-31.785l22.765-45.527c.829-1.658 2.495-2.688 4.348-2.688 2.68 0 4.86 2.181 4.86 4.86v47.64c0 51.005-41.495 92.5-92.5 92.5h-10.954c-1.169-7.021-2.878-13.955-5.1-20.688-1.299-3.935-5.542-6.072-9.473-4.771-3.934 1.298-6.069 5.539-4.771 9.473 2.603 7.885 4.415 16.081 5.387 24.361.444 3.777 3.646 6.625 7.449 6.625h18.964c23.435 0 42.5 19.065 42.5 42.5 0 20.13-14.291 37.646-33.981 41.647-3.141.64-6.611-.237-9.516-2.405-22.782-17.015-55.096-14.607-75.162 5.6-21.553 21.704-22.08 57.505-1.177 79.807 7.139 7.616 16.18 13.146 26.146 15.99 3.165.903 5.77 3.028 7.335 5.984 1.625 3.066 1.92 6.572.832 9.869l-37.74 114.423c-1.694 5.135-6.465 8.585-11.871 8.585h-114.73c-5.406 0-10.177-3.45-11.871-8.585l-18.52-56.146c-1.297-3.933-5.533-6.073-9.472-4.772-3.934 1.297-6.07 5.538-4.772 9.472l18.52 56.146c3.724 11.295 14.219 18.885 26.114 18.885h114.73c11.895 0 22.39-7.59 26.115-18.886l37.742-114.423c2.344-7.108 1.68-14.977-1.822-21.589-3.494-6.599-9.345-11.353-16.474-13.388-7.356-2.1-14.036-6.188-19.318-11.824-15.446-16.479-15.054-42.938.877-58.979 14.831-14.938 38.711-16.721 55.544-4.15 6.324 4.722 14.154 6.576 21.478 5.086 26.65-5.417 45.993-29.114 45.993-56.347 0-19.916-10.18-37.493-25.607-47.817 42.977-14.079 74.107-54.561 74.107-102.183v-47.64c0-10.951-8.909-19.86-19.86-19.86zm-373.689 160h-10.951c-51.005 0-92.5-41.495-92.5-92.5v-47.64c0-2.68 2.181-4.86 4.86-4.86 1.853 0 3.519 1.029 4.348 2.688l22.765 45.527c9.802 19.605 29.508 31.785 51.428 31.785h49.413c-14.902 18.281-25.294 40.478-29.363 65z"/><path d="m283.5 424.871v-80c0-15.163-12.337-27.5-27.5-27.5s-27.5 12.337-27.5 27.5v80c0 15.163 12.337 27.5 27.5 27.5s27.5-12.337 27.5-27.5zm-40 0v-80c0-6.893 5.607-12.5 12.5-12.5s12.5 5.607 12.5 12.5v80c0 6.893-5.607 12.5-12.5 12.5s-12.5-5.607-12.5-12.5z"/></g></g></svg>