<svg id="Capa_1" enable-background="new 0 0 512 512" height="512" viewBox="0 0 512 512" width="512" xmlns="http://www.w3.org/2000/svg"><g><g><path d="m226 107.916h60v376.168h-60z" fill="#3b4456"/></g><g><path d="m256 331.642c-16.569 0-30-13.431-30-30v182.442h60v-182.442c0 16.569-13.431 30-30 30z" fill="#2d3747"/></g><g><path d="m141 239.972h230v40h-230z" fill="#c8866a"/></g><g><path d="m206 259.972c0-11.046 8.954-20 20-20h-85v40h85c-11.046 0-20-8.954-20-20z" fill="#b77158"/></g><g><path d="m90 352.028h332v40h-332z" fill="#c8866a"/></g><g><path d="m206 372.028c0-11.046 8.954-20 20-20h-136v40h136c-11.046 0-20-8.954-20-20z" fill="#b77158"/></g><g><path d="m321 87.916h-130v-60c0-11.046 8.954-20 20-20h90c11.046 0 20 8.954 20 20z" fill="#3b4456"/></g><g><path d="m276.333 7.916h-65.333c-11.046 0-20 8.954-20 20v60h65.333v-60c0-11.045 8.955-20 20-20z" fill="#2d3747"/></g><g><path d="m-82.104 273.103h414.963v40h-414.963z" fill="#db9e82" transform="matrix(.383 -.924 .924 .383 -193.395 296.771)"/></g><g><g><path d="m96.583 362.618c-10.205-4.227-15.051-15.926-10.824-26.131l-58.259 140.651 36.955 15.307 58.259-140.65c-4.227 10.204-15.926 15.05-26.131 10.823z" fill="#c8866a"/></g></g><g><path d="m179.141 273.103h414.963v40h-414.963z" fill="#db9e82" transform="matrix(-.383 -.924 .924 -.383 263.785 762.462)"/></g><g><g><path d="m415.417 362.618c10.205-4.227 15.051-15.926 10.824-26.131l58.259 140.65-36.955 15.307-58.259-140.65c4.227 10.205 15.926 15.051 26.131 10.824z" fill="#c8866a"/></g></g><g><path d="m321 167.916h-130c-33.137 0-60-26.863-60-60 0-33.137 26.863-60 60-60h130c33.137 0 60 26.863 60 60 0 33.137-26.863 60-60 60z" fill="#525e77"/></g><g><path d="m196 107.916c0-33.137 26.863-60 60-60h-65c-33.137 0-60 26.863-60 60 0 33.137 26.863 60 60 60h65c-33.137 0-60-26.863-60-60z" fill="#3b4456"/></g><g><path d="m484.5 504.084h-457c-11.046 0-20-8.954-20-20 0-11.046 8.954-20 20-20h457c11.046 0 20 8.954 20 20 0 11.046-8.954 20-20 20z" fill="#fff1ce"/></g><g><path d="m107.5 484.084c0-11.046 8.954-20 20-20h-100c-11.046 0-20 8.954-20 20 0 11.046 8.954 20 20 20h100c-11.046 0-20-8.954-20-20z" fill="#ffe1bd"/></g><g><g><path d="m193.551 117.845c-4.142 0-7.5-3.357-7.5-7.5v-12c0-4.143 3.358-7.5 7.5-7.5s7.5 3.357 7.5 7.5v12c0 4.142-3.358 7.5-7.5 7.5z"/></g><g><path d="m318.449 117.845c-4.142 0-7.5-3.357-7.5-7.5v-12c0-4.143 3.358-7.5 7.5-7.5s7.5 3.357 7.5 7.5v12c0 4.142-3.358 7.5-7.5 7.5z"/></g><g><path d="m256 124.988c-8.478 0-16.54-3.672-22.119-10.073-2.721-3.123-2.396-7.86.727-10.582 3.123-2.721 7.861-2.396 10.582.727 2.729 3.133 6.669 4.929 10.81 4.929s8.081-1.796 10.81-4.929c2.722-3.123 7.458-3.447 10.582-.727 3.123 2.722 3.448 7.459.727 10.582-5.579 6.401-13.641 10.073-22.119 10.073z"/></g></g><path d="m484.5 456.584h-.395l-61.233-147.828c-1.585-3.827-5.973-5.642-9.799-4.059-3.827 1.585-5.644 5.972-4.059 9.799l58.855 142.088h-27.06l-116.499-281.252c8.732-.424 17.026-2.529 24.585-5.975l47.853 115.529c1.196 2.889 3.989 4.632 6.932 4.632.957 0 1.929-.185 2.867-.573 3.827-1.585 5.644-5.972 4.059-9.799l-48.705-117.584c16.151-12.344 26.597-31.794 26.597-53.646 0-34.684-26.298-63.329-60-67.073v-12.927c0-15.163-12.336-27.5-27.5-27.5h-90c-15.164 0-27.5 12.337-27.5 27.5v12.927c-27.782 3.073-51.061 23.016-57.978 50.618-1.007 4.018 1.434 8.092 5.452 9.099 4.015 1.002 8.091-1.434 9.098-5.452 5.856-23.37 26.799-39.691 50.928-39.691h130c28.949 0 52.5 23.552 52.5 52.5s-23.551 52.5-52.5 52.5h-129.998c-23.969 0-44.877-16.187-50.845-39.363-1.033-4.012-5.124-6.427-9.133-5.393-4.011 1.032-6.426 5.122-5.393 9.133 3.886 15.09 12.699 27.869 24.449 36.816l-122.182 294.974h-.396c-15.164 0-27.5 12.336-27.5 27.5s12.336 27.5 27.5 27.5h457c15.164 0 27.5-12.336 27.5-27.5s-12.336-27.5-27.5-27.5zm-273.5-441.168h90c6.893 0 12.5 5.607 12.5 12.5v12.5h-115v-12.5c0-6.893 5.607-12.5 12.5-12.5zm-7.109 160h14.609v57.057h-38.242zm104.218 0 23.634 57.057h-38.243v-57.057zm-29.609 57.057h-45v-57.057h45zm-104.456 15h163.911l10.355 25h-184.621zm104.456 40v57.056h-45v-57.056zm15 0h61.024l23.633 57.056h-84.657zm-136.024 0h61.024v57.056h-84.657zm-29.847 72.055h256.741l10.355 25h-277.451zm-16.568 40h107.439v57.056h-131.072zm122.439 0h45v57.056h-45zm60 0h107.439l23.633 57.056h-131.072zm-130.406-230.146c7.603 3.45 15.917 5.524 24.597 5.946l-116.5 281.256h-27.06zm321.406 327.202h-457c-6.893 0-12.5-5.607-12.5-12.5s5.607-12.5 12.5-12.5h457c6.893 0 12.5 5.607 12.5 12.5s-5.607 12.5-12.5 12.5z"/></g></svg>