<svg id="Capa_1" enable-background="new 0 0 512 512" height="512" viewBox="0 0 512 512" width="512" xmlns="http://www.w3.org/2000/svg"><g><g><path d="m351.888 52.241c-19.297 0-37.317 9.644-48.022 25.7l-16.772 25.156c-6.931 10.396-18.599 16.641-31.094 16.641-12.495 0-24.163-6.244-31.094-16.641l-16.772-25.156c-10.704-16.056-28.725-25.7-48.022-25.7-26.408 0-49.447 17.923-55.943 43.519l-60.515 238.464 182.645 95.834h59.402l182.645-95.834-60.516-238.464c-6.495-25.596-29.534-43.519-55.942-43.519z" fill="#c8866a"/></g><g><g><path d="m249.608 190.729c-49.698 0-86.103-46.797-73.879-94.969 3.21-12.648 10.463-23.417 20.162-31.081-10.057-7.946-22.619-12.438-35.779-12.438-26.408 0-49.447 17.923-55.943 43.519l-60.515 238.464 182.645 95.834h59.402l182.645-95.834-36.415-143.495z" fill="#b77158"/></g></g><g><g><path d="m193.551 175.911c-4.142 0-7.5-3.357-7.5-7.5v-12c0-4.143 3.358-7.5 7.5-7.5s7.5 3.357 7.5 7.5v12c0 4.143-3.358 7.5-7.5 7.5z"/></g><g><path d="m318.449 175.911c-4.142 0-7.5-3.357-7.5-7.5v-12c0-4.143 3.358-7.5 7.5-7.5s7.5 3.357 7.5 7.5v12c0 4.143-3.358 7.5-7.5 7.5z"/></g><g><path d="m256 183.055c-8.477 0-16.539-3.671-22.118-10.072-2.722-3.122-2.397-7.859.726-10.581 3.123-2.723 7.859-2.398 10.582.726 2.73 3.132 6.67 4.928 10.811 4.928s8.081-1.796 10.811-4.928c2.722-3.123 7.46-3.447 10.582-.726 3.123 2.722 3.447 7.459.726 10.581-5.581 6.401-13.643 10.072-22.12 10.072z"/></g></g><g><path d="m65.477 230.729c-9.151 0-17.135 6.211-19.385 15.081l-21.633 85.245h463.083l-21.633-85.245c-2.251-8.87-10.235-15.081-19.386-15.081z" fill="#fff1ce"/></g><g><path d="m155.477 230.729h-90c-9.151 0-17.135 6.211-19.385 15.081l-21.633 85.245h90l21.633-85.245c2.25-8.87 10.234-15.081 19.385-15.081z" fill="#ffe1bd"/></g><g><g><path d="m256 459.759c-66.144 0-101.178-31.705-129.329-57.181-25.82-23.367-46.215-41.823-89.47-41.823-16.403 0-29.701-13.298-29.701-29.701s13.298-29.701 29.701-29.701c66.144 0 101.178 31.705 129.329 57.181 25.82 23.367 46.215 41.823 89.47 41.823s63.65-18.456 89.47-41.823c28.15-25.475 63.185-57.181 129.329-57.181 16.403 0 29.701 13.298 29.701 29.701s-13.298 29.701-29.701 29.701c-43.255 0-63.65 18.456-89.47 41.823-28.151 25.476-63.185 57.181-129.329 57.181z" fill="#db9e82"/></g></g><g><path d="m256 400.357c-43.255 0-63.65-18.456-89.47-41.823-28.15-25.475-63.185-57.181-129.329-57.181-16.403 0-29.701 13.298-29.701 29.701s13.298 29.701 29.701 29.701c43.255 0 63.65 18.456 89.47 41.823 28.15 25.475 63.185 57.181 129.329 57.181-16.404 0-29.701-13.298-29.701-29.701s13.297-29.701 29.701-29.701z" fill="#c8866a"/></g><g><circle cx="256" cy="280.891" fill="#ffe1bd" r="75"/></g><g><path d="m286 325.891c-41.421 0-75-33.579-75-75 0-12.996 3.308-25.218 9.125-35.875-23.31 12.721-39.125 37.45-39.125 65.875 0 41.421 33.579 75 75 75 28.425 0 53.154-15.815 65.876-39.125-10.658 5.817-22.88 9.125-35.876 9.125z" fill="#ffd3a3"/></g><path d="m486.303 295.682-13.124-51.717c-2.982-11.75-13.251-20.067-25.247-20.677l-32.832-129.373c-7.348-28.953-33.341-49.174-63.212-49.174-21.854 0-42.139 10.855-54.262 29.039l-16.772 25.156c-5.553 8.328-14.844 13.301-24.854 13.301s-19.301-4.973-24.854-13.301l-16.772-25.156c-12.123-18.184-32.407-29.039-54.262-29.039-29.871 0-55.864 20.221-63.212 49.174l-32.831 129.373c-11.995.611-22.265 8.927-25.247 20.677l-13.124 51.717c-14.899 4.857-25.698 18.873-25.698 35.372 0 20.513 16.688 37.201 37.201 37.201 40.367 0 58.853 16.729 84.438 39.884 29.104 26.34 65.327 59.12 134.361 59.12s105.256-32.78 134.361-59.12c25.585-23.154 44.071-39.884 84.438-39.884 20.513 0 37.201-16.688 37.201-37.201 0-16.499-10.799-30.515-25.697-35.372zm-27.664-48.028 11.741 46.264c-41.551.861-70.933 13.762-94.091 29.635h-49.701c7.556-12.456 11.912-27.06 11.912-42.662 0-15.603-4.356-30.207-11.913-42.663h119.936c5.726.001 10.708 3.876 12.116 9.426zm-202.639-34.262c37.22 0 67.5 30.28 67.5 67.5s-30.28 67.5-67.5 67.5-67.5-30.28-67.5-67.5 30.28-67.5 67.5-67.5zm0 150c23.066 0 43.94-9.527 58.926-24.838h41.839c-5.76 4.863-11.159 9.742-16.327 14.419-25.585 23.154-44.071 39.884-84.438 39.884s-58.853-16.729-84.44-39.887c-5.167-4.676-10.565-9.554-16.324-14.416h41.839c14.985 15.311 35.859 24.838 58.925 24.838zm-144.561-265.788c5.658-22.293 25.672-37.863 48.673-37.863 16.828 0 32.447 8.358 41.781 22.359l16.772 25.156c8.341 12.511 22.298 19.98 37.334 19.98s28.994-7.47 37.334-19.98l16.772-25.156c9.334-14.001 24.954-22.359 41.781-22.359 23 0 43.016 15.57 48.673 37.863l31.88 125.624h-117.514c-14.986-15.311-35.859-24.837-58.925-24.837s-43.939 9.526-58.925 24.837h-117.516zm-58.078 150.05c1.408-5.55 6.391-9.426 12.116-9.426h119.936c-7.557 12.456-11.913 27.06-11.913 42.663s4.356 30.206 11.912 42.662h-49.701c-23.157-15.873-52.539-28.774-94.091-29.635zm421.438 105.601c-46.146 0-68.555 20.28-94.503 43.763-27.195 24.611-61.042 55.241-124.296 55.241s-97.101-30.63-124.296-55.241c-25.948-23.482-48.356-43.763-94.503-43.763-12.242 0-22.201-9.959-22.201-22.201s9.959-22.201 22.201-22.201c63.252 0 97.098 30.629 124.296 55.241 25.948 23.482 48.356 43.763 94.503 43.763s68.555-20.28 94.505-43.765c27.196-24.61 61.042-55.239 124.293-55.239 12.242 0 22.201 9.959 22.201 22.201s-9.958 22.201-22.2 22.201z"/></g></svg>