<svg id="Capa_1" enable-background="new 0 0 512 512" height="512" viewBox="0 0 512 512" width="512" xmlns="http://www.w3.org/2000/svg"><g><g><path d="m396 207.5c33.137 0 60-26.863 60-60v-119.521c0-10.845-8.433-20.081-19.271-20.466-11.378-.405-20.729 8.699-20.729 19.987v119.521c0 10.845-8.433 20.081-19.271 20.466-11.378.405-20.729-8.699-20.729-19.987v-39.521c0-10.845-8.433-20.081-19.271-20.466-11.378-.405-20.729 8.699-20.729 19.987v40c0 11.046-8.954 20-20 20h-120c-11.046 0-20-8.954-20-20v-39.521c0-10.845-8.433-20.081-19.271-20.466-11.378-.405-20.729 8.699-20.729 19.987v69.521c0 10.845-8.433 20.081-19.271 20.466-11.378.405-20.729-8.699-20.729-19.987v-149.521c0-10.845-8.433-20.081-19.271-20.466-11.378-.405-20.729 8.699-20.729 19.987v150c0 33.137 26.863 60 60 60 10.955 0 20.042 8.812 20 19.767-.126 33.244 26.785 60.233 60 60.233h60v-40h-60c-11.046 0-20-8.954-20-20v-30c0-11.046 8.954-20 20-20h120c11.046 0 20 8.954 20 20v80c0 11.046-8.954 20-20 20h-60v40h140c33.137 0 60-26.863 60-60v-39.521c0-10.845-8.433-20.081-19.271-20.466-11.378-.405-20.729 8.699-20.729 19.987v39.521c0 10.845-8.433 20.081-19.271 20.466-11.378.405-20.729-8.699-20.729-19.987v-80c0-11.046 8.954-20 20-20z" fill="#c8866a"/></g><g><path d="m436.729 247.513c-11.378-.405-20.729 8.699-20.729 19.987v39.521c0 10.844-8.433 20.081-19.271 20.466-11.378.405-20.729-8.699-20.729-19.987v-50.233c0 11.046-8.954 20-20 20s-20-8.954-20-20v50.233c0 11.046-8.954 20-20 20h-60v40h140c33.137 0 60-26.863 60-60v-39.521c0-10.844-8.433-20.081-19.271-20.466z" fill="#b77158"/></g><g><path d="m196 317.5h60v-40h-60c-11.046 0-20-8.954-20-20v-.224c-.005 11.042-8.957 19.991-20 19.991-11.046 0-20-8.954-20-20-.126 33.244 26.785 60.233 60 60.233z" fill="#b77158"/></g><g><path d="m296 484.5h-80l19.162-457.018c.468-11.168 9.659-19.982 20.838-19.982 11.179 0 20.37 8.814 20.838 19.982z" fill="#db9e82"/></g><g><path d="m296 484.5-7.002-167c0 18.224-14.774 32.997-32.998 32.997s-32.998-14.773-32.998-32.997l-7.002 167z" fill="#c8866a"/></g><g><path d="m484.5 504.5h-457c-11.046 0-20-8.954-20-20 0-11.046 8.954-20 20-20h457c11.046 0 20 8.954 20 20 0 11.046-8.954 20-20 20z" fill="#fff1ce"/></g><g><path d="m107.5 484.5c0-11.046 8.954-20 20-20h-100c-11.046 0-20 8.954-20 20 0 11.046 8.954 20 20 20h100c-11.046 0-20-8.954-20-20z" fill="#ffe1bd"/></g><path d="m484.5 457h-182.146l-3.438-82h97.084c37.22 0 67.5-30.28 67.5-67.5v-39.521c0-15.15-11.642-27.433-26.504-27.962-7.54-.266-14.673 2.464-20.091 7.693-5.419 5.23-8.404 12.258-8.404 19.789v39.521c0 6.916-5.4 12.735-12.037 12.972-3.431.12-6.68-1.12-9.142-3.496-2.464-2.378-3.821-5.573-3.821-8.996v-80c0-6.893 5.607-12.5 12.5-12.5 37.22 0 67.5-30.28 67.5-67.5v-119.521c0-15.15-11.642-27.433-26.504-27.962-7.54-.256-14.673 2.465-20.091 7.693-5.419 5.23-8.404 12.258-8.404 19.789v119.521c0 6.916-5.4 12.735-12.037 12.972-3.431.113-6.68-1.12-9.142-3.496-2.464-2.378-3.821-5.573-3.821-8.996v-39.521c0-15.15-11.642-27.433-26.504-27.962-7.536-.259-14.673 2.465-20.091 7.693-5.419 5.23-8.404 12.258-8.404 19.789v40c0 6.893-5.607 12.5-12.5 12.5h-26.099l-5.569-132.832c-.643-15.233-13.087-27.167-28.335-27.167s-27.692 11.934-28.331 27.168l-5.57 132.832h-26.099c-6.893 0-12.5-5.607-12.5-12.5v-39.521c0-15.15-11.642-27.433-26.504-27.962-7.54-.259-14.673 2.465-20.091 7.693-5.419 5.23-8.404 12.258-8.404 19.789v69.521c0 6.916-5.4 12.735-12.037 12.972-3.432.109-6.68-1.119-9.142-3.496-2.464-2.378-3.821-5.573-3.821-8.996v-28.667c0-4.143-3.358-7.5-7.5-7.5s-7.5 3.357-7.5 7.5v28.667c0 7.531 2.985 14.559 8.404 19.789 5.175 4.995 11.917 7.712 19.081 7.712.336 0 .673-.007 1.011-.019 14.862-.529 26.504-12.812 26.504-27.962v-69.52c0-3.423 1.357-6.618 3.821-8.996 2.462-2.376 5.699-3.62 9.142-3.496 6.637.236 12.037 6.056 12.037 12.972v39.52c0 15.163 12.336 27.5 27.5 27.5h25.47l-1.048 25h-24.423c-15.164 0-27.5 12.337-27.5 27.5v30c0 15.163 12.336 27.5 27.5 27.5h20.858l-1.048 25h-19.81c-14.061 0-27.27-5.486-37.194-15.447-9.923-9.961-15.359-23.192-15.306-37.257.027-7.209-2.782-14.015-7.911-19.162-5.224-5.245-12.181-8.134-19.589-8.134-28.949 0-52.5-23.552-52.5-52.5v-150c0-3.423 1.357-6.618 3.821-8.996 2.462-2.376 5.71-3.59 9.142-3.496 6.637.236 12.037 6.055 12.037 12.971v90.855c0 4.143 3.358 7.5 7.5 7.5s7.5-3.357 7.5-7.5v-90.855c0-15.15-11.642-27.433-26.504-27.962-7.536-.256-14.673 2.465-20.091 7.693-5.42 5.231-8.405 12.259-8.405 19.79v150c0 37.22 30.28 67.5 67.5 67.5 3.39 0 6.573 1.321 8.963 3.72 2.293 2.302 3.549 5.328 3.537 8.52-.068 18.081 6.92 35.093 19.679 47.899 12.759 12.807 29.742 19.861 47.821 19.861h19.181l-5.535 132h-182.146c-15.164 0-27.5 12.336-27.5 27.5s12.336 27.5 27.5 27.5h457c15.164 0 27.5-12.336 27.5-27.5s-12.336-27.5-27.5-27.5zm-168.5-282c15.164 0 27.5-12.337 27.5-27.5v-40c0-3.423 1.357-6.618 3.821-8.996 2.462-2.376 5.7-3.62 9.142-3.496 6.637.236 12.037 6.056 12.037 12.972v39.52c0 7.531 2.985 14.559 8.404 19.789 5.417 5.229 12.552 7.94 20.092 7.693 14.862-.529 26.504-12.812 26.504-27.962v-119.52c0-3.423 1.357-6.618 3.821-8.996 2.462-2.376 5.703-3.611 9.142-3.496 6.637.236 12.037 6.056 12.037 12.972v119.52c0 28.948-23.551 52.5-52.5 52.5-15.164 0-27.5 12.337-27.5 27.5v80c0 7.531 2.985 14.559 8.404 19.789 5.417 5.229 12.552 7.947 20.092 7.693 14.862-.529 26.504-12.812 26.504-27.962v-39.52c0-3.423 1.357-6.618 3.821-8.996 2.462-2.376 5.703-3.614 9.142-3.496 6.637.236 12.037 6.056 12.037 12.972v39.52c0 28.948-23.551 52.5-52.5 52.5h-97.713l-1.048-25h18.761c15.164 0 27.5-12.337 27.5-27.5v-80c0-15.163-12.336-27.5-27.5-27.5h-24.422l-1.048-25zm-120 95c-6.893 0-12.5-5.607-12.5-12.5v-30c0-6.893 5.607-12.5 12.5-12.5h23.793l-2.306 55zm46.656-242.203c.301-7.176 6.162-12.797 13.344-12.797s13.043 5.621 13.345 12.797l9.359 223.235c.174 4.138 3.689 7.379 7.808 7.179 4.139-.173 7.353-3.669 7.18-7.808l-1.485-35.403h23.793c6.893 0 12.5 5.607 12.5 12.5v80c0 6.893-5.607 12.5-12.5 12.5h-19.39l-1.653-39.425c-.174-4.138-3.694-7.377-7.808-7.179-4.139.173-7.353 3.669-7.18 7.808l7.371 175.796h-62.68zm241.844 469.203h-457c-6.893 0-12.5-5.607-12.5-12.5s5.607-12.5 12.5-12.5h457c6.893 0 12.5 5.607 12.5 12.5s-5.607 12.5-12.5 12.5z"/></g></svg>