<svg id="Capa_1" enable-background="new 0 0 512 512" height="512" viewBox="0 0 512 512" width="512" xmlns="http://www.w3.org/2000/svg"><g><g><circle cx="256" cy="86.277" fill="#c8866a" r="78.361"/></g><g><path d="m441 246.277h-370c-11.046 0-20-8.954-20-20v-40c0-11.046 8.954-20 20-20h370c11.046 0 20 8.954 20 20v40c0 11.046-8.954 20-20 20z" fill="#db9e82"/></g><g><path d="m484.5 484.084v-257.807c0-11.046-8.954-20-20-20h-417c-11.046 0-20 8.954-20 20v257.807z" fill="#ffe1bd"/></g><g><g><path d="m151.75 226.277c0-11.046 8.954-20 20-20h-124.25c-11.046 0-20 8.954-20 20v257.807h44.25v-68.904c0-22.091 17.909-40 40-40 22.091 0 40 17.909 40 40z" fill="#ffd3a3"/></g></g><g><path d="m484.5 286.277h-457c-11.046 0-20-8.954-20-20 0-11.046 8.954-20 20-20h457c11.046 0 20 8.954 20 20 0 11.046-8.954 20-20 20z" fill="#db9e82"/></g><g><path d="m107.5 266.277c0-11.046 8.954-20 20-20h-100c-11.046 0-20 8.954-20 20 0 11.046 8.954 20 20 20h100c-11.046 0-20-8.954-20-20z" fill="#c8866a"/></g><g><path d="m340.25 86.277h-168.5c-11.046 0-20 8.954-20 20v377.807h208.5v-377.807c0-11.046-8.954-20-20-20z" fill="#fff1ce"/></g><g><path d="m216 86.277h-44.25c-11.046 0-20 8.954-20 20v377.807h44.25v-377.807c0-11.046 8.954-20 20-20z" fill="#ffe1bd"/></g><g><path d="m196 484.084v-88.904c0-33.137 26.863-60 60-60 33.137 0 60 26.863 60 60v88.904z" fill="#ffd3a3"/></g><g><path d="m360.25 484.084v-68.903c0-22.091 17.909-40 40-40 22.091 0 40 17.909 40 40v68.903z" fill="#ffd3a3"/></g><g><path d="m71.75 484.084v-68.903c0-22.091 17.909-40 40-40 22.091 0 40 17.909 40 40v68.904h-80z" fill="#ffbd86"/></g><g><path d="m484.5 504.084h-457c-11.046 0-20-8.954-20-20 0-11.046 8.954-20 20-20h457c11.046 0 20 8.954 20 20 0 11.046-8.954 20-20 20z" fill="#db9e82"/></g><g><path d="m107.5 484.084c0-11.046 8.954-20 20-20h-100c-11.046 0-20 8.954-20 20 0 11.046 8.954 20 20 20h100c-11.046 0-20-8.954-20-20z" fill="#c8866a"/></g><g><path d="m361 166.277h-210c-11.046 0-20-8.954-20-20 0-11.046 8.954-20 20-20h210c11.046 0 20 8.954 20 20 0 11.046-8.954 20-20 20z" fill="#db9e82"/></g><g><path d="m231 146.277c0-11.046 8.954-20 20-20h-100c-11.046 0-20 8.954-20 20 0 11.046 8.954 20 20 20h100c-11.046 0-20-8.954-20-20z" fill="#c8866a"/></g><path d="m492 457.632v-164.903c11.528-3.274 20-13.889 20-26.452s-8.472-23.178-20-26.452v-13.548c0-13.804-10.226-25.263-23.5-27.206v-12.794c0-15.163-12.337-27.5-27.5-27.5h-55.518c1.924-3.753 3.018-8 3.018-12.5 0-12.835-8.84-23.642-20.75-26.659v-13.341c0-14.738-11.656-26.803-26.233-27.468-1.749-20.359-10.588-39.259-25.296-53.734-16.16-15.901-37.547-24.659-60.221-24.659-22.706 0-44.114 8.778-60.28 24.719-14.677 14.471-23.491 33.346-25.236 53.675-14.578.664-26.234 12.729-26.234 27.468v13.341c-11.91 3.017-20.75 13.825-20.75 26.659 0 4.5 1.094 8.747 3.018 12.5h-55.518c-15.163 0-27.5 12.337-27.5 27.5v12.794c-13.274 1.943-23.5 13.401-23.5 27.205v13.548c-11.528 3.274-20 13.889-20 26.452s8.472 23.178 20 26.452v164.903c-11.529 3.274-20 13.888-20 26.452 0 15.164 12.336 27.5 27.5 27.5h457c15.164 0 27.5-12.336 27.5-27.5 0-12.564-8.471-23.178-20-26.452zm-124.25-42.451c0-17.921 14.579-32.5 32.5-32.5s32.5 14.579 32.5 32.5v41.403h-65zm32.5-47.5c-12.564 0-23.996 4.912-32.5 12.906v-30.405c0-4.143-3.357-7.5-7.5-7.5s-7.5 3.357-7.5 7.5v106.402h-29.25v-61.403c0-37.22-30.28-67.5-67.5-67.5s-67.5 30.28-67.5 67.5v61.403h-29.25v-282.807h193.5v146.403c0 4.143 3.357 7.5 7.5 7.5s7.5-3.357 7.5-7.5v-26.403h109.25v162.807h-29.25v-41.403c0-26.192-21.309-47.5-47.5-47.5zm-91.75 88.903h-105v-61.403c0-28.948 23.552-52.5 52.5-52.5s52.5 23.552 52.5 52.5zm-164.25-162.807v86.81c-8.504-7.994-19.936-12.906-32.5-12.906-26.191 0-47.5 21.309-47.5 47.5v41.403h-29.25v-162.807zm-65 121.404c0-17.921 14.579-32.5 32.5-32.5s32.5 14.579 32.5 32.5v41.403h-65zm417.75-148.904c0 6.893-5.607 12.5-12.5 12.5h-116.75v-25h116.75c6.893 0 12.5 5.608 12.5 12.5zm-20-40v12.5h-109.25v-25h96.75c6.893 0 12.5 5.608 12.5 12.5zm-23.5-40v12.5h-85.75v-25h73.25c6.893 0 12.5 5.608 12.5 12.5zm-281.75-92.5h99.25c4.143 0 7.5-3.357 7.5-7.5s-3.357-7.5-7.5-7.5h-85.45c3.783-35.477 34.122-63.361 70.45-63.361 36.298 0 66.662 27.895 70.448 63.361h-25.448c-4.143 0-7.5 3.357-7.5 7.5s3.357 7.5 7.5 7.5h39.25c6.893 0 12.5 5.607 12.5 12.5v12.5h-193.5v-12.5c0-6.892 5.607-12.5 12.5-12.5zm-33.25 52.5c0-6.893 5.607-12.5 12.5-12.5h210c6.893 0 12.5 5.607 12.5 12.5s-5.607 12.5-12.5 12.5h-210c-6.893 0-12.5-5.607-12.5-12.5zm-67.5 27.5h73.25v25h-85.75v-12.5c0-6.892 5.607-12.5 12.5-12.5zm-23.5 40h96.75v25h-109.25v-12.5c0-6.892 5.607-12.5 12.5-12.5zm-32.5 52.5c0-6.893 5.607-12.5 12.5-12.5h116.75v25h-116.75c-6.893 0-12.5-5.607-12.5-12.5zm469.5 230.307h-457c-6.893 0-12.5-5.607-12.5-12.5s5.607-12.5 12.5-12.5h457c6.893 0 12.5 5.607 12.5 12.5s-5.607 12.5-12.5 12.5z"/></g></svg>