<svg id="Capa_1" enable-background="new 0 0 512 512" height="512" viewBox="0 0 512 512" width="512" xmlns="http://www.w3.org/2000/svg"><g><g><path d="m196 57.5h120v80h-120z" fill="#b77158"/></g><g><path d="m316 77.5h-120c-11.046 0-20-8.954-20-20v-30c0-11.046 8.954-20 20-20h120c11.046 0 20 8.954 20 20v30c0 11.046-8.954 20-20 20z" fill="#525e77"/></g><g><path d="m216 57.5v-30c0-11.046 8.954-20 20-20h-40c-11.046 0-20 8.954-20 20v30c0 11.046 8.954 20 20 20h40c-11.046 0-20-8.954-20-20z" fill="#3b4456"/></g><g><path d="m386 494.5h-260c-27.614 0-50-22.386-50-50v-277c0-27.614 22.386-50 50-50h260c27.614 0 50 22.386 50 50v277c0 27.614-22.386 50-50 50z" fill="#db9e82"/></g><g><path d="m266 444.5v-277c0-27.614 22.386-50 50-50h-190c-27.614 0-50 22.386-50 50v277c0 27.614 22.386 50 50 50h190c-27.614 0-50-22.386-50-50z" fill="#c8866a"/></g><g><path d="m72.104 427.566 297.832-313.175c4.185-4.4 9.991-6.891 16.064-6.891 33.137 0 60 26.863 60 60v1.657c0 5.687-2.185 11.156-6.104 15.277l-297.832 313.175c-4.185 4.4-9.991 6.891-16.064 6.891-33.137 0-60-26.863-60-60v-1.657c0-5.687 2.185-11.156 6.104-15.277z" fill="#fff1ce"/></g><g><path d="m351.885 276.978-123.485 129.847-68.285-71.803 123.485-129.847z" fill="#ffe1bd"/></g><g><path d="m439.896 427.566-297.832-313.175c-4.185-4.4-9.991-6.891-16.064-6.891-33.137 0-60 26.863-60 60v1.657c0 5.687 2.185 11.156 6.104 15.277l297.832 313.175c4.185 4.4 9.991 6.891 16.064 6.891 33.137 0 60-26.863 60-60v-1.657c0-5.687-2.185-11.156-6.104-15.277z" fill="#fff1ce"/></g><path d="m445.33 189.603c5.269-5.54 8.17-12.801 8.17-20.445v-1.658c0-37.22-30.28-67.5-67.5-67.5-8.088 0-15.924 3.361-21.498 9.223l-.739.777h-40.263v-26.048c11.528-3.274 20-13.889 20-26.452v-30c0-15.164-12.337-27.5-27.5-27.5h-120c-15.163 0-27.5 12.336-27.5 27.5v30c0 12.563 8.472 23.178 20 26.452v26.048h-40.263l-.739-.777c-5.574-5.862-13.41-9.223-21.498-9.223-37.22 0-67.5 30.28-67.5 67.5v1.657c0 7.645 2.901 14.905 8.17 20.445l1.83 1.924v228.946l-1.83 1.924c-5.269 5.54-8.17 12.801-8.17 20.445v1.657c0 37.22 30.28 67.5 67.5 67.5 8.088 0 15.924-3.361 21.498-9.223l.739-.777h215.525l.739.777c5.575 5.864 13.411 9.225 21.499 9.225 37.22 0 67.5-30.28 67.5-67.5v-1.657c0-7.645-2.901-14.905-8.17-20.445l-1.83-1.924v-228.947zm-59.33-74.603c28.948 0 52.5 23.551 52.5 52.5v1.657c0 3.779-1.435 7.369-4.039 10.108l-110.176 115.852-57.935-60.92 109.021-114.637c2.756-2.898 6.63-4.56 10.629-4.56zm-182.5-30h49.103c4.143 0 7.5-3.358 7.5-7.5s-3.357-7.5-7.5-7.5h-56.603c-6.893 0-12.5-5.607-12.5-12.5v-30c0-6.893 5.607-12.5 12.5-12.5h120c6.893 0 12.5 5.607 12.5 12.5v30c0 6.893-5.607 12.5-12.5 12.5h-33.397c-4.143 0-7.5 3.358-7.5 7.5s3.357 7.5 7.5 7.5h25.897v25h-105zm145.998 40-93.498 98.314-93.498-98.314zm-265.998 82.3 93.865 98.7-93.865 98.7zm79.002 279.7 93.498-98.314 93.498 98.314zm275.998-42.5c0 28.949-23.552 52.5-52.5 52.5-3.999 0-7.873-1.662-10.629-4.56l-138.596-145.735c-2.854-3.001-7.6-3.12-10.604-.266-3.001 2.854-3.12 7.602-.266 10.603l19.744 20.761-109.02 114.637c-2.756 2.897-6.63 4.56-10.629 4.56-28.948 0-52.5-23.551-52.5-52.5v-1.657c0-3.779 1.435-7.369 4.039-10.108l110.175-115.851 17.506 18.408c2.854 3.002 7.601 3.121 10.604.266 3.001-2.854 3.12-7.602.266-10.603l-138.551-145.689c-2.604-2.739-4.039-6.329-4.039-10.108v-1.658c0-28.949 23.552-52.5 52.5-52.5 3.999 0 7.873 1.662 10.629 4.56l297.832 313.175c2.604 2.739 4.039 6.329 4.039 10.108zm-10-39.8-93.865-98.7 93.865-98.7z"/></g></svg>