<svg id="Capa_1" enable-background="new 0 0 512 512" height="512" viewBox="0 0 512 512" width="512" xmlns="http://www.w3.org/2000/svg"><g><g><path d="m494.5 313.521-64.383-196.05c-2.696-8.21-10.36-13.76-19.002-13.76h-31.597c-7.115 0-13.694-3.78-17.278-9.927l-44.519-76.358c-3.583-6.146-10.162-9.926-17.277-9.926h-63.661c-6.922 0-13.351 3.579-16.998 9.461l-22.47 36.242c-3.737 6.027-10.386 9.625-17.475 9.456l-33.967-.81c-8.019-.191-15.377 4.427-18.691 11.732l-39.576 87.242c-1.657 3.653-4.374 6.723-7.798 8.811l-27.043 16.497c-4.607 2.811-7.883 7.364-9.083 12.625l-26.182 114.765z" fill="#c8866a"/></g><g><path d="m179.84 62.66-33.967-.81c-8.019-.191-15.377 4.427-18.691 11.732l-39.576 87.242c-1.657 3.653-4.374 6.723-7.798 8.811l-27.043 16.497c-4.607 2.811-7.883 7.364-9.083 12.625l-26.182 114.764h224.5v-179.054c0-11.046-8.954-20-20-20h-22.472c-14.763 0-24.438-15.447-17.994-28.729l15.782-32.534c-3.737 6.027-10.386 9.625-17.476 9.456z" fill="#b77158"/></g><g><path d="m189.34 175h133.32v138.521h-133.32z" fill="#3b4456"/></g><g><path d="m484.5 504.5h-457c-11.046 0-20-8.954-20-20v-170.979c0-11.046 8.954-20 20-20h457c11.046 0 20 8.954 20 20v170.979c0 11.046-8.954 20-20 20z" fill="#fff1ce"/></g><g><path d="m134.131 293.521-38.131 210.979h320l-38.131-210.979z" fill="#ffd3a3"/></g><g><g><path d="m374.333 373.521h-236.666c-11.046 0-20-8.954-20-20s8.954-20 20-20h236.666c11.046 0 20 8.954 20 20s-8.954 20-20 20z" fill="#b77158"/></g></g><g><g><path d="m398 464.5h-284c-11.046 0-20-8.954-20-20s8.954-20 20-20h284c11.046 0 20 8.954 20 20s-8.954 20-20 20z" fill="#b77158"/></g></g><g><g><path d="m205.72 292.34-.2 1.18-35.76 210.98h-40.57l35.76-210.98 1.33-7.86c1.85-10.89 12.18-18.22 23.06-16.38 10.89 1.85 18.22 12.17 16.38 23.06z" fill="#db9e82"/></g></g><g><g><path d="m382.81 504.5h-40.57l-35.76-210.98-.2-1.18c-1.84-10.89 5.49-21.21 16.38-23.06 10.88-1.84 21.21 5.49 23.06 16.38l1.33 7.86z" fill="#db9e82"/></g></g><g><path d="m336 195h-160c-11.046 0-20-8.954-20-20 0-11.046 8.954-20 20-20h160c11.046 0 20 8.954 20 20 0 11.046-8.954 20-20 20z" fill="#db9e82"/></g><path d="m493.908 287.68-56.665-172.548c-3.717-11.316-14.217-18.92-26.128-18.92h-31.597c-4.43 0-8.567-2.377-10.798-6.204l-13.767-23.611c-2.088-3.579-6.681-4.787-10.257-2.702-3.579 2.087-4.788 6.679-2.702 10.257l13.767 23.611c4.908 8.419 14.011 13.649 23.757 13.649h31.597c5.414 0 10.188 3.456 11.876 8.6l54.583 166.21h-124.186l-.273-1.617c-2.033-11.97-11.562-20.821-22.954-22.579v-59.326h5.839c15.163 0 27.5-12.337 27.5-27.5s-12.337-27.5-27.5-27.5h-86.5v-13.033c0-15.163-12.337-27.5-27.5-27.5h-22.473c-4.397 0-8.259-2.138-10.593-5.864-2.335-3.728-2.573-8.135-.653-12.092l15.614-32.187 22.264-35.911c2.296-3.702 6.268-5.913 10.624-5.913h63.661c4.43 0 8.567 2.377 10.798 6.204l15.634 26.813c2.088 3.579 6.682 4.787 10.257 2.702 3.579-2.087 4.788-6.679 2.702-10.257l-15.634-26.813c-4.908-8.419-14.011-13.649-23.757-13.649h-63.661c-9.584 0-18.321 4.863-23.372 13.009l-22.468 36.241c-.002.003-.004.006-.006.009-2.325 3.746-6.505 6.026-10.918 5.903l-33.967-.81c-.222-.005-.442-.008-.664-.008-10.785 0-20.562 6.278-25.036 16.139l-39.575 87.242c-1.04 2.292-2.726 4.197-4.874 5.508l-27.043 16.497c-6.297 3.842-10.849 10.169-12.489 17.359l-20.925 91.722c-9.138 4.475-15.446 13.868-15.446 24.71v170.979c0 15.164 12.336 27.5 27.5 27.5h457c15.164 0 27.5-12.336 27.5-27.5v-170.979c0-11.86-7.547-21.99-18.092-25.841zm-115.78 144.32h19.872c6.893 0 12.5 5.607 12.5 12.5s-5.607 12.5-12.5 12.5h-15.634zm-15.42-90.979h11.625c6.893 0 12.5 5.607 12.5 12.5s-5.607 12.5-12.5 12.5h-7.388zm-24.383-54.109 35.607 210.088h-25.357l-34.9-205.91c-1.149-6.795 3.445-13.262 10.235-14.415 6.797-1.141 13.262 3.445 14.415 10.237zm-200.257 210.088 35.607-210.084c1.153-6.796 7.618-11.398 14.409-10.241 6.795 1.153 11.39 7.62 10.241 14.41l-34.9 205.915zm6.985-130.979h-7.386c-6.893 0-12.5-5.607-12.5-12.5s5.607-12.5 12.5-12.5h11.624zm-15.419 90.979h-15.634c-6.893 0-12.5-5.607-12.5-12.5s5.607-12.5 12.5-12.5h19.871zm141.366-25h51.344l4.237 25h-141.163l4.237-25h51.345c4.143 0 7.5-3.357 7.5-7.5s-3.357-7.5-7.5-7.5h-48.802l6.098-35.979h115.408l6.098 35.979h-48.802c-4.143 0-7.5 3.357-7.5 7.5s3.357 7.5 7.5 7.5zm40.162-65.979h-110.324l4.237-25h101.849zm-11.017-65 4.237 25h-96.764l4.237-25zm-117.269 170.979h146.249l4.237 25h-154.724zm132.284-208.268c-9.1 3.908-15.415 12.491-16.491 22.289h-85.338c-1.075-9.796-7.39-18.379-16.491-22.288v-61.233h118.32zm33.34-88.732c0 6.893-5.607 12.5-12.5 12.5h-160c-6.893 0-12.5-5.607-12.5-12.5s5.607-12.5 12.5-12.5h160c6.893 0 12.5 5.607 12.5 12.5zm-297.505 25.425c.745-3.269 2.814-6.145 5.677-7.891l27.043-16.497c4.727-2.883 8.434-7.072 10.722-12.115l39.575-87.242c2.075-4.574 6.627-7.488 11.683-7.332l33.966.81c.369.007.735-.007 1.102-.015l-5.977 12.322c-4.161 8.577-3.623 18.521 1.437 26.601 5.061 8.079 13.773 12.902 23.306 12.902h22.471c6.893 0 12.5 5.607 12.5 12.5v13.032h-58.5c-15.163 0-27.5 12.337-27.5 27.5s12.337 27.5 27.5 27.5h5.84v59.324c-11.389 1.757-20.921 10.612-22.954 22.584l-.273 1.613h-127.146zm-35.995 284.075v-170.979c0-6.893 5.607-12.5 12.5-12.5h128.57l-4.237 25h-14.166c-15.163 0-27.5 12.337-27.5 27.5s12.337 27.5 27.5 27.5h4.844l-6.098 35.979h-22.413c-15.163 0-27.5 12.337-27.5 27.5s12.337 27.5 27.5 27.5h13.091l-4.237 25h-95.354c-6.893 0-12.5-5.607-12.5-12.5zm482 0c0 6.893-5.607 12.5-12.5 12.5h-95.354l-4.237-25h13.091c15.163 0 27.5-12.337 27.5-27.5s-12.337-27.5-27.5-27.5h-22.414l-6.098-35.979h4.845c15.163 0 27.5-12.337 27.5-27.5s-12.337-27.5-27.5-27.5h-14.168l-4.237-25h128.572c6.893 0 12.5 5.607 12.5 12.5z"/></g></svg>