<svg id="Capa_1" enable-background="new 0 0 512 512" height="512" viewBox="0 0 512 512" width="512" xmlns="http://www.w3.org/2000/svg"><g><g><path d="m481.852 362.584-12.683-73.405c-1.657-9.59-9.976-16.595-19.708-16.595h-13.025c-9.186 0-17.191-6.258-19.409-15.172l-58.284-234.323c-2.217-8.915-10.222-15.172-19.409-15.172h-134.628c-8.442 0-15.975 5.3-18.825 13.246l-29.478 82.167c-1.675 4.669-5.025 8.549-9.4 10.886l-60.547 32.352c-4.827 2.579-8.386 7.024-9.848 12.298l-56.46 203.718z" fill="#c8866a"/></g><g><path d="m147.004 114.216-60.547 32.352c-4.827 2.579-8.386 7.024-9.848 12.298l-56.461 203.718h384.829l-23.741-97.789c-1.415-5.83-5.373-10.716-10.781-13.312l-34.917-16.76c-4.224-2.028-7.602-5.474-9.545-9.738l-33.77-74.116c-2.398-5.263-6.957-9.23-12.501-10.878l-123.319-36.66c-1.674 4.668-5.024 8.547-9.399 10.885z" fill="#b77158"/></g><g><path d="m444.5 367.974c-184.427-22.633-208.887-148.263-416.249-156.129-11.329-.43-20.751 8.653-20.751 19.99v179.623h437z" fill="#fff1ce"/></g><g><path d="m297.021 317.049c-18.728 5.213-36.088 10.8-53.279 16.335-7.67 2.469-15.286 4.921-22.977 7.321-85.977 26.825-173.265-37.692-173.265-127.757-6.237-.482-12.646-.852-19.242-1.103-11.332-.43-20.758 8.65-20.758 19.99v179.623h437v-43.485c-63.434-7.784-107.943-27.753-147.479-50.924z" fill="#ffe1bd"/></g><g><path d="m385.972 449.823-28.204-165.376c-1.086-6.371-5.477-11.684-11.53-13.951l-36.137-13.535c-4.726-1.77-8.502-5.427-10.422-10.094l-33.453-81.296c-2.8-6.805-9.432-11.247-16.791-11.247h-54.915c-7.701 0-14.565 4.859-17.125 12.122l-60.314 171.16c-1.656 4.701-5.172 8.514-9.723 10.545l-35.466 15.833c-5.193 2.318-9 6.936-10.285 12.475l-17.024 73.364z" fill="#db9e82"/></g><g><path d="m194.521 154.323c-7.701 0-14.565 4.859-17.125 12.122l-60.314 171.16c-1.656 4.701-5.172 8.514-9.723 10.545l-35.466 15.833c-5.193 2.318-9 6.936-10.285 12.475l-17.024 73.364h148.103l17.539-107.87c1.144-7.033-4.986-13.097-12.007-11.877l-26.738 4.645c-7.582 1.317-13.905-5.795-11.71-13.171l49.764-167.227h-15.014z" fill="#c8866a"/></g><g><path d="m7.5 411.459c241.501 0 248.303-75.557 476.583-79.813 11.206-.209 20.417 8.788 20.417 19.996v132.442c0 11.046-8.954 20-20 20h-457c-11.046 0-20-8.954-20-20z" fill="#fff1ce"/></g><g><g><path d="m183.865 318.598c-4.142 0-7.5-3.357-7.5-7.5v-12c0-4.143 3.358-7.5 7.5-7.5s7.5 3.357 7.5 7.5v12c0 4.142-3.358 7.5-7.5 7.5z"/></g><g><path d="m308.762 318.598c-4.142 0-7.5-3.357-7.5-7.5v-12c0-4.143 3.358-7.5 7.5-7.5s7.5 3.357 7.5 7.5v12c0 4.142-3.358 7.5-7.5 7.5z"/></g><g><path d="m246.314 325.741c-8.478 0-16.54-3.671-22.118-10.072-2.722-3.122-2.396-7.86.726-10.582 3.122-2.721 7.86-2.396 10.582.727 2.729 3.132 6.67 4.928 10.811 4.928 4.14 0 8.081-1.796 10.81-4.928 2.721-3.123 7.459-3.447 10.582-.727 3.123 2.722 3.448 7.46.726 10.582-5.58 6.401-13.642 10.072-22.119 10.072z"/></g></g><g><g><path d="m209.536 101.084c-4.142 0-7.5-3.357-7.5-7.5v-12c0-4.143 3.358-7.5 7.5-7.5s7.5 3.357 7.5 7.5v12c0 4.143-3.358 7.5-7.5 7.5z"/></g><g><path d="m334.433 101.084c-4.142 0-7.5-3.357-7.5-7.5v-12c0-4.143 3.358-7.5 7.5-7.5s7.5 3.357 7.5 7.5v12c0 4.143-3.358 7.5-7.5 7.5z"/></g><g><path d="m271.984 108.228c-8.478 0-16.54-3.672-22.118-10.074-2.721-3.122-2.396-7.86.727-10.581 3.122-2.722 7.86-2.396 10.582.728 2.729 3.132 6.669 4.928 10.81 4.928s8.081-1.796 10.81-4.929c2.722-3.123 7.458-3.447 10.582-.727 3.123 2.722 3.448 7.459.727 10.582-5.58 6.401-13.642 10.073-22.12 10.073z"/></g></g><path d="m503.769 332.03c-5.321-5.223-12.359-8.021-19.825-7.884-.375.007-.744.016-1.118.024l-6.267-36.269c-2.285-13.221-13.682-22.817-27.099-22.817h-13.025c-5.753 0-10.741-3.899-12.13-9.483l-58.284-234.323c-3.055-12.283-14.029-20.862-26.687-20.862h-134.627c-11.574 0-21.977 7.32-25.885 18.215l-29.478 82.167c-1.048 2.923-3.135 5.339-5.875 6.803l-60.546 32.353c-6.605 3.529-11.541 9.692-13.542 16.91l-13.657 49.275c-8.862-.832-17.912-1.435-27.189-1.787-7.539-.292-14.67 2.437-20.104 7.667-5.436 5.234-8.431 12.272-8.431 19.817v252.248c0 15.163 12.336 27.5 27.5 27.5h457c15.164 0 27.5-12.337 27.5-27.5v-132.442c0-7.437-2.923-14.402-8.231-19.612zm-484.934-109.206c2.469-2.378 5.713-3.616 9.132-3.484 42.695 1.62 80.521 8.456 115.493 20.844l-33.451 94.929c-.968 2.746-3.047 5.002-5.707 6.188l-35.466 15.833c-7.294 3.257-12.728 9.847-14.534 17.629l-6.598 28.437c-10.575.413-21.46.658-32.704.733v-172.097c0-3.431 1.362-6.631 3.835-9.012zm478.165 261.26c0 6.893-5.607 12.5-12.5 12.5h-457c-6.893 0-12.5-5.607-12.5-12.5v-65.149c40.509-.264 76.54-2.681 109.935-7.367 4.102-.575 6.96-4.367 6.385-8.469-.575-4.103-4.361-6.963-8.47-6.385-18.859 2.646-38.609 4.548-59.574 5.74l5.638-24.299c.75-3.232 3.007-5.97 6.037-7.322l35.466-15.833c6.401-2.857 11.409-8.288 13.739-14.901l60.313-171.16c1.5-4.255 5.539-7.114 10.051-7.114h54.916c4.336 0 8.205 2.591 9.855 6.601l12.611 30.648c1.577 3.831 5.96 5.661 9.79 4.082 3.831-1.576 5.658-5.959 4.082-9.789l-12.611-30.649c-3.973-9.654-13.286-15.893-23.727-15.893h-54.916c-10.863 0-20.588 6.884-24.198 17.13l-21.877 62.085c-24.38-8.636-50.042-14.681-77.618-18.229l13.009-46.939c.909-3.28 3.153-6.082 6.155-7.686l60.547-32.354c6.027-3.221 10.617-8.536 12.924-14.968l29.478-82.167c1.776-4.952 6.505-8.279 11.766-8.279h134.627c5.753 0 10.742 3.899 12.13 9.483l58.285 234.322c3.055 12.283 14.029 20.862 26.687 20.862h13.025c6.099 0 11.279 4.362 12.317 10.372l5.897 34.128c-36.368 1.278-67.034 4.45-93.95 8.814l-8.564-50.213c-1.529-8.969-7.772-16.522-16.292-19.713l-36.137-13.535c-2.764-1.035-4.994-3.195-6.118-5.925l-9.403-22.852c-1.576-3.829-5.959-5.66-9.79-4.081-3.831 1.576-5.658 5.959-4.082 9.79l9.403 22.852c2.705 6.571 8.072 11.77 14.727 14.263l36.138 13.535c3.538 1.325 6.131 4.463 6.767 8.188l8.573 50.27c-41.092 7.69-73.465 18.111-105.246 28.342-30.473 9.811-61.982 19.954-100.618 27.38-4.068.782-6.731 4.713-5.95 8.781.782 4.066 4.709 6.728 8.781 5.949 39.532-7.598 71.484-17.884 102.384-27.832 57.126-18.391 116.198-37.407 225.924-39.453 3.403-.086 6.614 1.212 9.039 3.591 2.411 2.366 3.738 5.529 3.738 8.906v132.442z"/></g></svg>