<svg id="Capa_1" enable-background="new 0 0 512.016 512.016" height="512" viewBox="0 0 512.016 512.016" width="512" xmlns="http://www.w3.org/2000/svg"><g><g><path d="m369.519 481.684-50.024-349.722h-126.891l-50.024 349.722c-1.724 12.05 7.626 22.832 19.798 22.832h187.342c12.172 0 21.522-10.782 19.799-22.832z" fill="#ffe1bd"/></g><g><path d="m192.58 481.684 50.024-349.722h-50l-50.024 349.722c-1.724 12.05 7.626 22.832 19.798 22.832h50c-12.172 0-21.522-10.782-19.798-22.832z" fill="#ffd3a3"/></g><g><path d="m154.223 400.286h203.652l-14.908-104.23h-173.835z" fill="#ffcb97"/></g><g><path d="m169.132 296.056-9.96 69.631-4.949 34.599h50l14.909-104.23z" fill="#ffbd86"/></g><g><path d="m256.008 131.962c0-68.738-55.724-124.462-124.462-124.462-65.104 0-118.533 49.986-124.001 113.673-.499 5.812 4.141 10.789 9.975 10.789z" fill="#00b472"/></g><g><path d="m494.496 131.962c5.834 0 10.474-4.977 9.975-10.789-5.468-63.687-58.897-113.673-124.001-113.673-68.739 0-124.462 55.724-124.462 124.462z" fill="#00b472"/></g><g><path d="m256.008 131.962h226.957c-6.435-10.142-14.008-19.635-22.657-28.284-24.281-24.282-54.823-40.035-87.987-45.753-4.387-17.245-12.535-32.996-23.49-46.362-53.414 13.999-92.823 62.594-92.823 120.399z" fill="#04a563"/></g><g><path d="m29.051 131.962h226.957c0-57.805-39.409-106.401-92.823-120.399-10.955 13.367-19.104 29.117-23.49 46.362-33.164 5.718-63.706 21.471-87.987 45.753-8.649 8.649-16.222 18.142-22.657 28.284z" fill="#04a563"/></g><g><path d="m256.008 131.962c48.605-48.605 127.411-48.605 176.016 0 46.035 46.035 48.47 119.161 7.303 168.061-3.757 4.463-10.557 4.701-14.682.576z" fill="#00c272"/></g><g><path d="m349.356 225.31c15.413-42.891 24.729-87.179 26.379-125.706-41.39-10.866-87.285-.085-119.727 32.358z" fill="#00b472"/></g><g><path d="m256.008 131.962c-48.605-48.605-127.411-48.605-176.016 0-46.035 46.035-48.47 119.161-7.303 168.061 3.757 4.463 10.557 4.701 14.682.576z" fill="#00c272"/></g><g><path d="m136.281 99.604c1.65 38.527 10.966 82.815 26.379 125.706l93.348-93.348c-32.442-32.442-78.337-43.223-119.727-32.358z" fill="#00b472"/></g><g><path d="m256.008 7.5c-44.183 0-80 35.817-80 80 0 96.516 58.611 216.039 80 216.039s80-119.523 80-216.039c0-44.183-35.817-80-80-80z" fill="#44cf79"/></g><g><g><path d="m193.601 462.33c-4.143 0-7.5-3.358-7.5-7.5v-12c0-4.142 3.357-7.5 7.5-7.5s7.5 3.358 7.5 7.5v12c0 4.142-3.358 7.5-7.5 7.5z"/></g><g><path d="m318.498 462.33c-4.143 0-7.5-3.358-7.5-7.5v-12c0-4.142 3.357-7.5 7.5-7.5s7.5 3.358 7.5 7.5v12c0 4.142-3.357 7.5-7.5 7.5z"/></g><g><path d="m256.049 469.473c-8.479 0-16.54-3.671-22.118-10.073-2.722-3.123-2.396-7.86.728-10.582 3.122-2.721 7.86-2.396 10.581.727 2.729 3.132 6.669 4.928 10.81 4.928s8.081-1.796 10.811-4.928c2.722-3.124 7.459-3.448 10.582-.726s3.447 7.459.727 10.582c-5.582 6.4-13.643 10.072-22.121 10.072z"/></g></g><path d="m511.944 120.531c-2.815-32.794-17.74-63.19-42.024-85.59-24.43-22.532-56.196-34.941-89.45-34.941-24.649 0-48.487 6.779-69.288 19.642-15.064-12.272-34.274-19.642-55.174-19.642s-40.11 7.37-55.174 19.642c-20.801-12.863-44.639-19.642-69.288-19.642-33.254 0-65.02 12.409-89.449 34.941-24.284 22.4-39.209 52.796-42.024 85.59-.415 4.835 1.234 9.665 4.526 13.251 3.313 3.61 8.022 5.68 12.921 5.68h45.921c-16.605 21.527-26.185 47.663-27.295 75.153-1.333 33.01 9.607 65.057 30.806 90.237 3.124 3.712 7.706 5.961 12.568 6.169.25.011.498.016.747.016 4.633 0 9.12-1.849 12.408-5.136l78.734-78.734-15.085 105.463c-.586 4.101 2.263 7.9 6.363 8.486.359.052.718.077 1.071.077 3.671 0 6.88-2.699 7.415-6.439l4.463-31.2h65.519c6.76 6.452 11.507 7.482 14.854 7.482 4.539 0 9.476-2.509 14.785-7.482h65.669l12.764 89.23h-186.355l4.084-28.554c.586-4.101-2.263-7.9-6.363-8.486-4.096-.589-7.899 2.262-8.486 6.362l-16.952 118.514c-1.129 7.897 1.222 15.883 6.448 21.911 5.227 6.026 12.799 9.483 20.775 9.483h187.342c7.978 0 15.551-3.457 20.777-9.484s7.575-14.013 6.446-21.91l-36.24-253.357 78.638 78.638c3.288 3.288 7.773 5.136 12.407 5.136.249 0 .498-.005.747-.016 4.862-.208 9.444-2.458 12.568-6.169 21.198-25.18 32.139-57.227 30.806-90.237-1.11-27.49-10.69-53.627-27.295-75.153h45.921c4.898 0 9.608-2.07 12.921-5.68 3.293-3.586 4.943-8.415 4.528-13.251zm-496.294 3.109c-.329-.358-.706-.966-.632-1.825 5.142-59.897 56.327-106.815 116.528-106.815 20.577 0 40.513 5.325 58.16 15.464-13.204 15.328-21.198 35.265-21.198 57.036 0 .171.004.345.004.517-34.024-.12-66.881 12.911-91.567 36.446h-59.425c-.97-.001-1.588-.516-1.87-.823zm66.419 171.655c-.687.686-1.49.758-1.905.741-.486-.021-1.182-.184-1.737-.843-38.716-45.99-35.698-115.36 6.87-157.927 22.214-22.215 52.424-34.506 83.694-34.252 1.633 27.424 7.426 57.962 16.729 88.63zm107.023-85.809 1.813-1.813c3.097 9.028 6.482 18.021 10.151 26.903 8.56 20.72 18.218 39.524 27.195 52.948.236.354.467.688.701 1.032h-51.169zm170.072 283.219c-2.376 2.74-5.818 4.311-9.444 4.311h-187.342c-3.626 0-7.067-1.571-9.443-4.311s-3.444-6.37-2.931-9.959l10.722-74.96h190.646l10.722 74.96c.514 3.589-.554 7.22-2.93 9.959zm-24.847-204.149h-51.194c4.545-6.688 9.304-14.855 14.267-24.496 8.703-16.906 16.817-36.324 23.696-56.413l1.935 1.935zm99.273 6.637c-.556.659-1.251.822-1.737.843-.415.017-1.22-.055-1.904-.74l-103.683-103.682c2.835-9.331 5.381-18.7 7.553-27.934.948-4.032-1.552-8.069-5.583-9.018-4.031-.946-8.07 1.551-9.019 5.583-7.673 32.621-20.126 67.244-34.166 94.992-15.687 31.005-26.238 39.896-29.041 40.764-1.74-.562-7.546-4.784-16.689-18.943-8.393-12.995-17.403-30.957-25.371-50.575-19.347-47.632-30.442-98.29-30.442-138.983 0-39.977 32.523-72.5 72.5-72.5s72.5 32.523 72.5 72.5c0 13.478-1.19 28.054-3.539 43.322-.629 4.094 2.179 7.923 6.273 8.553 4.084.625 7.923-2.18 8.553-6.273 1.592-10.352 2.669-20.415 3.237-30.086 31.271-.249 61.484 12.045 83.688 34.249 42.568 42.568 45.586 111.938 6.87 157.928zm62.776-171.553c-.282.307-.9.823-1.87.823h-59.425c-24.679-23.526-57.56-36.575-91.569-36.45 0-.17.006-.343.006-.512 0-21.771-7.994-41.708-21.198-57.036 17.647-10.14 37.583-15.465 58.16-15.465 60.201 0 111.386 46.918 116.528 106.814.075.859-.302 1.467-.632 1.826z"/></g></svg>