<svg id="Capa_1" enable-background="new 0 0 511.168 511.168" height="512" viewBox="0 0 511.168 511.168" width="512" xmlns="http://www.w3.org/2000/svg"><g><g><path d="m432.729 300.399c14.703-27.978 22.985-59.858 22.854-93.689-.428-110.416-89.582-199.21-200-199.21-110.457 0-200 89.543-200 200 0 33.537 8.267 65.139 22.855 92.899-13.914 10.988-22.855 27.995-22.855 47.101 0 33.137 26.863 60 60 60v46.168c0 27.614 22.386 50 50 50h180c27.614 0 50-22.386 50-50v-46.168c33.137 0 60-26.863 60-60 .001-19.106-8.94-36.113-22.854-47.101z" fill="#fff1ce"/></g><g><path d="m432.756 300.422c-28.771 16.026-61.902 25.168-97.172 25.168-110.457 0-200-89.543-200-200 0-33.559 8.278-65.18 22.884-92.953-61.363 34.153-102.884 99.654-102.884 174.863 0 33.537 8.267 65.139 22.855 92.899-13.914 10.988-22.855 27.995-22.855 47.101 0 33.137 26.863 60 60 60v46.168c0 27.614 22.386 50 50 50h180c27.614 0 50-22.386 50-50v-46.168c33.137 0 60-26.863 60-60 0-19.093-8.93-36.089-22.828-47.078z" fill="#ffe1bd"/></g><g><g><path d="m293.631 350.913-29.317-52.461c-3.816-6.829-13.642-6.829-17.459 0l-29.317 52.461c-3.725 6.666 1.093 14.878 8.729 14.878h58.635c7.635 0 12.454-8.212 8.729-14.878z" fill="#ffcb97"/></g></g><g><path d="m247.537 350.913 23.047-41.24-6.271-11.221c-3.816-6.829-13.642-6.829-17.459 0l-29.317 52.461c-3.725 6.666 1.093 14.878 8.729 14.878h30c-7.635 0-12.454-8.212-8.729-14.878z" fill="#ffbd86"/></g><g><circle cx="345.584" cy="249.676" fill="#ffcb97" r="50"/></g><g><path d="m325.584 249.676c0-22.388 14.715-41.336 35-47.708-4.736-1.487-9.773-2.292-15-2.292-27.614 0-50 22.386-50 50s22.386 50 50 50c5.227 0 10.264-.805 15-2.292-20.285-6.373-35-25.321-35-47.708z" fill="#ffbd86"/></g><g><circle cx="165.584" cy="249.676" fill="#ffcb97" r="50"/></g><g><path d="m145.584 249.676c0-22.388 14.715-41.336 35-47.708-4.736-1.487-9.773-2.292-15-2.292-27.614 0-50 22.386-50 50s22.386 50 50 50c5.227 0 10.264-.805 15-2.292-20.285-6.373-35-25.321-35-47.708z" fill="#ffbd86"/></g><g><path d="m183.584 407.5c9.941 0 18 8.059 18 18v78.168h-36v-78.168c0-9.941 8.059-18 18-18z" fill="#ffbd86"/></g><g><path d="m255.584 407.5c9.941 0 18 8.059 18 18v78.168h-36v-78.168c0-9.941 8.059-18 18-18z" fill="#ffbd86"/></g><g><path d="m327.584 407.5c9.941 0 18 8.059 18 18v78.168h-36v-78.168c0-9.941 8.059-18 18-18z" fill="#ffbd86"/></g><g><path d="m442.064 298.569c13.889-28.427 21.142-60.066 21.019-91.889-.214-55.398-21.864-107.354-60.96-146.296-39.097-38.939-91.138-60.384-146.54-60.384-49.666 0-97.72 17.822-135.312 50.185-3.139 2.702-3.493 7.438-.791 10.577s7.438 3.494 10.577.79c34.872-30.02 79.451-46.552 125.526-46.552 36.441 0 70.578 10.219 99.689 27.938l-38.195 38.195c-8.027 8.027-18.7 12.448-30.052 12.448h-11.029c-15.391 0-27.913 12.521-27.913 27.913v55.021c0 4.143 3.358 7.5 7.5 7.5s7.5-3.357 7.5-7.5v-55.021c0-7.12 5.793-12.913 12.913-12.913h11.029c15.359 0 29.798-5.981 40.659-16.841l12.061-12.061 14.969 14.969c3.82 3.819 4.867 9.08 2.799 14.071s-6.527 7.972-11.93 7.972c-4.142 0-7.5 3.357-7.5 7.5s3.358 7.5 7.5 7.5c11.504 0 21.386-6.603 25.789-17.231 4.402-10.628 2.083-22.284-6.051-30.419l-14.969-14.969 17.66-17.661c48.246 34.871 79.823 91.502 80.07 155.328.122 31.381-7.484 62.562-21.993 90.171-1.68 3.197-.843 7.137 1.991 9.375 12.713 10.04 20.004 25.062 20.004 41.215 0 28.948-23.551 52.5-52.5 52.5-4.142 0-7.5 3.357-7.5 7.5v46.168c0 20.875-15.132 38.27-35 41.824v-69.992c0-14.061-11.439-25.5-25.5-25.5s-25.5 11.439-25.5 25.5v70.668h-21v-70.668c0-14.061-11.439-25.5-25.5-25.5s-25.5 11.439-25.5 25.5v70.668h-21v-25.584c0-4.143-3.358-7.5-7.5-7.5s-7.5 3.357-7.5 7.5v25.584h-21v-70.668c0-5.79 4.71-10.5 10.5-10.5s10.5 4.71 10.5 10.5v15.084c0 4.143 3.358 7.5 7.5 7.5s7.5-3.357 7.5-7.5v-15.084c0-14.061-11.439-25.5-25.5-25.5s-25.5 11.439-25.5 25.5v69.992c-19.868-3.554-35-20.949-35-41.824v-46.168c0-4.143-3.358-7.5-7.5-7.5-28.949 0-52.5-23.552-52.5-52.5 0-16.153 7.291-31.175 20.004-41.215 2.834-2.238 3.67-6.178 1.991-9.375-14.389-27.381-21.995-58.299-21.995-89.41 0-46.076 16.532-90.655 46.552-125.524 2.702-3.14 2.348-7.875-.791-10.577-3.139-2.704-7.875-2.35-10.577.79-32.362 37.59-50.184 85.644-50.184 135.311 0 31.533 7.253 62.89 21.02 91.069-13.43 12.721-21.02 30.234-21.02 48.931 0 34.685 26.297 63.343 60 67.086v39.082c0 31.706 25.794 57.5 57.5 57.5h180c31.706 0 57.5-25.794 57.5-57.5v-39.082c33.703-3.743 60-32.401 60-67.086 0-18.696-7.59-36.21-21.02-48.931zm-124.98 126.931c0-5.79 4.71-10.5 10.5-10.5s10.5 4.71 10.5 10.5v70.668h-21zm-72 0c0-5.79 4.71-10.5 10.5-10.5s10.5 4.71 10.5 10.5v70.668h-21z"/><path d="m255.584 285.83c-6.429 0-12.14 3.351-15.276 8.963l-29.317 52.461c-3.062 5.478-2.994 11.979.182 17.393s8.818 8.645 15.094 8.645h58.635c6.276 0 11.918-3.231 15.094-8.645s3.244-11.915.182-17.393l-29.317-52.461c-3.137-5.612-8.848-8.963-15.277-8.963zm31.474 71.226c-.271.462-.911 1.235-2.157 1.235h-58.635c-1.246 0-1.886-.773-2.157-1.235-.271-.461-.633-1.396-.026-2.483l29.317-52.461c.623-1.114 1.635-1.281 2.183-1.281s1.56.167 2.183 1.281l29.317 52.461c.608 1.086.246 2.022-.025 2.483z"/><path d="m345.584 307.176c31.706 0 57.5-25.794 57.5-57.5s-25.794-57.5-57.5-57.5-57.5 25.794-57.5 57.5 25.794 57.5 57.5 57.5zm0-100c23.435 0 42.5 19.065 42.5 42.5s-19.065 42.5-42.5 42.5-42.5-19.065-42.5-42.5 19.065-42.5 42.5-42.5z"/><path d="m165.584 192.176c-31.706 0-57.5 25.794-57.5 57.5s25.794 57.5 57.5 57.5 57.5-25.794 57.5-57.5-25.794-57.5-57.5-57.5zm0 100c-23.435 0-42.5-19.065-42.5-42.5s19.065-42.5 42.5-42.5 42.5 19.065 42.5 42.5-19.065 42.5-42.5 42.5z"/></g></g></svg>