<svg id="Capa_1" enable-background="new 0 0 512 512" height="512" viewBox="0 0 512 512" width="512" xmlns="http://www.w3.org/2000/svg"><g><g><path d="m366 327.656v-130.585h-220v130.585c-55.229 0-100 44.772-100 100l123 76.844h174l123-76.844c0-55.228-44.771-100-100-100z" fill="#ffbd86"/><path d="m256 387.5c-11.046 0-20-8.954-20-20v-120c0-11.046 8.954-20 20-20 11.046 0 20 8.954 20 20v120c0 11.046-8.954 20-20 20z" fill="#ffd3a3"/><path d="m256 314.034c-55.229 0-100-44.771-100-100v-131.534h200v131.535c0 55.228-44.771 99.999-100 99.999z" fill="#fff1ce"/><path d="m216 214.035v-131.535h-60v131.535c0 55.228 44.771 100 100 100 10.452 0 20.529-1.606 30-4.581-40.57-12.744-70-50.644-70-95.419z" fill="#ffe1bd"/><path d="m366 157.5-20-150h-180l-20 150z" fill="#ffd3a3"/><g><path d="m266 7.5h-100l-20 150h70v-100c0-27.614 22.386-50 50-50z" fill="#ffcb97"/></g><path d="m152.667 107.5h206.666l-6.666-50h-193.334z" fill="#ffe1bd"/><path d="m216 57.5h-56.667l-6.666 50h63.333z" fill="#ffd3a3"/><path d="m346 7.5v360c0 11.046 8.954 20 20 20 35.221 0 65.882-24.07 74.242-58.285l50.942-208.481c1.992-8.151-1.316-16.678-8.283-21.354z" fill="#fff1ce"/><path d="m386.243 34.509-40.243-27.009v360c0 11.046 8.954 20 20 20 6.974 0 13.764-.958 20.243-2.737z" fill="#ffe1bd"/><path d="m166 7.5v360c0 11.046-8.954 20-20 20-35.221 0-65.882-24.07-74.242-58.285l-50.942-208.481c-1.992-8.151 1.316-16.678 8.283-21.354z" fill="#fff1ce"/><path d="m111.758 329.215-56.951-231.861c-1.645-6.734.334-13.718 4.997-18.582l-30.705 20.608c-6.967 4.676-10.275 13.203-8.283 21.354l50.942 208.481c8.36 34.215 39.021 58.285 74.242 58.285 5.012 0 9.582-1.857 13.092-4.903-23.098-8.697-41.207-28.308-47.334-53.382z" fill="#ffe1bd"/><path d="m346 107.5h143.861c-1.507-3.217-3.872-6.047-6.959-8.12l-62.402-41.88h-74.5z" fill="#ffe1bd"/><path d="m346 57.5h40.243v50h-40.243z" fill="#ffd3a3"/><path d="m166 107.5v-50h-74.5l-62.401 41.88c-3.088 2.072-5.452 4.903-6.959 8.12z" fill="#ffe1bd"/><path d="m166 207.5v-50h-136.201l12.218 50z" fill="#ffe1bd"/><path d="m69.581 157.5h-39.782l12.218 50h39.845z" fill="#ffd3a3"/><path d="m346 207.5h123.983l12.218-50h-136.201z" fill="#ffe1bd"/><path d="m346 157.5h40.243v50h-40.243z" fill="#ffd3a3"/><path d="m166 307.5v-50h-111.766l12.218 50z" fill="#ffe1bd"/><path d="m346 307.5h99.548l12.218-50h-111.766z" fill="#ffe1bd"/><path d="m346 257.5h40.243v50h-40.243z" fill="#ffd3a3"/><path d="m169 427.5h-123c-21.263 0-38.5 17.237-38.5 38.5 0 21.263 17.237 38.5 38.5 38.5h123c21.263 0 38.5-17.237 38.5-38.5 0-21.263-17.237-38.5-38.5-38.5z" fill="#fff1ce"/><path d="m67.5 466c0-21.263 17.237-38.5 38.5-38.5h-60c-21.263 0-38.5 17.237-38.5 38.5 0 21.263 17.237 38.5 38.5 38.5h60c-21.263 0-38.5-17.237-38.5-38.5z" fill="#ffe1bd"/><path d="m466 427.5h-123c-21.263 0-38.5 17.237-38.5 38.5 0 21.263 17.237 38.5 38.5 38.5h123c21.263 0 38.5-17.237 38.5-38.5 0-21.263-17.237-38.5-38.5-38.5z" fill="#fff1ce"/><path d="m364.5 466c0-21.263 17.237-38.5 38.5-38.5h-60c-21.263 0-38.5 17.237-38.5 38.5 0 21.263 17.237 38.5 38.5 38.5h60c-21.263 0-38.5-17.237-38.5-38.5z" fill="#ffe1bd"/><g fill="#ffd3a3"><path d="m54.807 97.354c-1.645-6.734.334-13.718 4.997-18.582l-30.705 20.608c-3.088 2.072-5.452 4.903-6.959 8.12h35.16z"/><path d="m94.143 257.5h-39.909l12.218 50h39.972z"/></g></g><g><g><path d="m193.552 204.928c-4.143 0-7.5-3.358-7.5-7.5v-12c0-4.142 3.357-7.5 7.5-7.5s7.5 3.358 7.5 7.5v12c0 4.142-3.358 7.5-7.5 7.5z"/></g><g><path d="m318.448 204.928c-4.143 0-7.5-3.358-7.5-7.5v-12c0-4.142 3.357-7.5 7.5-7.5s7.5 3.358 7.5 7.5v12c0 4.142-3.357 7.5-7.5 7.5z"/></g><g><path d="m256 212.072c-8.478 0-16.539-3.671-22.118-10.073-2.722-3.123-2.396-7.86.727-10.582 3.122-2.721 7.859-2.396 10.582.727 2.729 3.132 6.669 4.928 10.81 4.928s8.08-1.796 10.81-4.928c2.721-3.123 7.457-3.448 10.582-.727 3.122 2.722 3.448 7.459.727 10.582-5.581 6.401-13.642 10.073-22.12 10.073z"/></g></g><path d="m473.259 420.578c-1.774-26.673-13.539-51.989-32.906-70.553 3.092-5.926 5.528-12.292 7.175-19.03l50.943-208.481c2.726-11.16-1.852-22.959-11.39-29.361l-136.901-91.881c-1.26-.845-2.718-1.257-4.18-1.257v-.015h-180v.015c-1.462 0-2.92.412-4.18 1.257l-136.901 91.881c-9.538 6.402-14.115 18.201-11.39 29.362l50.943 208.48c1.646 6.738 4.083 13.105 7.175 19.031-19.4 18.593-31.144 43.793-32.91 70.552-21.924 3.494-38.737 22.529-38.737 45.422 0 25.364 20.636 46 46 46h420c25.364 0 46-20.636 46-46 0-22.894-16.814-41.93-38.741-45.422zm-229.759-99.78c4.132.48 8.303.736 12.5.736s8.368-.256 12.5-.737v46.703c0 6.893-5.607 12.5-12.5 12.5s-12.5-5.607-12.5-12.5zm12.5-14.264c-35.144 0-66.622-19.376-82.5-50.649v-90.885h165v90.885c-15.878 31.273-47.358 50.649-82.5 50.649zm-176.956 20.901-3.038-12.435h31.494c4.143 0 7.5-3.358 7.5-7.5s-3.357-7.5-7.5-7.5h-35.16l-8.552-35h94.712v35h-21c-4.143 0-7.5 3.358-7.5 7.5s3.357 7.5 7.5 7.5h21v52.5c0 6.893-5.607 12.5-12.5 12.5-31.86 0-59.394-21.616-66.956-52.565zm14.74-262.435h64.716v35h-116.866zm376.582 35h-116.866v-35h64.716zm13.532 18.954-7.586 31.046h-35.312c-4.143 0-7.5 3.358-7.5 7.5s3.357 7.5 7.5 7.5h31.647l-8.552 35h-110.595v-35h57.5c4.143 0 7.5-3.358 7.5-7.5s-3.357-7.5-7.5-7.5h-57.5v-35h130.707c.106 1.306.013 2.639-.309 3.954zm-32.021 131.046h-98.377v-35h106.93zm-12.217 50h-86.16v-35h94.712zm-101.16-200h-165v-35h165zm-165 15h165v35h-165zm165-65h-165v-35h165zm-180 65v35h-122.812l-7.586-31.045c-.321-1.315-.415-2.649-.309-3.955zm0 50v35h-110.595l-8.552-35zm0 50v35h-98.377l-8.552-35zm195 100h82.494l-3.038 12.435c-7.562 30.949-35.096 52.565-66.956 52.565-6.893 0-12.5-5.607-12.5-12.5zm42.366-265h-42.366v-28.434zm-237.366 0h-42.366l42.366-28.434zm-78.555 312.907c15.511 19.802 39.55 32.093 66.055 32.093 15.163 0 27.5-12.336 27.5-27.5v-84.534c7.074 8.46 15.441 15.828 24.844 21.814 9.362 5.96 19.532 10.379 30.156 13.182v49.538c0 15.164 12.337 27.5 27.5 27.5s27.5-12.336 27.5-27.5v-49.538c10.621-2.803 20.788-7.22 30.148-13.177 9.406-5.987 17.776-13.356 24.852-21.818v84.533c0 15.164 12.337 27.5 27.5 27.5 26.504 0 50.543-12.291 66.054-32.093 15.063 15.389 24.333 35.685 26.125 57.093h-115.179c-25.364 0-46 20.636-46 46 0 11.933 4.569 22.817 12.047 31h-106.094c7.478-8.183 12.047-19.067 12.047-31 0-25.364-20.636-46-46-46h-115.178c1.783-21.472 11.034-41.689 26.123-57.093zm-64.945 103.093c0-17.093 13.906-31 31-31h123c17.094 0 31 13.907 31 31s-13.906 31-31 31h-123c-17.094 0-31-13.907-31-31zm451 31h-123c-17.094 0-31-13.907-31-31s13.906-31 31-31h123c17.094 0 31 13.907 31 31s-13.906 31-31 31z"/></g></svg>