<svg id="Capa_1" enable-background="new 0 0 512 512" height="512" viewBox="0 0 512 512" width="512" xmlns="http://www.w3.org/2000/svg"><g><g><path d="m468.633 274.5 32.587-236.547c1.763-12.797-8.89-23.866-21.75-22.64-69.221 6.595-103.47 38.829-103.47 38.829l-35.207 220.358z" fill="#fff1ce"/></g><g><path d="m43.367 274.5h127.84l-35.207-220.358s-34.249-32.234-103.47-38.83c-12.859-1.225-23.513 9.843-21.75 22.64z" fill="#ffd3a3"/></g><g><path d="m349.169 274.5 35.331-227s-42.5-40-128.5-40-128.5 40-128.5 40l35.331 227z" fill="#fff1ce"/></g><g><g><path d="m384.466 47.718.034-.218s-.01-.01-.031-.029c-.001.082-.001.165-.003.247z" fill="#fff"/><path d="m384.164 47.87.105-.137-.303-.027.011-1.291 1.027.871-.044.509-.673-.06z"/></g><g><path d="m127.531 47.471c-.021.019-.031.029-.031.029l.034.219c-.002-.083-.001-.165-.003-.248z" fill="#fff"/><path d="m127.871 47.837-.116-.105-.715.064-.075-.484 1.022-.931.047 1.326-.263.023z"/></g><g><path d="m256 173.539c-58.211 0-107.372-38.71-123.169-91.789l30 192.75h186.339l30-192.749c-15.799 53.079-64.96 91.788-123.17 91.788z" fill="#ffd3a3"/></g></g><g><g><path d="m193.552 81.928c-4.143 0-7.5-3.358-7.5-7.5v-12c0-4.142 3.357-7.5 7.5-7.5s7.5 3.358 7.5 7.5v12c0 4.142-3.358 7.5-7.5 7.5z"/></g><g><path d="m318.448 81.928c-4.143 0-7.5-3.358-7.5-7.5v-12c0-4.142 3.357-7.5 7.5-7.5s7.5 3.358 7.5 7.5v12c0 4.142-3.357 7.5-7.5 7.5z"/></g><g><path d="m256 89.072c-8.478 0-16.539-3.671-22.118-10.073-2.722-3.123-2.396-7.86.727-10.582 3.122-2.721 7.859-2.396 10.582.727 2.729 3.132 6.669 4.928 10.81 4.928s8.08-1.796 10.81-4.928c2.721-3.123 7.457-3.448 10.582-.727 3.122 2.722 3.448 7.459.727 10.582-5.581 6.401-13.642 10.073-22.12 10.073z"/></g></g><g><path d="m364.35 274.5 34.972-224.693c1.274-8.186-4.329-15.854-12.515-17.128-8.182-1.276-15.854 4.329-17.128 12.515l-35.691 229.306z" fill="#c8866a"/></g><g><path d="m147.65 274.5h30.362l-35.69-229.307c-1.274-8.187-8.95-13.789-17.128-12.515-8.186 1.274-13.789 8.943-12.515 17.128z" fill="#c8866a"/></g><g><path d="m107.5 274.5h297v130h-297z" fill="#c8866a"/></g><g><path d="m454.5 324.5h-397c-27.614 0-50-22.386-50-50 0-27.614 22.386-50 50-50h397c27.614 0 50 22.386 50 50 0 27.614-22.386 50-50 50z" fill="#fff18f"/></g><g><path d="m120.255 274.5c0-27.614 22.386-50 50-50h-112.755c-27.614 0-50 22.386-50 50 0 27.614 22.386 50 50 50h112.755c-27.615 0-50-22.386-50-50z" fill="#ffde83"/></g><g><path d="m107.5 304.5c-55.228 0-100 44.771-100 100s44.772 100 100 100c55.229 0 100-44.771 100-100s-44.771-100-100-100zm0 160c-33.084 0-60-26.916-60-60s26.916-60 60-60 60 26.916 60 60-26.916 60-60 60z" fill="#525e77"/></g><g><path d="m87.5 484.5c0-11.046 8.954-20 20-20-33.084 0-60-26.916-60-60s26.916-60 60-60c-11.046 0-20-8.954-20-20s8.954-20 20-20c-55.228 0-100 44.771-100 100s44.772 100 100 100c-11.046 0-20-8.954-20-20z" fill="#3b4456"/></g><g><path d="m404.5 304.5c-55.228 0-100 44.771-100 100s44.772 100 100 100c55.229 0 100-44.771 100-100s-44.771-100-100-100zm0 160c-33.084 0-60-26.916-60-60s26.916-60 60-60 60 26.916 60 60-26.916 60-60 60z" fill="#525e77"/></g><g><path d="m384.5 484.5c0-11.046 8.954-20 20-20-33.084 0-60-26.916-60-60s26.916-60 60-60c-11.046 0-20-8.954-20-20s8.954-20 20-20c-55.228 0-100 44.771-100 100s44.772 100 100 100c-11.046 0-20-8.954-20-20z" fill="#3b4456"/></g><g><path d="m107.5 337c-37.22 0-67.5 30.28-67.5 67.5s30.28 67.5 67.5 67.5 67.5-30.28 67.5-67.5-30.28-67.5-67.5-67.5zm-42.031 36.076 23.924 23.924h-33.849c1.277-8.881 4.775-17.053 9.925-23.924zm-9.925 38.924h33.849l-23.924 23.924c-5.15-6.871-8.648-15.043-9.925-23.924zm44.456 44.456c-8.881-1.276-17.053-4.775-23.924-9.925l23.924-23.924zm0-70.063-23.924-23.924c6.871-5.15 15.044-8.649 23.924-9.925zm15-33.849c8.881 1.276 17.053 4.775 23.924 9.925l-23.924 23.924zm0 103.912v-33.849l23.924 23.924c-6.871 5.15-15.043 8.648-23.924 9.925zm34.531-20.532-23.924-23.924h33.849c-1.277 8.881-4.775 17.053-9.925 23.924zm-23.924-38.924 23.924-23.924c5.15 6.871 8.648 15.043 9.925 23.924z"/><path d="m478.632 326.719c20.096-9.221 33.368-29.336 33.368-52.219 0-21.309-11.66-39.934-28.927-49.866l25.576-185.658c1.153-8.373-1.541-16.675-7.392-22.776-5.862-6.113-14.07-9.154-22.498-8.354-36.092 3.439-62.936 13.757-79.838 22.392-3.033-2.543-6.772-4.319-10.96-4.971-5.8-.903-11.612.469-16.406 3.848-19.663-11.731-58.443-29.115-115.555-29.115-57.095 0-95.868 17.37-115.556 29.115-4.602-3.241-10.412-4.779-16.404-3.847-4.188.652-7.928 2.428-10.961 4.971-16.903-8.636-43.746-18.954-79.837-22.393-8.444-.804-16.638 2.242-22.5 8.354-5.851 6.102-8.545 14.403-7.392 22.776l25.576 185.658c-17.266 9.932-28.926 28.557-28.926 49.866 0 22.872 13.276 42.993 33.369 52.217-20.547 19.592-33.369 47.218-33.369 77.783 0 59.276 48.225 107.5 107.5 107.5 56.754 0 103.37-44.21 107.234-100h82.532c3.864 55.79 50.48 100 107.234 100 59.275 0 107.5-48.224 107.5-107.5 0-30.564-12.821-58.19-33.368-77.781zm-101.543-280.372c.308-1.979 1.369-3.721 2.987-4.904 1.619-1.182 3.6-1.662 5.577-1.354 4.086.636 6.894 4.479 6.258 8.564l-15.303 98.318c-.637 4.093 2.165 7.927 6.258 8.564 4.099.641 7.928-2.166 8.564-6.257l15.303-98.319c.414-2.66.34-5.286-.153-7.787 15.723-7.923 40.411-17.232 73.602-20.394 3.849-.371 7.58 1.02 10.249 3.803 2.658 2.772 3.882 6.543 3.358 10.347l-25.053 181.857c-4.555-1.165-9.325-1.787-14.237-1.787h-73.61l5.69-36.56c.637-4.093-2.165-7.927-6.258-8.564-4.101-.643-7.928 2.165-8.564 6.257l-6.049 38.869h-15.18zm-121.089-31.347c52.649 0 88.361 15.555 106.858 26.398-.242.864-.451 1.741-.591 2.642l-26.919 172.96h-158.695l-26.92-172.961c-.141-.905-.34-1.785-.582-2.646 18.517-10.854 54.219-26.393 106.849-26.393zm-129.652 25.089c4.086-.631 7.928 2.171 8.563 6.258l26.56 170.653h-15.18l-26.202-168.346c-.636-4.087 2.172-7.929 6.259-8.565zm-108.138-3.16c-.523-3.803.7-7.575 3.358-10.347 2.67-2.784 6.401-4.167 10.251-3.804 33.19 3.162 57.876 12.471 73.601 20.394-.493 2.501-.567 5.126-.153 7.787l25.843 166.041h-73.61c-4.913 0-9.682.622-14.237 1.787zm-3.21 237.571c0-23.435 19.065-42.5 42.5-42.5h397c23.435 0 42.5 19.065 42.5 42.5 0 19.571-13.125 36.401-32.002 41.186-17.246-11.784-38.08-18.686-60.498-18.686-23.24 0-44.779 7.415-62.381 20h-172.131c-17.963-12.843-39.695-20-62.488-20-22.418 0-43.252 6.902-60.498 18.686-18.873-4.785-32.002-21.625-32.002-41.186zm199.734 122.5c-.561-8.126-2.026-16.134-4.392-23.892-1.209-3.962-5.401-6.193-9.361-4.986-3.962 1.208-6.194 5.399-4.986 9.362 2.657 8.716 4.005 17.805 4.005 27.016 0 51.005-41.495 92.5-92.5 92.5s-92.5-41.495-92.5-92.5 41.495-92.5 92.5-92.5c31.184 0 60.068 15.562 77.268 41.627 2.28 3.458 6.932 4.411 10.391 2.13 3.457-2.281 4.41-6.934 2.129-10.391-3.145-4.766-6.626-9.228-10.401-13.366h138.313c-15.923 17.402-26.205 40.042-27.933 65zm189.766 100c-51.005 0-92.5-41.495-92.5-92.5s41.495-92.5 92.5-92.5 92.5 41.495 92.5 92.5-41.495 92.5-92.5 92.5z"/><path d="m404.5 337c-37.22 0-67.5 30.28-67.5 67.5s30.28 67.5 67.5 67.5 67.5-30.28 67.5-67.5-30.28-67.5-67.5-67.5zm-42.031 36.076 23.924 23.924h-33.849c1.277-8.881 4.775-17.053 9.925-23.924zm-9.925 38.924h33.849l-23.924 23.924c-5.15-6.871-8.648-15.043-9.925-23.924zm44.456 44.456c-8.881-1.276-17.053-4.775-23.924-9.925l23.924-23.924zm0-70.063-23.924-23.924c6.871-5.15 15.044-8.649 23.924-9.925zm15-33.849c8.881 1.276 17.053 4.775 23.924 9.925l-23.924 23.924zm0 103.912v-33.849l23.924 23.924c-6.871 5.15-15.043 8.648-23.924 9.925zm34.531-20.532-23.924-23.924h33.849c-1.277 8.881-4.775 17.053-9.925 23.924zm-23.924-38.924 23.924-23.924c5.15 6.871 8.648 15.043 9.925 23.924z"/></g></g></svg>