<svg id="Capa_1" enable-background="new 0 0 512 512" height="512" viewBox="0 0 512 512" width="512" xmlns="http://www.w3.org/2000/svg"><g><g><path d="m464.5 195.371h-27.355c-2.522-11.439-12.715-20-24.912-20-14.093 0-25.517 11.424-25.517 25.517v28.966c0 14.093 11.424 25.517 25.517 25.517 12.197 0 22.39-8.561 24.912-20h27.355v20c0 11.046 8.954 20 20 20s20-8.954 20-20v-20c0-22.091-17.909-40-40-40z" fill="#e7faff"/></g><g><path d="m464.5 195.371h-27.355c-2.522-11.439-12.715-20-24.912-20-14.093 0-25.517 11.424-25.517 25.517v28.966c0 14.093 11.424 25.517 25.517 25.517 12.197 0 22.39-8.561 24.912-20h27.355c-11.046 0-20-8.954-20-20s8.954-20 20-20z" fill="#c1f1ff"/></g><g><path d="m167 378.463h178v40h-178z" fill="#c8866a"/></g><g><path d="m242 398.463c0-11.046 8.954-20 20-20h-95v40h95c-11.046 0-20-8.955-20-20z" fill="#b77158"/></g><g><path d="m-22.104 273.51h414.963v40h-414.963z" fill="#db9e82" transform="matrix(.195 -.981 .981 .195 -138.658 418.064)"/></g><g><g><path d="m170.698 367.307c-10.833-2.155-17.869-12.684-15.714-23.517l-29.7 149.313 39.231 7.804 29.7-149.313c-2.154 10.832-12.683 17.868-23.517 15.713z" fill="#c8866a"/></g></g><g><path d="m119.141 273.51h414.963v40h-414.963z" fill="#db9e82" transform="matrix(-.195 -.981 .981 -.195 102.474 671.117)"/></g><g><g><path d="m341.302 367.307c10.833-2.155 17.869-12.684 15.714-23.517l29.7 149.313-39.231 7.804-29.7-149.313c2.154 10.832 12.683 17.868 23.517 15.713z" fill="#c8866a"/></g></g><g><path d="m484.5 504.49h-457c-11.046 0-20-8.954-20-20 0-11.046 8.954-20 20-20h457c11.046 0 20 8.954 20 20 0 11.046-8.954 20-20 20z" fill="#fff1ce"/></g><g><path d="m107.5 484.49c0-11.046 8.954-20 20-20h-100c-11.046 0-20 8.954-20 20 0 11.046 8.954 20 20 20h100c-11.046 0-20-8.954-20-20z" fill="#ffe1bd"/></g><g><path d="m411 118.308h-310v-20l128.806-83.101c15.947-10.289 36.441-10.289 52.388 0l128.806 83.101z" fill="#c8866a"/></g><g><path d="m279.806 15.207c.395-.254.794-.498 1.194-.74-15.767-9.538-35.641-9.294-51.194.74l-128.806 83.1v20h50v-20z" fill="#b77158"/></g><g><path d="m101 118.308h310v194.127h-310z" fill="#db9e82"/></g><g><path d="m101 118.307h50v194.127h-50z" fill="#c8866a"/></g><g><path d="m411 138.308h-310c-11.046 0-20-8.954-20-20 0-11.046 8.954-20 20-20h310c11.046 0 20 8.954 20 20 0 11.045-8.954 20-20 20z" fill="#ffcb97"/></g><g><path d="m131 118.308c0-11.046 8.954-20 20-20h-50c-11.046 0-20 8.954-20 20s8.954 20 20 20h50c-11.046 0-20-8.955-20-20z" fill="#ffab6c"/></g><g><path d="m411 332.435h-310c-11.046 0-20-8.954-20-20 0-11.046 8.954-20 20-20h310c11.046 0 20 8.954 20 20 0 11.045-8.954 20-20 20z" fill="#ffcb97"/></g><g><path d="m131 312.435c0-11.046 8.954-20 20-20h-50c-11.046 0-20 8.954-20 20s8.954 20 20 20h50c-11.046 0-20-8.955-20-20z" fill="#ffab6c"/></g><g><g><g><ellipse cx="176.355" cy="223.64" fill="#fff" rx="29.387" ry="23.403"/></g><g><ellipse cx="335.645" cy="223.64" fill="#fff" rx="29.387" ry="23.403"/></g><g><path d="m279.694 205.659c0-14.643-10.608-16.019-23.694-16.019-13.085 0-23.693 1.376-23.693 16.019s10.608 26.513 23.693 26.513c13.086-.001 23.694-11.871 23.694-26.513z" fill="#3b4456"/></g></g><g><path d="m181.268 203.199c-4.143 0-7.5-3.357-7.5-7.5v-12c0-4.143 3.357-7.5 7.5-7.5s7.5 3.357 7.5 7.5v12c0 4.143-3.358 7.5-7.5 7.5z"/></g><g><path d="m256 239.671c-17.2 0-31.193-15.258-31.193-34.013 0-23.519 21.859-23.519 31.193-23.519s31.193 0 31.193 23.519c0 18.755-13.993 34.013-31.193 34.013zm0-42.531c-15.538 0-16.193 2.611-16.193 8.519 0 10.483 7.265 19.013 16.193 19.013s16.193-8.529 16.193-19.013c0-5.908-.655-8.519-16.193-8.519z"/></g><g><path d="m330.732 203.199c-4.143 0-7.5-3.357-7.5-7.5v-12c0-4.143 3.357-7.5 7.5-7.5s7.5 3.357 7.5 7.5v12c0 4.143-3.357 7.5-7.5 7.5z"/></g></g><path d="m484.5 282.871c15.163 0 27.5-12.337 27.5-27.5v-20c0-26.191-21.309-47.5-47.5-47.5h-21.932c-4.309-9.97-13.407-17.272-24.068-19.368v-23.743c11.528-3.274 20-13.889 20-26.452 0-14.361-11.069-26.18-25.121-27.391l-127.118-82.011c-18.382-11.861-42.138-11.861-60.521 0l-127.119 82.011c-14.053 1.211-25.121 13.03-25.121 27.391 0 12.563 8.472 23.178 20 26.452v141.224c-11.528 3.274-20 13.889-20 26.452 0 15.163 12.337 27.5 27.5 27.5h47.104l-8.412 42.29c-.809 4.063 1.83 8.011 5.893 8.818.494.099.985.146 1.471.146 3.505 0 6.639-2.469 7.348-6.038l8.994-45.216h25.491l-23.285 117.054h-25.49l8.323-41.84c.809-4.063-1.83-8.011-5.893-8.818-4.054-.809-8.012 1.828-8.818 5.893l-8.905 44.766h-97.321c-15.164 0-27.5 12.336-27.5 27.5s12.336 27.5 27.5 27.5h457c15.164 0 27.5-12.336 27.5-27.5s-12.336-27.5-27.5-27.5h-97.321l-23.284-117.056h47.105c15.163 0 27.5-12.337 27.5-27.5 0-12.563-8.472-23.178-20-26.452v-23.744c10.661-2.096 19.76-9.397 24.068-19.368h14.432v12.5c0 15.163 12.337 27.5 27.5 27.5zm-376 2.064v-139.127h295v139.127zm-20-166.627c0-6.893 5.607-12.5 12.5-12.5h212.5c4.143 0 7.5-3.357 7.5-7.5s-3.357-7.5-7.5-7.5h-187.041l107.413-69.299c13.441-8.672 30.814-8.672 44.256 0l107.413 69.299h-42.041c-4.143 0-7.5 3.357-7.5 7.5s3.357 7.5 7.5 7.5h67.5c6.893 0 12.5 5.607 12.5 12.5s-5.607 12.5-12.5 12.5h-310c-6.893 0-12.5-5.608-12.5-12.5zm219.319 221.627 6.172 31.027h-115.982l6.172-31.027zm-112.793 46.027h121.949l4.973 25h-131.895zm-7.957 40h137.862l6.172 31.028h-150.206zm309.931 58.528c0 6.893-5.607 12.5-12.5 12.5h-457c-6.893 0-12.5-5.607-12.5-12.5s5.607-12.5 12.5-12.5h457c6.893 0 12.5 5.608 12.5 12.5zm-125.114-27.5h-25.491l-23.284-117.056h25.49zm51.614-144.555c0 6.893-5.607 12.5-12.5 12.5h-310c-6.893 0-12.5-5.607-12.5-12.5s5.607-12.5 12.5-12.5h310c6.893 0 12.5 5.607 12.5 12.5zm13.646-84.564c-3.52 0-6.566 2.447-7.324 5.885-1.334 6.049-5.731 10.863-11.321 12.965v-62.699c5.591 2.102 9.987 6.916 11.321 12.965.758 3.438 3.805 5.885 7.324 5.885h27.354c17.921 0 32.5 14.579 32.5 32.5v20c0 6.893-5.607 12.5-12.5 12.5s-12.5-5.607-12.5-12.5v-20c0-4.143-3.357-7.5-7.5-7.5h-27.354z"/></g></svg>